<svg xmlns="http://www.w3.org/2000/svg" xmlns:xlink="http://www.w3.org/1999/xlink" width="500" zoomAndPan="magnify" viewBox="0 0 375 374.999991" height="500" preserveAspectRatio="xMidYMid meet" version="1.0"><defs><clipPath id="4026364c03"><path d="M 55.738281 49.273438 L 318.988281 49.273438 L 318.988281 312.523438 L 55.738281 312.523438 Z M 55.738281 49.273438 " clip-rule="nonzero"/></clipPath></defs><g clip-path="url(#4026364c03)"><path fill="#ffffff" d="M 319.257812 49.273438 L 319.257812 312.792969 L 55.738281 312.792969 L 55.738281 49.273438 Z M 186.46875 258.496094 L 186.46875 190.425781 C 186.46875 189.847656 187.757812 189.078125 188.386719 189.257812 L 230.855469 189.265625 C 244.136719 188.148438 248.453125 171.714844 247.46875 160.5625 C 247.304688 158.703125 246.550781 157.359375 244.511719 157.347656 L 187.902344 157.339844 C 186.25 157.261719 186.648438 154.925781 186.761719 153.660156 C 187.582031 144.207031 194.90625 138.542969 203.871094 137.3125 C 216.210938 135.625 229.753906 137.554688 242.195312 136.777344 C 248.34375 136.394531 252.878906 133.582031 256.855469 129.050781 C 258.394531 127.296875 262.972656 122.109375 258.898438 120.828125 C 255.367188 119.710938 249.761719 119.617188 245.863281 118.9375 C 238.890625 117.722656 231.714844 115.960938 225.761719 112.015625 C 220.761719 108.699219 218.199219 104.722656 212.378906 101.980469 C 210.082031 100.898438 208.25 101.296875 207.855469 98.011719 C 207.375 93.957031 209.042969 87.996094 207.628906 84.082031 C 206.875 81.992188 205.167969 82.726562 203.730469 83.644531 C 199.949219 86.050781 196.203125 91.757812 192.523438 94.308594 C 192.304688 94.460938 192.265625 94.667969 191.875 94.5625 C 190.667969 90.550781 188.125 78.902344 184.65625 76.691406 C 182.183594 75.113281 178.789062 80.328125 177.511719 82.128906 C 172.4375 89.296875 169.21875 97.839844 167.28125 106.382812 C 152.820312 117.628906 146.492188 131.785156 145.800781 150.007812 C 144.867188 174.445312 146.425781 199.527344 145.925781 224.023438 C 146.304688 225.597656 147.136719 226.164062 148.40625 226.949219 C 153.375 230.019531 159.34375 232.21875 164.511719 235.289062 C 172.414062 239.980469 179.125 245.53125 183.847656 253.527344 Z M 132.375 189.0625 C 129.449219 189.316406 123.828125 193.277344 121.496094 195.195312 C 101.648438 211.5 98.789062 243.417969 115.449219 262.992188 C 125.8125 275.171875 141.109375 279.929688 156.746094 280.625 C 163.171875 280.910156 173.996094 281.261719 180.132812 280.34375 C 184.054688 279.757812 183.570312 276.808594 183.390625 273.539062 C 182.625 259.625 174.644531 248.710938 163.183594 241.503906 C 151.320312 234.046875 135.753906 230.949219 132.039062 215.261719 C 130.480469 208.675781 131.0625 202.324219 132.703125 195.851562 C 133.140625 194.132812 135.890625 188.757812 132.371094 189.0625 Z M 132.375 189.0625 " fill-opacity="1" fill-rule="nonzero"/></g><path fill="#38a1ff" d="M 186.46875 258.496094 L 183.847656 253.527344 C 179.125 245.53125 172.410156 239.980469 164.511719 235.289062 C 159.34375 232.21875 153.375 230.019531 148.40625 226.949219 C 147.136719 226.164062 146.304688 225.597656 145.925781 224.023438 C 146.425781 199.53125 144.867188 174.445312 145.800781 150.007812 C 146.492188 131.785156 152.820312 117.628906 167.28125 106.382812 C 169.21875 97.84375 172.4375 89.296875 177.511719 82.128906 C 178.789062 80.324219 182.183594 75.113281 184.65625 76.691406 C 188.125 78.902344 190.671875 90.550781 191.875 94.5625 C 192.265625 94.667969 192.304688 94.460938 192.523438 94.308594 C 196.203125 91.757812 199.949219 86.050781 203.730469 83.644531 C 205.171875 82.726562 206.878906 81.992188 207.632812 84.082031 C 209.042969 87.996094 207.375 93.957031 207.855469 98.011719 C 208.25 101.296875 210.082031 100.898438 212.378906 101.980469 C 218.199219 104.722656 220.761719 108.699219 225.761719 112.015625 C 231.714844 115.960938 238.890625 117.71875 245.863281 118.9375 C 249.761719 119.617188 255.363281 119.710938 258.898438 120.828125 C 262.976562 122.109375 258.394531 127.296875 256.855469 129.050781 C 252.878906 133.582031 248.34375 136.394531 242.195312 136.777344 C 229.753906 137.554688 216.210938 135.625 203.871094 137.3125 C 194.90625 138.542969 187.582031 144.203125 186.761719 153.660156 C 186.648438 154.925781 186.25 157.261719 187.902344 157.339844 L 244.511719 157.347656 C 246.550781 157.359375 247.304688 158.703125 247.46875 160.5625 C 248.457031 171.714844 244.140625 188.148438 230.855469 189.265625 L 188.386719 189.257812 C 187.757812 189.078125 186.46875 189.847656 186.46875 190.425781 Z M 203.519531 112.902344 C 201.757812 114.753906 205.539062 117.105469 206.988281 117.667969 C 209.722656 118.722656 219.570312 119.800781 215.03125 114.515625 C 213.355469 112.570312 209.933594 111.683594 207.433594 111.796875 C 206.644531 111.835938 204.011719 112.386719 203.523438 112.902344 Z M 203.519531 112.902344 " fill-opacity="1" fill-rule="nonzero"/><path fill="#38a1ff" d="M 132.375 189.0625 C 135.894531 188.757812 133.144531 194.132812 132.707031 195.851562 C 131.0625 202.324219 130.480469 208.675781 132.042969 215.261719 C 135.753906 230.949219 151.320312 234.046875 163.183594 241.503906 C 174.648438 248.710938 182.628906 259.625 183.390625 273.539062 C 183.570312 276.808594 184.054688 279.757812 180.136719 280.34375 C 173.996094 281.257812 163.175781 280.910156 156.75 280.625 C 141.109375 279.929688 125.8125 275.171875 115.449219 262.992188 C 98.792969 243.417969 101.652344 211.5 121.5 195.195312 C 123.828125 193.277344 129.449219 189.316406 132.375 189.0625 Z M 132.375 189.0625 " fill-opacity="1" fill-rule="nonzero"/><path fill="#ffffff" d="M 203.519531 112.902344 C 204.011719 112.386719 206.644531 111.835938 207.433594 111.796875 C 209.933594 111.683594 213.355469 112.566406 215.027344 114.515625 C 219.566406 119.800781 209.71875 118.722656 206.988281 117.667969 C 205.535156 117.105469 201.753906 114.753906 203.519531 112.902344 Z M 203.519531 112.902344 " fill-opacity="1" fill-rule="nonzero"/></svg>