<svg xmlns="http://www.w3.org/2000/svg" xmlns:xlink="http://www.w3.org/1999/xlink" width="500" zoomAndPan="magnify" viewBox="0 0 375 374.999991" height="500" preserveAspectRatio="xMidYMid meet" version="1.0"><defs><filter x="0%" y="0%" width="100%" height="100%" id="8bf086dc35"><feColorMatrix values="0 0 0 0 1 0 0 0 0 1 0 0 0 0 1 0 0 0 1 0" color-interpolation-filters="sRGB"/></filter><g/><clipPath id="7f9f0e3ce6"><path d="M 40 133.800781 L 75.523438 133.800781 L 75.523438 190 L 40 190 Z M 40 133.800781 " clip-rule="nonzero"/></clipPath><clipPath id="5bb91c6ccc"><path d="M 28.273438 168 L 53 168 L 53 196.050781 L 28.273438 196.050781 Z M 28.273438 168 " clip-rule="nonzero"/></clipPath><clipPath id="e03f362abb"><rect x="0" width="182" y="0" height="67"/></clipPath><clipPath id="bb7c53751a"><path d="M 179.542969 189.90625 L 348.292969 189.90625 L 348.292969 270.90625 L 179.542969 270.90625 Z M 179.542969 189.90625 " clip-rule="nonzero"/></clipPath><clipPath id="4697907658"><path d="M 0.542969 0.90625 L 169.292969 0.90625 L 169.292969 81.90625 L 0.542969 81.90625 Z M 0.542969 0.90625 " clip-rule="nonzero"/></clipPath><clipPath id="90d7441a63"><path d="M 1.296875 0.90625 L 169.292969 0.90625 L 169.292969 81.15625 L 1.296875 81.15625 Z M 1.296875 0.90625 " clip-rule="nonzero"/></clipPath><linearGradient x1="-39.220001" gradientTransform="matrix(0.750817, 0, 0, 0.749979, 30.741988, 30.905215)" y1="13.5" x2="184.533009" gradientUnits="userSpaceOnUse" y2="13.5" id="eb57f43b5d"><stop stop-opacity="1" stop-color="rgb(25.878906%, 1.568604%, 49.409485%)" offset="0"/><stop stop-opacity="1" stop-color="rgb(25.878906%, 1.568604%, 49.409485%)" offset="0.125"/><stop stop-opacity="1" stop-color="rgb(25.878906%, 1.568604%, 49.409485%)" offset="0.15625"/><stop stop-opacity="1" stop-color="rgb(25.878906%, 1.568604%, 49.409485%)" offset="0.171875"/><stop stop-opacity="1" stop-color="rgb(25.862122%, 1.635742%, 49.41864%)" offset="0.179688"/><stop stop-opacity="1" stop-color="rgb(25.704956%, 2.275085%, 49.504089%)" offset="0.183594"/><stop stop-opacity="1" stop-color="rgb(25.564575%, 2.84729%, 49.580383%)" offset="0.1875"/><stop stop-opacity="1" stop-color="rgb(25.424194%, 3.419495%, 49.656677%)" offset="0.191406"/><stop stop-opacity="1" stop-color="rgb(25.283813%, 3.991699%, 49.732971%)" offset="0.195312"/><stop stop-opacity="1" stop-color="rgb(25.143433%, 4.563904%, 49.809265%)" offset="0.199219"/><stop stop-opacity="1" stop-color="rgb(25.003052%, 5.136108%, 49.885559%)" offset="0.203125"/><stop stop-opacity="1" stop-color="rgb(24.861145%, 5.708313%, 49.961853%)" offset="0.207031"/><stop stop-opacity="1" stop-color="rgb(24.720764%, 6.282043%, 50.038147%)" offset="0.210938"/><stop stop-opacity="1" stop-color="rgb(24.580383%, 6.854248%, 50.114441%)" offset="0.214844"/><stop stop-opacity="1" stop-color="rgb(24.440002%, 7.426453%, 50.190735%)" offset="0.21875"/><stop stop-opacity="1" stop-color="rgb(24.299622%, 7.998657%, 50.267029%)" offset="0.222656"/><stop stop-opacity="1" stop-color="rgb(24.159241%, 8.570862%, 50.343323%)" offset="0.226563"/><stop stop-opacity="1" stop-color="rgb(24.017334%, 9.143066%, 50.419617%)" offset="0.230469"/><stop stop-opacity="1" stop-color="rgb(23.876953%, 9.715271%, 50.495911%)" offset="0.234375"/><stop stop-opacity="1" stop-color="rgb(23.736572%, 10.287476%, 50.572205%)" offset="0.238281"/><stop stop-opacity="1" stop-color="rgb(23.596191%, 10.85968%, 50.648499%)" offset="0.242188"/><stop stop-opacity="1" stop-color="rgb(23.455811%, 11.431885%, 50.724792%)" offset="0.246094"/><stop stop-opacity="1" stop-color="rgb(23.31543%, 12.004089%, 50.801086%)" offset="0.25"/><stop stop-opacity="1" stop-color="rgb(23.173523%, 12.576294%, 50.87738%)" offset="0.253906"/><stop stop-opacity="1" stop-color="rgb(23.033142%, 13.148499%, 50.953674%)" offset="0.257813"/><stop stop-opacity="1" stop-color="rgb(22.892761%, 13.720703%, 51.029968%)" offset="0.261719"/><stop stop-opacity="1" stop-color="rgb(22.75238%, 14.292908%, 51.106262%)" offset="0.265625"/><stop stop-opacity="1" stop-color="rgb(22.612%, 14.865112%, 51.182556%)" offset="0.269531"/><stop stop-opacity="1" stop-color="rgb(22.471619%, 15.437317%, 51.25885%)" offset="0.273438"/><stop stop-opacity="1" stop-color="rgb(22.329712%, 16.009521%, 51.335144%)" offset="0.277344"/><stop stop-opacity="1" stop-color="rgb(22.189331%, 16.581726%, 51.411438%)" offset="0.28125"/><stop stop-opacity="1" stop-color="rgb(22.04895%, 17.153931%, 51.487732%)" offset="0.285156"/><stop stop-opacity="1" stop-color="rgb(21.908569%, 17.726135%, 51.564026%)" offset="0.289063"/><stop stop-opacity="1" stop-color="rgb(21.768188%, 18.29834%, 51.64032%)" offset="0.292969"/><stop stop-opacity="1" stop-color="rgb(21.627808%, 18.87207%, 51.716614%)" offset="0.296875"/><stop stop-opacity="1" stop-color="rgb(21.485901%, 19.444275%, 51.792908%)" offset="0.300781"/><stop stop-opacity="1" stop-color="rgb(21.34552%, 20.016479%, 51.869202%)" offset="0.304688"/><stop stop-opacity="1" stop-color="rgb(21.205139%, 20.588684%, 51.945496%)" offset="0.308594"/><stop stop-opacity="1" stop-color="rgb(21.064758%, 21.160889%, 52.02179%)" offset="0.3125"/><stop stop-opacity="1" stop-color="rgb(20.924377%, 21.733093%, 52.098083%)" offset="0.316406"/><stop stop-opacity="1" stop-color="rgb(20.783997%, 22.305298%, 52.174377%)" offset="0.320312"/><stop stop-opacity="1" stop-color="rgb(20.64209%, 22.877502%, 52.250671%)" offset="0.324219"/><stop stop-opacity="1" stop-color="rgb(20.501709%, 23.449707%, 52.326965%)" offset="0.328125"/><stop stop-opacity="1" stop-color="rgb(20.361328%, 24.021912%, 52.403259%)" offset="0.332031"/><stop stop-opacity="1" stop-color="rgb(20.220947%, 24.594116%, 52.479553%)" offset="0.335938"/><stop stop-opacity="1" stop-color="rgb(20.080566%, 25.166321%, 52.555847%)" offset="0.339844"/><stop stop-opacity="1" stop-color="rgb(19.940186%, 25.738525%, 52.632141%)" offset="0.34375"/><stop stop-opacity="1" stop-color="rgb(19.798279%, 26.31073%, 52.708435%)" offset="0.347656"/><stop stop-opacity="1" stop-color="rgb(19.657898%, 26.882935%, 52.784729%)" offset="0.351562"/><stop stop-opacity="1" stop-color="rgb(19.517517%, 27.455139%, 52.861023%)" offset="0.355469"/><stop stop-opacity="1" stop-color="rgb(19.377136%, 28.027344%, 52.937317%)" offset="0.359375"/><stop stop-opacity="1" stop-color="rgb(19.236755%, 28.599548%, 53.013611%)" offset="0.363281"/><stop stop-opacity="1" stop-color="rgb(19.096375%, 29.171753%, 53.089905%)" offset="0.367188"/><stop stop-opacity="1" stop-color="rgb(18.954468%, 29.743958%, 53.166199%)" offset="0.371094"/><stop stop-opacity="1" stop-color="rgb(18.814087%, 30.316162%, 53.242493%)" offset="0.375"/><stop stop-opacity="1" stop-color="rgb(18.673706%, 30.888367%, 53.318787%)" offset="0.378906"/><stop stop-opacity="1" stop-color="rgb(18.533325%, 31.462097%, 53.395081%)" offset="0.382813"/><stop stop-opacity="1" stop-color="rgb(18.392944%, 32.034302%, 53.471375%)" offset="0.386719"/><stop stop-opacity="1" stop-color="rgb(18.252563%, 32.606506%, 53.547668%)" offset="0.390625"/><stop stop-opacity="1" stop-color="rgb(18.110657%, 33.178711%, 53.623962%)" offset="0.394531"/><stop stop-opacity="1" stop-color="rgb(17.970276%, 33.750916%, 53.700256%)" offset="0.398438"/><stop stop-opacity="1" stop-color="rgb(17.829895%, 34.32312%, 53.77655%)" offset="0.402344"/><stop stop-opacity="1" stop-color="rgb(17.689514%, 34.895325%, 53.852844%)" offset="0.40625"/><stop stop-opacity="1" stop-color="rgb(17.549133%, 35.467529%, 53.929138%)" offset="0.410156"/><stop stop-opacity="1" stop-color="rgb(17.408752%, 36.039734%, 54.005432%)" offset="0.414063"/><stop stop-opacity="1" stop-color="rgb(17.266846%, 36.611938%, 54.081726%)" offset="0.417969"/><stop stop-opacity="1" stop-color="rgb(17.126465%, 37.184143%, 54.15802%)" offset="0.421875"/><stop stop-opacity="1" stop-color="rgb(16.986084%, 37.756348%, 54.234314%)" offset="0.425781"/><stop stop-opacity="1" stop-color="rgb(16.845703%, 38.328552%, 54.310608%)" offset="0.429688"/><stop stop-opacity="1" stop-color="rgb(16.705322%, 38.900757%, 54.386902%)" offset="0.433594"/><stop stop-opacity="1" stop-color="rgb(16.564941%, 39.472961%, 54.463196%)" offset="0.4375"/><stop stop-opacity="1" stop-color="rgb(16.423035%, 40.045166%, 54.53949%)" offset="0.441406"/><stop stop-opacity="1" stop-color="rgb(16.282654%, 40.617371%, 54.615784%)" offset="0.445313"/><stop stop-opacity="1" stop-color="rgb(16.142273%, 41.189575%, 54.692078%)" offset="0.449219"/><stop stop-opacity="1" stop-color="rgb(16.001892%, 41.76178%, 54.768372%)" offset="0.453125"/><stop stop-opacity="1" stop-color="rgb(15.861511%, 42.333984%, 54.844666%)" offset="0.457031"/><stop stop-opacity="1" stop-color="rgb(15.72113%, 42.906189%, 54.920959%)" offset="0.460938"/><stop stop-opacity="1" stop-color="rgb(15.579224%, 43.478394%, 54.997253%)" offset="0.464844"/><stop stop-opacity="1" stop-color="rgb(15.438843%, 44.052124%, 55.073547%)" offset="0.46875"/><stop stop-opacity="1" stop-color="rgb(15.298462%, 44.624329%, 55.149841%)" offset="0.472656"/><stop stop-opacity="1" stop-color="rgb(15.158081%, 45.196533%, 55.226135%)" offset="0.476563"/><stop stop-opacity="1" stop-color="rgb(15.0177%, 45.768738%, 55.302429%)" offset="0.480469"/><stop stop-opacity="1" stop-color="rgb(14.877319%, 46.340942%, 55.378723%)" offset="0.484375"/><stop stop-opacity="1" stop-color="rgb(14.735413%, 46.913147%, 55.455017%)" offset="0.488281"/><stop stop-opacity="1" stop-color="rgb(14.595032%, 47.485352%, 55.531311%)" offset="0.492188"/><stop stop-opacity="1" stop-color="rgb(14.454651%, 48.057556%, 55.607605%)" offset="0.496094"/><stop stop-opacity="1" stop-color="rgb(14.31427%, 48.629761%, 55.683899%)" offset="0.5"/><stop stop-opacity="1" stop-color="rgb(14.173889%, 49.201965%, 55.760193%)" offset="0.503906"/><stop stop-opacity="1" stop-color="rgb(14.033508%, 49.77417%, 55.836487%)" offset="0.507813"/><stop stop-opacity="1" stop-color="rgb(13.891602%, 50.346375%, 55.912781%)" offset="0.511719"/><stop stop-opacity="1" stop-color="rgb(13.751221%, 50.918579%, 55.989075%)" offset="0.515625"/><stop stop-opacity="1" stop-color="rgb(13.61084%, 51.490784%, 56.065369%)" offset="0.519531"/><stop stop-opacity="1" stop-color="rgb(13.470459%, 52.062988%, 56.141663%)" offset="0.523438"/><stop stop-opacity="1" stop-color="rgb(13.330078%, 52.635193%, 56.217957%)" offset="0.527344"/><stop stop-opacity="1" stop-color="rgb(13.189697%, 53.207397%, 56.29425%)" offset="0.53125"/><stop stop-opacity="1" stop-color="rgb(13.047791%, 53.779602%, 56.370544%)" offset="0.535156"/><stop stop-opacity="1" stop-color="rgb(12.90741%, 54.351807%, 56.446838%)" offset="0.539063"/><stop stop-opacity="1" stop-color="rgb(12.767029%, 54.924011%, 56.523132%)" offset="0.542969"/><stop stop-opacity="1" stop-color="rgb(12.626648%, 55.496216%, 56.599426%)" offset="0.546875"/><stop stop-opacity="1" stop-color="rgb(12.486267%, 56.06842%, 56.67572%)" offset="0.550781"/><stop stop-opacity="1" stop-color="rgb(12.345886%, 56.640625%, 56.752014%)" offset="0.554688"/><stop stop-opacity="1" stop-color="rgb(12.203979%, 57.21283%, 56.828308%)" offset="0.558594"/><stop stop-opacity="1" stop-color="rgb(12.063599%, 57.78656%, 56.904602%)" offset="0.5625"/><stop stop-opacity="1" stop-color="rgb(11.923218%, 58.358765%, 56.980896%)" offset="0.566406"/><stop stop-opacity="1" stop-color="rgb(11.782837%, 58.930969%, 57.05719%)" offset="0.570313"/><stop stop-opacity="1" stop-color="rgb(11.642456%, 59.503174%, 57.133484%)" offset="0.574219"/><stop stop-opacity="1" stop-color="rgb(11.502075%, 60.075378%, 57.209778%)" offset="0.578125"/><stop stop-opacity="1" stop-color="rgb(11.360168%, 60.647583%, 57.286072%)" offset="0.582031"/><stop stop-opacity="1" stop-color="rgb(11.219788%, 61.219788%, 57.362366%)" offset="0.585938"/><stop stop-opacity="1" stop-color="rgb(11.079407%, 61.791992%, 57.43866%)" offset="0.589844"/><stop stop-opacity="1" stop-color="rgb(10.939026%, 62.364197%, 57.514954%)" offset="0.59375"/><stop stop-opacity="1" stop-color="rgb(10.798645%, 62.936401%, 57.591248%)" offset="0.597656"/><stop stop-opacity="1" stop-color="rgb(10.658264%, 63.508606%, 57.667542%)" offset="0.601563"/><stop stop-opacity="1" stop-color="rgb(10.516357%, 64.080811%, 57.743835%)" offset="0.605469"/><stop stop-opacity="1" stop-color="rgb(10.375977%, 64.653015%, 57.820129%)" offset="0.609375"/><stop stop-opacity="1" stop-color="rgb(10.235596%, 65.22522%, 57.896423%)" offset="0.613281"/><stop stop-opacity="1" stop-color="rgb(10.095215%, 65.797424%, 57.974243%)" offset="0.617188"/><stop stop-opacity="1" stop-color="rgb(9.954834%, 66.369629%, 58.050537%)" offset="0.621094"/><stop stop-opacity="1" stop-color="rgb(9.814453%, 66.941833%, 58.126831%)" offset="0.625"/><stop stop-opacity="1" stop-color="rgb(9.672546%, 67.514038%, 58.203125%)" offset="0.628906"/><stop stop-opacity="1" stop-color="rgb(9.532166%, 68.086243%, 58.279419%)" offset="0.632812"/><stop stop-opacity="1" stop-color="rgb(9.391785%, 68.658447%, 58.355713%)" offset="0.636719"/><stop stop-opacity="1" stop-color="rgb(9.251404%, 69.230652%, 58.432007%)" offset="0.640625"/><stop stop-opacity="1" stop-color="rgb(9.111023%, 69.802856%, 58.508301%)" offset="0.644531"/><stop stop-opacity="1" stop-color="rgb(8.970642%, 70.376587%, 58.584595%)" offset="0.648438"/><stop stop-opacity="1" stop-color="rgb(8.828735%, 70.948792%, 58.660889%)" offset="0.652344"/><stop stop-opacity="1" stop-color="rgb(8.688354%, 71.520996%, 58.737183%)" offset="0.65625"/><stop stop-opacity="1" stop-color="rgb(8.547974%, 72.093201%, 58.813477%)" offset="0.660156"/><stop stop-opacity="1" stop-color="rgb(8.407593%, 72.665405%, 58.889771%)" offset="0.664062"/><stop stop-opacity="1" stop-color="rgb(8.267212%, 73.23761%, 58.966064%)" offset="0.667969"/><stop stop-opacity="1" stop-color="rgb(8.126831%, 73.809814%, 59.042358%)" offset="0.671875"/><stop stop-opacity="1" stop-color="rgb(7.984924%, 74.382019%, 59.118652%)" offset="0.675781"/><stop stop-opacity="1" stop-color="rgb(7.844543%, 74.954224%, 59.194946%)" offset="0.679688"/><stop stop-opacity="1" stop-color="rgb(7.704163%, 75.526428%, 59.27124%)" offset="0.683594"/><stop stop-opacity="1" stop-color="rgb(7.563782%, 76.098633%, 59.347534%)" offset="0.6875"/><stop stop-opacity="1" stop-color="rgb(7.423401%, 76.670837%, 59.423828%)" offset="0.691406"/><stop stop-opacity="1" stop-color="rgb(7.28302%, 77.243042%, 59.500122%)" offset="0.695312"/><stop stop-opacity="1" stop-color="rgb(7.141113%, 77.815247%, 59.576416%)" offset="0.699219"/><stop stop-opacity="1" stop-color="rgb(7.000732%, 78.387451%, 59.65271%)" offset="0.703125"/><stop stop-opacity="1" stop-color="rgb(6.860352%, 78.959656%, 59.729004%)" offset="0.707031"/><stop stop-opacity="1" stop-color="rgb(6.719971%, 79.53186%, 59.805298%)" offset="0.710938"/><stop stop-opacity="1" stop-color="rgb(6.57959%, 80.104065%, 59.881592%)" offset="0.714844"/><stop stop-opacity="1" stop-color="rgb(6.439209%, 80.67627%, 59.957886%)" offset="0.71875"/><stop stop-opacity="1" stop-color="rgb(6.297302%, 81.248474%, 60.03418%)" offset="0.722656"/><stop stop-opacity="1" stop-color="rgb(6.156921%, 81.820679%, 60.110474%)" offset="0.726562"/><stop stop-opacity="1" stop-color="rgb(6.016541%, 82.392883%, 60.186768%)" offset="0.730469"/><stop stop-opacity="1" stop-color="rgb(5.87616%, 82.966614%, 60.263062%)" offset="0.734375"/><stop stop-opacity="1" stop-color="rgb(5.735779%, 83.538818%, 60.339355%)" offset="0.738281"/><stop stop-opacity="1" stop-color="rgb(5.595398%, 84.111023%, 60.415649%)" offset="0.742188"/><stop stop-opacity="1" stop-color="rgb(5.453491%, 84.683228%, 60.491943%)" offset="0.746094"/><stop stop-opacity="1" stop-color="rgb(5.31311%, 85.255432%, 60.568237%)" offset="0.75"/><stop stop-opacity="1" stop-color="rgb(5.172729%, 85.827637%, 60.644531%)" offset="0.753906"/><stop stop-opacity="1" stop-color="rgb(5.032349%, 86.399841%, 60.720825%)" offset="0.757812"/><stop stop-opacity="1" stop-color="rgb(4.891968%, 86.972046%, 60.797119%)" offset="0.761719"/><stop stop-opacity="1" stop-color="rgb(4.751587%, 87.54425%, 60.873413%)" offset="0.765625"/><stop stop-opacity="1" stop-color="rgb(4.60968%, 88.116455%, 60.949707%)" offset="0.769531"/><stop stop-opacity="1" stop-color="rgb(4.469299%, 88.68866%, 61.026001%)" offset="0.773438"/><stop stop-opacity="1" stop-color="rgb(4.328918%, 89.260864%, 61.102295%)" offset="0.777344"/><stop stop-opacity="1" stop-color="rgb(4.188538%, 89.833069%, 61.178589%)" offset="0.78125"/><stop stop-opacity="1" stop-color="rgb(4.048157%, 90.405273%, 61.254883%)" offset="0.785156"/><stop stop-opacity="1" stop-color="rgb(3.907776%, 90.977478%, 61.331177%)" offset="0.789062"/><stop stop-opacity="1" stop-color="rgb(3.765869%, 91.549683%, 61.407471%)" offset="0.792969"/><stop stop-opacity="1" stop-color="rgb(3.625488%, 92.121887%, 61.483765%)" offset="0.796875"/><stop stop-opacity="1" stop-color="rgb(3.485107%, 92.694092%, 61.560059%)" offset="0.800781"/><stop stop-opacity="1" stop-color="rgb(3.344727%, 93.266296%, 61.636353%)" offset="0.804688"/><stop stop-opacity="1" stop-color="rgb(3.204346%, 93.838501%, 61.712646%)" offset="0.808594"/><stop stop-opacity="1" stop-color="rgb(3.063965%, 94.410706%, 61.78894%)" offset="0.8125"/><stop stop-opacity="1" stop-color="rgb(2.922058%, 94.98291%, 61.865234%)" offset="0.816406"/><stop stop-opacity="1" stop-color="rgb(2.781677%, 95.556641%, 61.941528%)" offset="0.820312"/><stop stop-opacity="1" stop-color="rgb(2.764893%, 95.622253%, 61.950684%)" offset="0.828125"/><stop stop-opacity="1" stop-color="rgb(2.749634%, 95.689392%, 61.959839%)" offset="0.84375"/><stop stop-opacity="1" stop-color="rgb(2.749634%, 95.689392%, 61.959839%)" offset="0.875"/><stop stop-opacity="1" stop-color="rgb(2.749634%, 95.689392%, 61.959839%)" offset="1"/></linearGradient><clipPath id="d81eddb9ca"><rect x="0" width="170" y="0" height="82"/></clipPath><clipPath id="21bb6babbe"><path d="M 0.542969 0.90625 L 169.292969 0.90625 L 169.292969 81.90625 L 0.542969 81.90625 Z M 0.542969 0.90625 " clip-rule="nonzero"/></clipPath><clipPath id="0bf23123e9"><rect x="0" width="170" y="0" height="82"/></clipPath><clipPath id="01fe7428d0"><rect x="0" width="170" y="0" height="82"/></clipPath><mask id="c97d30b0d9"><g filter="url(#8bf086dc35)"><g><g clip-path="url(#01fe7428d0)"><g clip-path="url(#21bb6babbe)"><g><g clip-path="url(#0bf23123e9)"><g fill="#000000" fill-opacity="1"><g transform="translate(31.129659, 46.654555)"><g><path d="M 5.703125 -6.515625 L 3.765625 -6.515625 L 3.765625 0 L 1.53125 0 L 1.53125 -6.515625 L 0.296875 -6.515625 L 0.296875 -7.59375 L 1.53125 -8.1875 L 1.53125 -8.796875 C 1.53125 -9.722656 1.757812 -10.398438 2.21875 -10.828125 C 2.675781 -11.265625 3.410156 -11.484375 4.421875 -11.484375 C 5.191406 -11.484375 5.878906 -11.367188 6.484375 -11.140625 L 5.90625 -9.5 C 5.457031 -9.632812 5.046875 -9.703125 4.671875 -9.703125 C 4.347656 -9.703125 4.113281 -9.609375 3.96875 -9.421875 C 3.832031 -9.234375 3.765625 -8.992188 3.765625 -8.703125 L 3.765625 -8.1875 L 5.703125 -8.1875 Z M 5.703125 -6.515625 "/></g></g><g transform="translate(36.937764, 46.654555)"><g><path d="M 2.953125 -4.109375 C 2.953125 -3.296875 3.082031 -2.679688 3.34375 -2.265625 C 3.613281 -1.847656 4.050781 -1.640625 4.65625 -1.640625 C 5.25 -1.640625 5.675781 -1.847656 5.9375 -2.265625 C 6.195312 -2.679688 6.328125 -3.296875 6.328125 -4.109375 C 6.328125 -4.921875 6.191406 -5.53125 5.921875 -5.9375 C 5.660156 -6.34375 5.234375 -6.546875 4.640625 -6.546875 C 4.046875 -6.546875 3.613281 -6.34375 3.34375 -5.9375 C 3.082031 -5.53125 2.953125 -4.921875 2.953125 -4.109375 Z M 8.609375 -4.109375 C 8.609375 -2.773438 8.253906 -1.734375 7.546875 -0.984375 C 6.847656 -0.234375 5.875 0.140625 4.625 0.140625 C 3.832031 0.140625 3.132812 -0.03125 2.53125 -0.375 C 1.9375 -0.71875 1.476562 -1.207031 1.15625 -1.84375 C 0.832031 -2.488281 0.671875 -3.242188 0.671875 -4.109375 C 0.671875 -5.441406 1.019531 -6.476562 1.71875 -7.21875 C 2.414062 -7.96875 3.398438 -8.34375 4.671875 -8.34375 C 5.453125 -8.34375 6.140625 -8.171875 6.734375 -7.828125 C 7.335938 -7.484375 7.800781 -6.988281 8.125 -6.34375 C 8.445312 -5.707031 8.609375 -4.960938 8.609375 -4.109375 Z M 8.609375 -4.109375 "/></g></g><g transform="translate(46.224873, 46.654555)"><g><path d="M 5.75 -8.34375 C 6.050781 -8.34375 6.300781 -8.320312 6.5 -8.28125 L 6.328125 -6.1875 C 6.148438 -6.226562 5.929688 -6.25 5.671875 -6.25 C 4.953125 -6.25 4.394531 -6.066406 4 -5.703125 C 3.601562 -5.335938 3.40625 -4.828125 3.40625 -4.171875 L 3.40625 0 L 1.171875 0 L 1.171875 -8.1875 L 2.859375 -8.1875 L 3.1875 -6.8125 L 3.296875 -6.8125 C 3.554688 -7.269531 3.898438 -7.640625 4.328125 -7.921875 C 4.765625 -8.203125 5.238281 -8.34375 5.75 -8.34375 Z M 5.75 -8.34375 "/></g></g><g transform="translate(53.036396, 46.654555)"><g/></g><g transform="translate(56.93288, 46.654555)"><g><path d="M 4.5625 -6.75 C 4.09375 -6.75 3.722656 -6.597656 3.453125 -6.296875 C 3.179688 -6.003906 3.023438 -5.582031 2.984375 -5.03125 L 6.125 -5.03125 C 6.113281 -5.582031 5.96875 -6.003906 5.6875 -6.296875 C 5.414062 -6.597656 5.039062 -6.75 4.5625 -6.75 Z M 4.875 0.140625 C 3.5625 0.140625 2.53125 -0.21875 1.78125 -0.9375 C 1.039062 -1.664062 0.671875 -2.695312 0.671875 -4.03125 C 0.671875 -5.40625 1.015625 -6.46875 1.703125 -7.21875 C 2.390625 -7.96875 3.335938 -8.34375 4.546875 -8.34375 C 5.703125 -8.34375 6.601562 -8.007812 7.25 -7.34375 C 7.894531 -6.6875 8.21875 -5.78125 8.21875 -4.625 L 8.21875 -3.53125 L 2.9375 -3.53125 C 2.957031 -2.894531 3.144531 -2.398438 3.5 -2.046875 C 3.851562 -1.691406 4.347656 -1.515625 4.984375 -1.515625 C 5.472656 -1.515625 5.9375 -1.566406 6.375 -1.671875 C 6.8125 -1.773438 7.269531 -1.9375 7.75 -2.15625 L 7.75 -0.4375 C 7.363281 -0.238281 6.945312 -0.09375 6.5 0 C 6.0625 0.09375 5.519531 0.140625 4.875 0.140625 Z M 4.875 0.140625 "/></g></g><g transform="translate(65.795184, 46.654555)"><g><path d="M 8.734375 0 L 6.5 0 L 6.5 -4.78125 C 6.5 -5.375 6.390625 -5.816406 6.171875 -6.109375 C 5.960938 -6.410156 5.628906 -6.5625 5.171875 -6.5625 C 4.546875 -6.5625 4.09375 -6.347656 3.8125 -5.921875 C 3.539062 -5.503906 3.40625 -4.816406 3.40625 -3.859375 L 3.40625 0 L 1.171875 0 L 1.171875 -8.1875 L 2.875 -8.1875 L 3.171875 -7.140625 L 3.296875 -7.140625 C 3.546875 -7.535156 3.890625 -7.832031 4.328125 -8.03125 C 4.765625 -8.238281 5.265625 -8.34375 5.828125 -8.34375 C 6.773438 -8.34375 7.492188 -8.082031 7.984375 -7.5625 C 8.484375 -7.050781 8.734375 -6.3125 8.734375 -5.34375 Z M 8.734375 0 "/></g></g><g transform="translate(75.653582, 46.654555)"><g><path d="M 4.625 -1.640625 C 5.007812 -1.640625 5.476562 -1.722656 6.03125 -1.890625 L 6.03125 -0.234375 C 5.46875 0.015625 4.785156 0.140625 3.984375 0.140625 C 3.085938 0.140625 2.429688 -0.0820312 2.015625 -0.53125 C 1.609375 -0.976562 1.40625 -1.65625 1.40625 -2.5625 L 1.40625 -6.515625 L 0.34375 -6.515625 L 0.34375 -7.453125 L 1.578125 -8.203125 L 2.21875 -9.9375 L 3.640625 -9.9375 L 3.640625 -8.1875 L 5.9375 -8.1875 L 5.9375 -6.515625 L 3.640625 -6.515625 L 3.640625 -2.5625 C 3.640625 -2.25 3.726562 -2.015625 3.90625 -1.859375 C 4.09375 -1.710938 4.332031 -1.640625 4.625 -1.640625 Z M 4.625 -1.640625 "/></g></g><g transform="translate(82.164812, 46.654555)"><g><path d="M 4.5625 -6.75 C 4.09375 -6.75 3.722656 -6.597656 3.453125 -6.296875 C 3.179688 -6.003906 3.023438 -5.582031 2.984375 -5.03125 L 6.125 -5.03125 C 6.113281 -5.582031 5.96875 -6.003906 5.6875 -6.296875 C 5.414062 -6.597656 5.039062 -6.75 4.5625 -6.75 Z M 4.875 0.140625 C 3.5625 0.140625 2.53125 -0.21875 1.78125 -0.9375 C 1.039062 -1.664062 0.671875 -2.695312 0.671875 -4.03125 C 0.671875 -5.40625 1.015625 -6.46875 1.703125 -7.21875 C 2.390625 -7.96875 3.335938 -8.34375 4.546875 -8.34375 C 5.703125 -8.34375 6.601562 -8.007812 7.25 -7.34375 C 7.894531 -6.6875 8.21875 -5.78125 8.21875 -4.625 L 8.21875 -3.53125 L 2.9375 -3.53125 C 2.957031 -2.894531 3.144531 -2.398438 3.5 -2.046875 C 3.851562 -1.691406 4.347656 -1.515625 4.984375 -1.515625 C 5.472656 -1.515625 5.9375 -1.566406 6.375 -1.671875 C 6.8125 -1.773438 7.269531 -1.9375 7.75 -2.15625 L 7.75 -0.4375 C 7.363281 -0.238281 6.945312 -0.09375 6.5 0 C 6.0625 0.09375 5.519531 0.140625 4.875 0.140625 Z M 4.875 0.140625 "/></g></g><g transform="translate(91.027116, 46.654555)"><g><path d="M 5.75 -8.34375 C 6.050781 -8.34375 6.300781 -8.320312 6.5 -8.28125 L 6.328125 -6.1875 C 6.148438 -6.226562 5.929688 -6.25 5.671875 -6.25 C 4.953125 -6.25 4.394531 -6.066406 4 -5.703125 C 3.601562 -5.335938 3.40625 -4.828125 3.40625 -4.171875 L 3.40625 0 L 1.171875 0 L 1.171875 -8.1875 L 2.859375 -8.1875 L 3.1875 -6.8125 L 3.296875 -6.8125 C 3.554688 -7.269531 3.898438 -7.640625 4.328125 -7.921875 C 4.765625 -8.203125 5.238281 -8.34375 5.75 -8.34375 Z M 5.75 -8.34375 "/></g></g><g transform="translate(97.838639, 46.654555)"><g><path d="M 5.671875 0.140625 C 4.703125 0.140625 3.945312 -0.207031 3.40625 -0.90625 L 3.28125 -0.90625 C 3.363281 -0.21875 3.40625 0.175781 3.40625 0.28125 L 3.40625 3.609375 L 1.171875 3.609375 L 1.171875 -8.1875 L 2.984375 -8.1875 L 3.296875 -7.125 L 3.40625 -7.125 C 3.925781 -7.9375 4.703125 -8.34375 5.734375 -8.34375 C 6.691406 -8.34375 7.441406 -7.96875 7.984375 -7.21875 C 8.535156 -6.46875 8.8125 -5.429688 8.8125 -4.109375 C 8.8125 -3.234375 8.679688 -2.472656 8.421875 -1.828125 C 8.171875 -1.179688 7.804688 -0.691406 7.328125 -0.359375 C 6.859375 -0.0234375 6.304688 0.140625 5.671875 0.140625 Z M 5.015625 -6.5625 C 4.460938 -6.5625 4.054688 -6.390625 3.796875 -6.046875 C 3.546875 -5.703125 3.414062 -5.140625 3.40625 -4.359375 L 3.40625 -4.125 C 3.40625 -3.25 3.535156 -2.617188 3.796875 -2.234375 C 4.054688 -1.847656 4.472656 -1.65625 5.046875 -1.65625 C 6.046875 -1.65625 6.546875 -2.484375 6.546875 -4.140625 C 6.546875 -4.941406 6.421875 -5.546875 6.171875 -5.953125 C 5.921875 -6.359375 5.535156 -6.5625 5.015625 -6.5625 Z M 5.015625 -6.5625 "/></g></g><g transform="translate(107.330825, 46.654555)"><g><path d="M 5.75 -8.34375 C 6.050781 -8.34375 6.300781 -8.320312 6.5 -8.28125 L 6.328125 -6.1875 C 6.148438 -6.226562 5.929688 -6.25 5.671875 -6.25 C 4.953125 -6.25 4.394531 -6.066406 4 -5.703125 C 3.601562 -5.335938 3.40625 -4.828125 3.40625 -4.171875 L 3.40625 0 L 1.171875 0 L 1.171875 -8.1875 L 2.859375 -8.1875 L 3.1875 -6.8125 L 3.296875 -6.8125 C 3.554688 -7.269531 3.898438 -7.640625 4.328125 -7.921875 C 4.765625 -8.203125 5.238281 -8.34375 5.75 -8.34375 Z M 5.75 -8.34375 "/></g></g><g transform="translate(114.142348, 46.654555)"><g><path d="M 1.078125 -10.3125 C 1.078125 -11.03125 1.484375 -11.390625 2.296875 -11.390625 C 3.109375 -11.390625 3.515625 -11.03125 3.515625 -10.3125 C 3.515625 -9.957031 3.410156 -9.679688 3.203125 -9.484375 C 3.003906 -9.296875 2.703125 -9.203125 2.296875 -9.203125 C 1.484375 -9.203125 1.078125 -9.570312 1.078125 -10.3125 Z M 3.40625 0 L 1.171875 0 L 1.171875 -8.1875 L 3.40625 -8.1875 Z M 3.40625 0 "/></g></g><g transform="translate(118.719985, 46.654555)"><g><path d="M 6.890625 -2.4375 C 6.890625 -1.59375 6.597656 -0.953125 6.015625 -0.515625 C 5.429688 -0.078125 4.554688 0.140625 3.390625 0.140625 C 2.796875 0.140625 2.285156 0.0976562 1.859375 0.015625 C 1.441406 -0.0546875 1.050781 -0.171875 0.6875 -0.328125 L 0.6875 -2.171875 C 1.101562 -1.972656 1.570312 -1.804688 2.09375 -1.671875 C 2.613281 -1.546875 3.070312 -1.484375 3.46875 -1.484375 C 4.28125 -1.484375 4.6875 -1.71875 4.6875 -2.1875 C 4.6875 -2.363281 4.628906 -2.503906 4.515625 -2.609375 C 4.410156 -2.722656 4.222656 -2.847656 3.953125 -2.984375 C 3.691406 -3.128906 3.34375 -3.296875 2.90625 -3.484375 C 2.28125 -3.742188 1.816406 -3.984375 1.515625 -4.203125 C 1.222656 -4.429688 1.007812 -4.691406 0.875 -4.984375 C 0.738281 -5.273438 0.671875 -5.632812 0.671875 -6.0625 C 0.671875 -6.789062 0.953125 -7.351562 1.515625 -7.75 C 2.078125 -8.144531 2.878906 -8.34375 3.921875 -8.34375 C 4.898438 -8.34375 5.859375 -8.128906 6.796875 -7.703125 L 6.125 -6.09375 C 5.71875 -6.257812 5.332031 -6.398438 4.96875 -6.515625 C 4.613281 -6.628906 4.25 -6.6875 3.875 -6.6875 C 3.21875 -6.6875 2.890625 -6.507812 2.890625 -6.15625 C 2.890625 -5.957031 2.992188 -5.78125 3.203125 -5.625 C 3.421875 -5.476562 3.890625 -5.265625 4.609375 -4.984375 C 5.242188 -4.722656 5.707031 -4.476562 6 -4.25 C 6.300781 -4.03125 6.523438 -3.773438 6.671875 -3.484375 C 6.816406 -3.191406 6.890625 -2.84375 6.890625 -2.4375 Z M 6.890625 -2.4375 "/></g></g><g transform="translate(126.176039, 46.654555)"><g><path d="M 4.5625 -6.75 C 4.09375 -6.75 3.722656 -6.597656 3.453125 -6.296875 C 3.179688 -6.003906 3.023438 -5.582031 2.984375 -5.03125 L 6.125 -5.03125 C 6.113281 -5.582031 5.96875 -6.003906 5.6875 -6.296875 C 5.414062 -6.597656 5.039062 -6.75 4.5625 -6.75 Z M 4.875 0.140625 C 3.5625 0.140625 2.53125 -0.21875 1.78125 -0.9375 C 1.039062 -1.664062 0.671875 -2.695312 0.671875 -4.03125 C 0.671875 -5.40625 1.015625 -6.46875 1.703125 -7.21875 C 2.390625 -7.96875 3.335938 -8.34375 4.546875 -8.34375 C 5.703125 -8.34375 6.601562 -8.007812 7.25 -7.34375 C 7.894531 -6.6875 8.21875 -5.78125 8.21875 -4.625 L 8.21875 -3.53125 L 2.9375 -3.53125 C 2.957031 -2.894531 3.144531 -2.398438 3.5 -2.046875 C 3.851562 -1.691406 4.347656 -1.515625 4.984375 -1.515625 C 5.472656 -1.515625 5.9375 -1.566406 6.375 -1.671875 C 6.8125 -1.773438 7.269531 -1.9375 7.75 -2.15625 L 7.75 -0.4375 C 7.363281 -0.238281 6.945312 -0.09375 6.5 0 C 6.0625 0.09375 5.519531 0.140625 4.875 0.140625 Z M 4.875 0.140625 "/></g></g></g><g fill="#000000" fill-opacity="1"><g transform="translate(135.039808, 46.654555)"><g/></g></g></g></g></g></g></g></g></mask><clipPath id="f8bab020a6"><path d="M 1.296875 0.90625 L 169.292969 0.90625 L 169.292969 81.15625 L 1.296875 81.15625 Z M 1.296875 0.90625 " clip-rule="nonzero"/></clipPath><clipPath id="a4ea05c081"><rect x="0" width="170" y="0" height="82"/></clipPath><clipPath id="1c0dade7d8"><rect x="0" width="170" y="0" height="82"/></clipPath></defs><g clip-path="url(#7f9f0e3ce6)"><path fill="#000000" d="M 53.078125 189.222656 L 52.285156 187.710938 C 50.855469 185.277344 48.824219 183.589844 46.429688 182.160156 C 44.863281 181.226562 43.058594 180.554688 41.550781 179.621094 C 41.167969 179.382812 40.917969 179.210938 40.800781 178.730469 C 40.953125 171.277344 40.480469 163.640625 40.765625 156.203125 C 40.976562 150.660156 42.890625 146.347656 47.269531 142.925781 C 47.855469 140.328125 48.832031 137.726562 50.367188 135.546875 C 50.75 134.996094 51.78125 133.410156 52.53125 133.890625 C 53.582031 134.5625 54.351562 138.109375 54.71875 139.328125 C 54.835938 139.359375 54.847656 139.296875 54.914062 139.25 C 56.027344 138.476562 57.160156 136.738281 58.304688 136.003906 C 58.742188 135.726562 59.261719 135.503906 59.488281 136.140625 C 59.914062 137.332031 59.410156 139.144531 59.558594 140.378906 C 59.675781 141.378906 60.230469 141.257812 60.925781 141.585938 C 62.6875 142.421875 63.464844 143.632812 64.976562 144.640625 C 66.78125 145.84375 68.953125 146.378906 71.0625 146.75 C 72.246094 146.953125 73.941406 146.984375 75.011719 147.324219 C 76.246094 147.714844 74.859375 149.292969 74.390625 149.824219 C 73.1875 151.203125 71.816406 152.058594 69.953125 152.175781 C 66.183594 152.414062 62.085938 151.824219 58.347656 152.339844 C 55.632812 152.710938 53.417969 154.4375 53.167969 157.3125 C 53.132812 157.699219 53.011719 158.410156 53.511719 158.433594 L 70.652344 158.433594 C 71.269531 158.4375 71.5 158.847656 71.550781 159.414062 C 71.847656 162.808594 70.542969 167.808594 66.519531 168.152344 L 53.660156 168.152344 C 53.46875 168.09375 53.078125 168.328125 53.078125 168.503906 Z M 58.242188 144.910156 C 57.707031 145.476562 58.855469 146.191406 59.292969 146.359375 C 60.121094 146.683594 63.101562 147.007812 61.726562 145.402344 C 61.21875 144.808594 60.183594 144.539062 59.425781 144.574219 C 59.1875 144.585938 58.390625 144.753906 58.242188 144.910156 Z M 58.242188 144.910156 " fill-opacity="1" fill-rule="nonzero"/></g><g clip-path="url(#5bb91c6ccc)"><path fill="#000000" d="M 36.699219 168.089844 C 37.765625 167.996094 36.933594 169.632812 36.796875 170.15625 C 36.300781 172.125 36.125 174.058594 36.597656 176.0625 C 37.722656 180.839844 42.433594 181.78125 46.027344 184.050781 C 49.5 186.242188 51.914062 189.566406 52.144531 193.800781 C 52.199219 194.796875 52.347656 195.691406 51.160156 195.871094 C 49.300781 196.148438 46.023438 196.042969 44.078125 195.957031 C 39.34375 195.746094 34.710938 194.296875 31.570312 190.589844 C 26.527344 184.632812 27.394531 174.917969 33.402344 169.957031 C 34.109375 169.371094 35.8125 168.164062 36.695312 168.089844 Z M 36.699219 168.089844 " fill-opacity="1" fill-rule="nonzero"/></g><g transform="matrix(1, 0, 0, 1, 60, 164)"><g clip-path="url(#e03f362abb)"><g fill="#000000" fill-opacity="1"><g transform="translate(0.820159, 52.451759)"><g><path d="M 3.53125 0 L 3.53125 -40.578125 L 30.390625 -40.578125 L 30.390625 -33.5 L 12.109375 -33.5 L 12.109375 -23.84375 L 28.609375 -23.84375 L 28.609375 -16.765625 L 12.109375 -16.765625 L 12.109375 0 Z M 3.53125 0 "/></g></g></g><g fill="#000000" fill-opacity="1"><g transform="translate(33.073084, 52.451759)"><g><path d="M 12.046875 0.578125 C 9.140625 0.578125 6.726562 -0.179688 4.8125 -1.703125 C 2.894531 -3.222656 1.9375 -5.488281 1.9375 -8.5 C 1.9375 -10.769531 2.472656 -12.550781 3.546875 -13.84375 C 4.617188 -15.144531 6.019531 -16.09375 7.75 -16.6875 C 9.488281 -17.289062 11.363281 -17.6875 13.375 -17.875 C 16.019531 -18.132812 17.910156 -18.410156 19.046875 -18.703125 C 20.179688 -18.992188 20.75 -19.628906 20.75 -20.609375 L 20.75 -20.71875 C 20.75 -21.976562 20.351562 -22.953125 19.5625 -23.640625 C 18.78125 -24.328125 17.671875 -24.671875 16.234375 -24.671875 C 14.710938 -24.671875 13.5 -24.335938 12.59375 -23.671875 C 11.695312 -23.015625 11.101562 -22.175781 10.8125 -21.15625 L 3.015625 -21.796875 C 3.597656 -24.566406 5.039062 -26.765625 7.34375 -28.390625 C 9.644531 -30.015625 12.617188 -30.828125 16.265625 -30.828125 C 18.523438 -30.828125 20.640625 -30.46875 22.609375 -29.75 C 24.578125 -29.039062 26.164062 -27.929688 27.375 -26.421875 C 28.582031 -24.910156 29.1875 -22.945312 29.1875 -20.53125 L 29.1875 0 L 21.1875 0 L 21.1875 -4.21875 L 20.9375 -4.21875 C 20.195312 -2.800781 19.09375 -1.644531 17.625 -0.75 C 16.15625 0.132812 14.296875 0.578125 12.046875 0.578125 Z M 14.46875 -5.25 C 16.3125 -5.25 17.828125 -5.785156 19.015625 -6.859375 C 20.210938 -7.941406 20.8125 -9.28125 20.8125 -10.875 L 20.8125 -14.109375 C 20.476562 -13.878906 19.960938 -13.675781 19.265625 -13.5 C 18.578125 -13.332031 17.835938 -13.1875 17.046875 -13.0625 C 16.265625 -12.9375 15.5625 -12.828125 14.9375 -12.734375 C 13.457031 -12.523438 12.265625 -12.109375 11.359375 -11.484375 C 10.453125 -10.867188 10 -9.96875 10 -8.78125 C 10 -7.613281 10.414062 -6.734375 11.25 -6.140625 C 12.09375 -5.546875 13.164062 -5.25 14.46875 -5.25 Z M 14.46875 -5.25 "/></g></g></g><g fill="#000000" fill-opacity="1"><g transform="translate(65.444935, 52.451759)"><g><path d="M 17.125 0.59375 C 14 0.59375 11.316406 -0.0664062 9.078125 -1.390625 C 6.835938 -2.722656 5.117188 -4.570312 3.921875 -6.9375 C 2.734375 -9.300781 2.140625 -12.019531 2.140625 -15.09375 C 2.140625 -18.21875 2.742188 -20.957031 3.953125 -23.3125 C 5.160156 -25.664062 6.878906 -27.503906 9.109375 -28.828125 C 11.347656 -30.160156 14.003906 -30.828125 17.078125 -30.828125 C 19.734375 -30.828125 22.0625 -30.34375 24.0625 -29.375 C 26.0625 -28.414062 27.640625 -27.0625 28.796875 -25.3125 C 29.953125 -23.570312 30.59375 -21.53125 30.71875 -19.1875 L 22.75 -19.1875 C 22.519531 -20.695312 21.925781 -21.914062 20.96875 -22.84375 C 20.007812 -23.78125 18.757812 -24.25 17.21875 -24.25 C 15.257812 -24.25 13.6875 -23.460938 12.5 -21.890625 C 11.3125 -20.316406 10.71875 -18.09375 10.71875 -15.21875 C 10.71875 -12.3125 11.304688 -10.0625 12.484375 -8.46875 C 13.671875 -6.875 15.25 -6.078125 17.21875 -6.078125 C 18.664062 -6.078125 19.882812 -6.515625 20.875 -7.390625 C 21.875 -8.273438 22.5 -9.53125 22.75 -11.15625 L 30.71875 -11.15625 C 30.582031 -8.832031 29.945312 -6.785156 28.8125 -5.015625 C 27.6875 -3.242188 26.132812 -1.863281 24.15625 -0.875 C 22.175781 0.101562 19.832031 0.59375 17.125 0.59375 Z M 17.125 0.59375 "/></g></g></g><g fill="#000000" fill-opacity="1"><g transform="translate(98.213016, 52.451759)"><g><path d="M 3.375 0 L 3.375 -30.4375 L 11.8125 -30.4375 L 11.8125 0 Z M 7.609375 -34.359375 C 6.367188 -34.359375 5.296875 -34.773438 4.390625 -35.609375 C 3.492188 -36.453125 3.046875 -37.460938 3.046875 -38.640625 C 3.046875 -39.816406 3.492188 -40.816406 4.390625 -41.640625 C 5.296875 -42.472656 6.367188 -42.890625 7.609375 -42.890625 C 8.859375 -42.890625 9.929688 -42.472656 10.828125 -41.640625 C 11.734375 -40.816406 12.1875 -39.816406 12.1875 -38.640625 C 12.1875 -37.460938 11.734375 -36.453125 10.828125 -35.609375 C 9.929688 -34.773438 8.859375 -34.359375 7.609375 -34.359375 Z M 7.609375 -34.359375 "/></g></g></g><g fill="#000000" fill-opacity="1"><g transform="translate(113.388557, 52.451759)"><g><path d="M 11.8125 -40.578125 L 11.8125 0 L 3.375 0 L 3.375 -40.578125 Z M 11.8125 -40.578125 "/></g></g></g><g fill="#000000" fill-opacity="1"><g transform="translate(128.564098, 52.451759)"><g><path d="M 11.8125 -40.578125 L 11.8125 0 L 3.375 0 L 3.375 -40.578125 Z M 11.8125 -40.578125 "/></g></g></g><g fill="#000000" fill-opacity="1"><g transform="translate(143.73964, 52.451759)"><g><path d="M 3.375 0 L 3.375 -30.4375 L 11.8125 -30.4375 L 11.8125 0 Z M 7.609375 -34.359375 C 6.367188 -34.359375 5.296875 -34.773438 4.390625 -35.609375 C 3.492188 -36.453125 3.046875 -37.460938 3.046875 -38.640625 C 3.046875 -39.816406 3.492188 -40.816406 4.390625 -41.640625 C 5.296875 -42.472656 6.367188 -42.890625 7.609375 -42.890625 C 8.859375 -42.890625 9.929688 -42.472656 10.828125 -41.640625 C 11.734375 -40.816406 12.1875 -39.816406 12.1875 -38.640625 C 12.1875 -37.460938 11.734375 -36.453125 10.828125 -35.609375 C 9.929688 -34.773438 8.859375 -34.359375 7.609375 -34.359375 Z M 7.609375 -34.359375 "/></g></g></g><g fill="#000000" fill-opacity="1"><g transform="translate(158.915181, 52.451759)"><g><path d="M 19.5625 -30.4375 L 19.5625 -24.09375 L 13.828125 -24.09375 L 13.828125 -9.359375 C 13.828125 -8.191406 14.09375 -7.398438 14.625 -6.984375 C 15.15625 -6.578125 15.84375 -6.375 16.6875 -6.375 C 17.082031 -6.375 17.476562 -6.410156 17.875 -6.484375 C 18.269531 -6.554688 18.570312 -6.613281 18.78125 -6.65625 L 20.109375 -0.375 C 19.691406 -0.238281 19.097656 -0.0820312 18.328125 0.09375 C 17.554688 0.269531 16.625 0.378906 15.53125 0.421875 C 12.46875 0.546875 10.007812 -0.117188 8.15625 -1.578125 C 6.300781 -3.035156 5.378906 -5.257812 5.390625 -8.25 L 5.390625 -24.09375 L 1.234375 -24.09375 L 1.234375 -30.4375 L 5.390625 -30.4375 L 5.390625 -37.71875 L 13.828125 -37.71875 L 13.828125 -30.4375 Z M 19.5625 -30.4375 "/></g></g></g></g></g><g fill="#000000" fill-opacity="1"><g transform="translate(241.083035, 211.115669)"><g><path d="M 8.046875 -11.984375 L 8.046875 0 L 2.296875 0 L 2.296875 -27.640625 L 7.875 -27.640625 L 7.875 -17.0625 L 8.125 -17.0625 C 8.601562 -18.289062 9.359375 -19.253906 10.390625 -19.953125 C 11.429688 -20.648438 12.738281 -21 14.3125 -21 C 16.476562 -21 18.21875 -20.304688 19.53125 -18.921875 C 20.84375 -17.535156 21.492188 -15.628906 21.484375 -13.203125 L 21.484375 0 L 15.734375 0 L 15.734375 -12.171875 C 15.742188 -13.453125 15.421875 -14.445312 14.765625 -15.15625 C 14.117188 -15.863281 13.207031 -16.21875 12.03125 -16.21875 C 10.863281 -16.21875 9.910156 -15.847656 9.171875 -15.109375 C 8.429688 -14.367188 8.054688 -13.328125 8.046875 -11.984375 Z M 8.046875 -11.984375 "/></g></g></g><g fill="#000000" fill-opacity="1"><g transform="translate(264.801108, 211.115669)"><g><path d="M 15.578125 -8.828125 L 15.578125 -20.734375 L 21.328125 -20.734375 L 21.328125 0 L 15.8125 0 L 15.8125 -3.765625 L 15.59375 -3.765625 C 15.125 -2.546875 14.347656 -1.566406 13.265625 -0.828125 C 12.179688 -0.0976562 10.863281 0.265625 9.3125 0.265625 C 7.226562 0.265625 5.539062 -0.425781 4.25 -1.8125 C 2.957031 -3.207031 2.304688 -5.113281 2.296875 -7.53125 L 2.296875 -20.734375 L 8.046875 -20.734375 L 8.046875 -8.5625 C 8.054688 -7.332031 8.382812 -6.363281 9.03125 -5.65625 C 9.675781 -4.945312 10.539062 -4.59375 11.625 -4.59375 C 12.664062 -4.59375 13.585938 -4.953125 14.390625 -5.671875 C 15.191406 -6.390625 15.585938 -7.441406 15.578125 -8.828125 Z M 15.578125 -8.828125 "/></g></g></g><g fill="#000000" fill-opacity="1"><g transform="translate(288.424745, 211.115669)"><g><path d="M 2.40625 0 L 2.40625 -27.640625 L 8.15625 -27.640625 L 8.15625 -17.25 L 8.328125 -17.25 C 8.585938 -17.8125 8.953125 -18.378906 9.421875 -18.953125 C 9.898438 -19.535156 10.53125 -20.019531 11.3125 -20.40625 C 12.101562 -20.800781 13.070312 -21 14.21875 -21 C 15.738281 -21 17.132812 -20.601562 18.40625 -19.8125 C 19.675781 -19.03125 20.691406 -17.847656 21.453125 -16.265625 C 22.222656 -14.691406 22.609375 -12.71875 22.609375 -10.34375 C 22.609375 -8.03125 22.234375 -6.078125 21.484375 -4.484375 C 20.742188 -2.898438 19.738281 -1.695312 18.46875 -0.875 C 17.207031 -0.0625 15.785156 0.34375 14.203125 0.34375 C 13.085938 0.34375 12.140625 0.160156 11.359375 -0.203125 C 10.585938 -0.578125 9.957031 -1.046875 9.46875 -1.609375 C 8.976562 -2.171875 8.597656 -2.738281 8.328125 -3.3125 L 8.0625 -3.3125 L 8.0625 0 Z M 8.03125 -10.359375 C 8.03125 -8.515625 8.410156 -7.03125 9.171875 -5.90625 C 9.929688 -4.789062 11.003906 -4.234375 12.390625 -4.234375 C 13.796875 -4.234375 14.875 -4.800781 15.625 -5.9375 C 16.375 -7.082031 16.75 -8.554688 16.75 -10.359375 C 16.75 -12.160156 16.375 -13.617188 15.625 -14.734375 C 14.882812 -15.859375 13.804688 -16.421875 12.390625 -16.421875 C 10.992188 -16.421875 9.914062 -15.875 9.15625 -14.78125 C 8.40625 -13.6875 8.03125 -12.210938 8.03125 -10.359375 Z M 8.03125 -10.359375 "/></g></g></g><g clip-path="url(#bb7c53751a)"><g transform="matrix(1, 0, 0, 1, 179, 189)"><g clip-path="url(#1c0dade7d8)"><g clip-path="url(#4697907658)"><g mask="url(#c97d30b0d9)"><g><g clip-path="url(#a4ea05c081)"><g clip-path="url(#f8bab020a6)"><path fill="url(#eb57f43b5d)" d="M 1.296875 0.90625 L 1.296875 81.15625 L 169.292969 81.15625 L 169.292969 0.90625 Z M 1.296875 0.90625 " fill-rule="nonzero"/></g></g></g></g></g></g></g></g></svg>