<svg xmlns="http://www.w3.org/2000/svg" xmlns:xlink="http://www.w3.org/1999/xlink" width="500" zoomAndPan="magnify" viewBox="0 0 375 374.999991" height="500" preserveAspectRatio="xMidYMid meet" version="1.0"><defs><filter x="0%" y="0%" width="100%" height="100%" id="cbb0b40510"><feColorMatrix values="0 0 0 0 1 0 0 0 0 1 0 0 0 0 1 0 0 0 1 0" color-interpolation-filters="sRGB"/></filter><g/><clipPath id="3aaebd4325"><path d="M 40 133.800781 L 75.523438 133.800781 L 75.523438 190 L 40 190 Z M 40 133.800781 " clip-rule="nonzero"/></clipPath><clipPath id="402be8a908"><path d="M 28.273438 168 L 53 168 L 53 196.050781 L 28.273438 196.050781 Z M 28.273438 168 " clip-rule="nonzero"/></clipPath><clipPath id="8e99183a3f"><rect x="0" width="182" y="0" height="67"/></clipPath><clipPath id="ec530ad95f"><path d="M 193.542969 189.90625 L 334.542969 189.90625 L 334.542969 270.90625 L 193.542969 270.90625 Z M 193.542969 189.90625 " clip-rule="nonzero"/></clipPath><clipPath id="abd6267c0f"><path d="M 0.542969 0.90625 L 141.542969 0.90625 L 141.542969 81.90625 L 0.542969 81.90625 Z M 0.542969 0.90625 " clip-rule="nonzero"/></clipPath><clipPath id="adad900167"><path d="M 0.542969 0.90625 L 141.542969 0.90625 L 141.542969 81.15625 L 0.542969 81.15625 Z M 0.542969 0.90625 " clip-rule="nonzero"/></clipPath><linearGradient x1="-40.001999" gradientTransform="matrix(0.749979, 0, 0, 0.749979, 30.545151, 30.905215)" y1="13.5" x2="148.002249" gradientUnits="userSpaceOnUse" y2="13.5" id="37ddcbdf58"><stop stop-opacity="1" stop-color="rgb(25.878906%, 1.568604%, 49.409485%)" offset="0"/><stop stop-opacity="1" stop-color="rgb(25.878906%, 1.568604%, 49.409485%)" offset="0.125"/><stop stop-opacity="1" stop-color="rgb(25.878906%, 1.568604%, 49.409485%)" offset="0.1875"/><stop stop-opacity="1" stop-color="rgb(25.878906%, 1.568604%, 49.409485%)" offset="0.203125"/><stop stop-opacity="1" stop-color="rgb(25.878906%, 1.568604%, 49.409485%)" offset="0.210938"/><stop stop-opacity="1" stop-color="rgb(25.758362%, 2.055359%, 49.473572%)" offset="0.214844"/><stop stop-opacity="1" stop-color="rgb(25.639343%, 2.54364%, 49.539185%)" offset="0.21875"/><stop stop-opacity="1" stop-color="rgb(25.482178%, 3.179932%, 49.623108%)" offset="0.222656"/><stop stop-opacity="1" stop-color="rgb(25.326538%, 3.816223%, 49.708557%)" offset="0.226562"/><stop stop-opacity="1" stop-color="rgb(25.169373%, 4.452515%, 49.79248%)" offset="0.230469"/><stop stop-opacity="1" stop-color="rgb(25.013733%, 5.088806%, 49.87793%)" offset="0.234375"/><stop stop-opacity="1" stop-color="rgb(24.856567%, 5.725098%, 49.963379%)" offset="0.238281"/><stop stop-opacity="1" stop-color="rgb(24.700928%, 6.362915%, 50.048828%)" offset="0.242188"/><stop stop-opacity="1" stop-color="rgb(24.543762%, 6.999207%, 50.132751%)" offset="0.246094"/><stop stop-opacity="1" stop-color="rgb(24.388123%, 7.635498%, 50.218201%)" offset="0.25"/><stop stop-opacity="1" stop-color="rgb(24.230957%, 8.27179%, 50.302124%)" offset="0.253906"/><stop stop-opacity="1" stop-color="rgb(24.075317%, 8.908081%, 50.387573%)" offset="0.257812"/><stop stop-opacity="1" stop-color="rgb(23.918152%, 9.544373%, 50.471497%)" offset="0.261719"/><stop stop-opacity="1" stop-color="rgb(23.762512%, 10.18219%, 50.556946%)" offset="0.265625"/><stop stop-opacity="1" stop-color="rgb(23.605347%, 10.818481%, 50.642395%)" offset="0.269531"/><stop stop-opacity="1" stop-color="rgb(23.449707%, 11.454773%, 50.727844%)" offset="0.273438"/><stop stop-opacity="1" stop-color="rgb(23.292542%, 12.091064%, 50.811768%)" offset="0.277344"/><stop stop-opacity="1" stop-color="rgb(23.136902%, 12.727356%, 50.897217%)" offset="0.28125"/><stop stop-opacity="1" stop-color="rgb(22.979736%, 13.363647%, 50.98114%)" offset="0.285156"/><stop stop-opacity="1" stop-color="rgb(22.824097%, 13.999939%, 51.066589%)" offset="0.289062"/><stop stop-opacity="1" stop-color="rgb(22.666931%, 14.63623%, 51.150513%)" offset="0.292969"/><stop stop-opacity="1" stop-color="rgb(22.511292%, 15.274048%, 51.235962%)" offset="0.296875"/><stop stop-opacity="1" stop-color="rgb(22.354126%, 15.910339%, 51.321411%)" offset="0.300781"/><stop stop-opacity="1" stop-color="rgb(22.198486%, 16.546631%, 51.40686%)" offset="0.304688"/><stop stop-opacity="1" stop-color="rgb(22.041321%, 17.182922%, 51.490784%)" offset="0.308594"/><stop stop-opacity="1" stop-color="rgb(21.885681%, 17.819214%, 51.576233%)" offset="0.3125"/><stop stop-opacity="1" stop-color="rgb(21.728516%, 18.455505%, 51.660156%)" offset="0.316406"/><stop stop-opacity="1" stop-color="rgb(21.572876%, 19.093323%, 51.745605%)" offset="0.320313"/><stop stop-opacity="1" stop-color="rgb(21.41571%, 19.729614%, 51.829529%)" offset="0.324219"/><stop stop-opacity="1" stop-color="rgb(21.260071%, 20.365906%, 51.914978%)" offset="0.328125"/><stop stop-opacity="1" stop-color="rgb(21.102905%, 21.002197%, 52.000427%)" offset="0.332031"/><stop stop-opacity="1" stop-color="rgb(20.947266%, 21.638489%, 52.085876%)" offset="0.335938"/><stop stop-opacity="1" stop-color="rgb(20.7901%, 22.27478%, 52.1698%)" offset="0.339844"/><stop stop-opacity="1" stop-color="rgb(20.63446%, 22.911072%, 52.255249%)" offset="0.34375"/><stop stop-opacity="1" stop-color="rgb(20.477295%, 23.547363%, 52.339172%)" offset="0.347656"/><stop stop-opacity="1" stop-color="rgb(20.321655%, 24.185181%, 52.424622%)" offset="0.351562"/><stop stop-opacity="1" stop-color="rgb(20.16449%, 24.821472%, 52.508545%)" offset="0.355469"/><stop stop-opacity="1" stop-color="rgb(20.00885%, 25.457764%, 52.593994%)" offset="0.359375"/><stop stop-opacity="1" stop-color="rgb(19.851685%, 26.094055%, 52.679443%)" offset="0.363281"/><stop stop-opacity="1" stop-color="rgb(19.696045%, 26.730347%, 52.764893%)" offset="0.367188"/><stop stop-opacity="1" stop-color="rgb(19.538879%, 27.366638%, 52.848816%)" offset="0.371094"/><stop stop-opacity="1" stop-color="rgb(19.38324%, 28.00293%, 52.934265%)" offset="0.375"/><stop stop-opacity="1" stop-color="rgb(19.226074%, 28.639221%, 53.018188%)" offset="0.378906"/><stop stop-opacity="1" stop-color="rgb(19.070435%, 29.277039%, 53.103638%)" offset="0.382813"/><stop stop-opacity="1" stop-color="rgb(18.913269%, 29.91333%, 53.187561%)" offset="0.386719"/><stop stop-opacity="1" stop-color="rgb(18.757629%, 30.549622%, 53.27301%)" offset="0.390625"/><stop stop-opacity="1" stop-color="rgb(18.600464%, 31.185913%, 53.358459%)" offset="0.394531"/><stop stop-opacity="1" stop-color="rgb(18.444824%, 31.822205%, 53.443909%)" offset="0.398438"/><stop stop-opacity="1" stop-color="rgb(18.287659%, 32.458496%, 53.527832%)" offset="0.402344"/><stop stop-opacity="1" stop-color="rgb(18.132019%, 33.096313%, 53.613281%)" offset="0.40625"/><stop stop-opacity="1" stop-color="rgb(17.974854%, 33.732605%, 53.697205%)" offset="0.410156"/><stop stop-opacity="1" stop-color="rgb(17.819214%, 34.368896%, 53.782654%)" offset="0.414062"/><stop stop-opacity="1" stop-color="rgb(17.662048%, 35.005188%, 53.866577%)" offset="0.417969"/><stop stop-opacity="1" stop-color="rgb(17.506409%, 35.641479%, 53.952026%)" offset="0.421875"/><stop stop-opacity="1" stop-color="rgb(17.349243%, 36.277771%, 54.037476%)" offset="0.425781"/><stop stop-opacity="1" stop-color="rgb(17.193604%, 36.914062%, 54.122925%)" offset="0.429688"/><stop stop-opacity="1" stop-color="rgb(17.036438%, 37.550354%, 54.206848%)" offset="0.433594"/><stop stop-opacity="1" stop-color="rgb(16.880798%, 38.188171%, 54.292297%)" offset="0.4375"/><stop stop-opacity="1" stop-color="rgb(16.723633%, 38.824463%, 54.376221%)" offset="0.441406"/><stop stop-opacity="1" stop-color="rgb(16.567993%, 39.460754%, 54.46167%)" offset="0.445312"/><stop stop-opacity="1" stop-color="rgb(16.410828%, 40.097046%, 54.545593%)" offset="0.449219"/><stop stop-opacity="1" stop-color="rgb(16.255188%, 40.733337%, 54.631042%)" offset="0.453125"/><stop stop-opacity="1" stop-color="rgb(16.098022%, 41.369629%, 54.716492%)" offset="0.457031"/><stop stop-opacity="1" stop-color="rgb(15.942383%, 42.007446%, 54.801941%)" offset="0.460938"/><stop stop-opacity="1" stop-color="rgb(15.785217%, 42.643738%, 54.885864%)" offset="0.464844"/><stop stop-opacity="1" stop-color="rgb(15.629578%, 43.280029%, 54.971313%)" offset="0.46875"/><stop stop-opacity="1" stop-color="rgb(15.472412%, 43.916321%, 55.055237%)" offset="0.472656"/><stop stop-opacity="1" stop-color="rgb(15.315247%, 44.552612%, 55.140686%)" offset="0.476563"/><stop stop-opacity="1" stop-color="rgb(15.158081%, 45.188904%, 55.224609%)" offset="0.480469"/><stop stop-opacity="1" stop-color="rgb(15.002441%, 45.825195%, 55.310059%)" offset="0.484375"/><stop stop-opacity="1" stop-color="rgb(14.845276%, 46.461487%, 55.393982%)" offset="0.488281"/><stop stop-opacity="1" stop-color="rgb(14.689636%, 47.099304%, 55.479431%)" offset="0.492188"/><stop stop-opacity="1" stop-color="rgb(14.532471%, 47.735596%, 55.56488%)" offset="0.496094"/><stop stop-opacity="1" stop-color="rgb(14.376831%, 48.371887%, 55.65033%)" offset="0.5"/><stop stop-opacity="1" stop-color="rgb(14.219666%, 49.008179%, 55.734253%)" offset="0.503906"/><stop stop-opacity="1" stop-color="rgb(14.064026%, 49.64447%, 55.819702%)" offset="0.507812"/><stop stop-opacity="1" stop-color="rgb(13.90686%, 50.280762%, 55.903625%)" offset="0.511719"/><stop stop-opacity="1" stop-color="rgb(13.751221%, 50.918579%, 55.989075%)" offset="0.515625"/><stop stop-opacity="1" stop-color="rgb(13.594055%, 51.554871%, 56.072998%)" offset="0.519531"/><stop stop-opacity="1" stop-color="rgb(13.438416%, 52.191162%, 56.158447%)" offset="0.523438"/><stop stop-opacity="1" stop-color="rgb(13.28125%, 52.827454%, 56.243896%)" offset="0.527344"/><stop stop-opacity="1" stop-color="rgb(13.12561%, 53.463745%, 56.329346%)" offset="0.53125"/><stop stop-opacity="1" stop-color="rgb(12.968445%, 54.100037%, 56.413269%)" offset="0.535156"/><stop stop-opacity="1" stop-color="rgb(12.812805%, 54.736328%, 56.498718%)" offset="0.539062"/><stop stop-opacity="1" stop-color="rgb(12.65564%, 55.37262%, 56.582642%)" offset="0.542969"/><stop stop-opacity="1" stop-color="rgb(12.5%, 56.010437%, 56.668091%)" offset="0.546875"/><stop stop-opacity="1" stop-color="rgb(12.342834%, 56.646729%, 56.752014%)" offset="0.550781"/><stop stop-opacity="1" stop-color="rgb(12.187195%, 57.28302%, 56.837463%)" offset="0.554688"/><stop stop-opacity="1" stop-color="rgb(12.030029%, 57.919312%, 56.922913%)" offset="0.558594"/><stop stop-opacity="1" stop-color="rgb(11.87439%, 58.555603%, 57.008362%)" offset="0.5625"/><stop stop-opacity="1" stop-color="rgb(11.717224%, 59.191895%, 57.092285%)" offset="0.566406"/><stop stop-opacity="1" stop-color="rgb(11.561584%, 59.829712%, 57.177734%)" offset="0.570313"/><stop stop-opacity="1" stop-color="rgb(11.404419%, 60.466003%, 57.261658%)" offset="0.574219"/><stop stop-opacity="1" stop-color="rgb(11.248779%, 61.102295%, 57.347107%)" offset="0.578125"/><stop stop-opacity="1" stop-color="rgb(11.091614%, 61.738586%, 57.43103%)" offset="0.582031"/><stop stop-opacity="1" stop-color="rgb(10.935974%, 62.374878%, 57.516479%)" offset="0.585938"/><stop stop-opacity="1" stop-color="rgb(10.778809%, 63.011169%, 57.601929%)" offset="0.589844"/><stop stop-opacity="1" stop-color="rgb(10.623169%, 63.647461%, 57.687378%)" offset="0.59375"/><stop stop-opacity="1" stop-color="rgb(10.466003%, 64.283752%, 57.771301%)" offset="0.597656"/><stop stop-opacity="1" stop-color="rgb(10.310364%, 64.92157%, 57.85675%)" offset="0.601562"/><stop stop-opacity="1" stop-color="rgb(10.153198%, 65.557861%, 57.940674%)" offset="0.605469"/><stop stop-opacity="1" stop-color="rgb(9.997559%, 66.194153%, 58.026123%)" offset="0.609375"/><stop stop-opacity="1" stop-color="rgb(9.840393%, 66.830444%, 58.110046%)" offset="0.613281"/><stop stop-opacity="1" stop-color="rgb(9.684753%, 67.466736%, 58.195496%)" offset="0.617188"/><stop stop-opacity="1" stop-color="rgb(9.527588%, 68.103027%, 58.280945%)" offset="0.621094"/><stop stop-opacity="1" stop-color="rgb(9.371948%, 68.740845%, 58.366394%)" offset="0.625"/><stop stop-opacity="1" stop-color="rgb(9.214783%, 69.377136%, 58.450317%)" offset="0.628906"/><stop stop-opacity="1" stop-color="rgb(9.059143%, 70.013428%, 58.535767%)" offset="0.632812"/><stop stop-opacity="1" stop-color="rgb(8.901978%, 70.649719%, 58.61969%)" offset="0.636719"/><stop stop-opacity="1" stop-color="rgb(8.746338%, 71.286011%, 58.705139%)" offset="0.640625"/><stop stop-opacity="1" stop-color="rgb(8.589172%, 71.922302%, 58.789062%)" offset="0.644531"/><stop stop-opacity="1" stop-color="rgb(8.433533%, 72.558594%, 58.874512%)" offset="0.648438"/><stop stop-opacity="1" stop-color="rgb(8.276367%, 73.194885%, 58.959961%)" offset="0.652344"/><stop stop-opacity="1" stop-color="rgb(8.120728%, 73.832703%, 59.04541%)" offset="0.65625"/><stop stop-opacity="1" stop-color="rgb(7.963562%, 74.468994%, 59.129333%)" offset="0.660156"/><stop stop-opacity="1" stop-color="rgb(7.807922%, 75.105286%, 59.214783%)" offset="0.664063"/><stop stop-opacity="1" stop-color="rgb(7.650757%, 75.741577%, 59.298706%)" offset="0.667969"/><stop stop-opacity="1" stop-color="rgb(7.495117%, 76.377869%, 59.384155%)" offset="0.671875"/><stop stop-opacity="1" stop-color="rgb(7.337952%, 77.01416%, 59.468079%)" offset="0.675781"/><stop stop-opacity="1" stop-color="rgb(7.182312%, 77.651978%, 59.553528%)" offset="0.679688"/><stop stop-opacity="1" stop-color="rgb(7.025146%, 78.288269%, 59.638977%)" offset="0.683594"/><stop stop-opacity="1" stop-color="rgb(6.869507%, 78.924561%, 59.724426%)" offset="0.6875"/><stop stop-opacity="1" stop-color="rgb(6.712341%, 79.560852%, 59.80835%)" offset="0.691406"/><stop stop-opacity="1" stop-color="rgb(6.556702%, 80.197144%, 59.893799%)" offset="0.695312"/><stop stop-opacity="1" stop-color="rgb(6.399536%, 80.833435%, 59.977722%)" offset="0.699219"/><stop stop-opacity="1" stop-color="rgb(6.243896%, 81.469727%, 60.063171%)" offset="0.703125"/><stop stop-opacity="1" stop-color="rgb(6.086731%, 82.106018%, 60.147095%)" offset="0.707031"/><stop stop-opacity="1" stop-color="rgb(5.931091%, 82.743835%, 60.232544%)" offset="0.710938"/><stop stop-opacity="1" stop-color="rgb(5.773926%, 83.380127%, 60.317993%)" offset="0.714844"/><stop stop-opacity="1" stop-color="rgb(5.618286%, 84.016418%, 60.403442%)" offset="0.71875"/><stop stop-opacity="1" stop-color="rgb(5.461121%, 84.65271%, 60.487366%)" offset="0.722656"/><stop stop-opacity="1" stop-color="rgb(5.305481%, 85.289001%, 60.572815%)" offset="0.726562"/><stop stop-opacity="1" stop-color="rgb(5.148315%, 85.925293%, 60.656738%)" offset="0.730469"/><stop stop-opacity="1" stop-color="rgb(4.992676%, 86.56311%, 60.742188%)" offset="0.734375"/><stop stop-opacity="1" stop-color="rgb(4.83551%, 87.199402%, 60.826111%)" offset="0.738281"/><stop stop-opacity="1" stop-color="rgb(4.679871%, 87.835693%, 60.91156%)" offset="0.742188"/><stop stop-opacity="1" stop-color="rgb(4.522705%, 88.471985%, 60.997009%)" offset="0.746094"/><stop stop-opacity="1" stop-color="rgb(4.367065%, 89.108276%, 61.082458%)" offset="0.75"/><stop stop-opacity="1" stop-color="rgb(4.2099%, 89.744568%, 61.166382%)" offset="0.753906"/><stop stop-opacity="1" stop-color="rgb(4.05426%, 90.380859%, 61.251831%)" offset="0.757812"/><stop stop-opacity="1" stop-color="rgb(3.897095%, 91.017151%, 61.335754%)" offset="0.761719"/><stop stop-opacity="1" stop-color="rgb(3.741455%, 91.654968%, 61.421204%)" offset="0.765625"/><stop stop-opacity="1" stop-color="rgb(3.58429%, 92.29126%, 61.505127%)" offset="0.769531"/><stop stop-opacity="1" stop-color="rgb(3.42865%, 92.927551%, 61.590576%)" offset="0.773438"/><stop stop-opacity="1" stop-color="rgb(3.271484%, 93.563843%, 61.676025%)" offset="0.777344"/><stop stop-opacity="1" stop-color="rgb(3.115845%, 94.200134%, 61.761475%)" offset="0.78125"/><stop stop-opacity="1" stop-color="rgb(2.958679%, 94.836426%, 61.845398%)" offset="0.785156"/><stop stop-opacity="1" stop-color="rgb(2.801514%, 95.474243%, 61.930847%)" offset="0.789062"/><stop stop-opacity="1" stop-color="rgb(2.775574%, 95.581055%, 61.94458%)" offset="0.796875"/><stop stop-opacity="1" stop-color="rgb(2.749634%, 95.689392%, 61.959839%)" offset="0.8125"/><stop stop-opacity="1" stop-color="rgb(2.749634%, 95.689392%, 61.959839%)" offset="0.875"/><stop stop-opacity="1" stop-color="rgb(2.749634%, 95.689392%, 61.959839%)" offset="1"/></linearGradient><clipPath id="c6532ace83"><rect x="0" width="142" y="0" height="82"/></clipPath><clipPath id="9b7290f5a9"><path d="M 0.542969 0.90625 L 141.542969 0.90625 L 141.542969 81.90625 L 0.542969 81.90625 Z M 0.542969 0.90625 " clip-rule="nonzero"/></clipPath><clipPath id="147f090c02"><rect x="0" width="142" y="0" height="82"/></clipPath><clipPath id="a707105269"><rect x="0" width="142" y="0" height="82"/></clipPath><mask id="2c5530df92"><g filter="url(#cbb0b40510)"><g><g clip-path="url(#a707105269)"><g clip-path="url(#9b7290f5a9)"><g><g clip-path="url(#147f090c02)"><g fill="#000000" fill-opacity="1"><g transform="translate(30.54373, 46.654555)"><g><path d="M 5.703125 -6.515625 L 3.765625 -6.515625 L 3.765625 0 L 1.53125 0 L 1.53125 -6.515625 L 0.296875 -6.515625 L 0.296875 -7.59375 L 1.53125 -8.1875 L 1.53125 -8.796875 C 1.53125 -9.722656 1.757812 -10.398438 2.21875 -10.828125 C 2.675781 -11.265625 3.410156 -11.484375 4.421875 -11.484375 C 5.191406 -11.484375 5.878906 -11.367188 6.484375 -11.140625 L 5.90625 -9.5 C 5.457031 -9.632812 5.046875 -9.703125 4.671875 -9.703125 C 4.347656 -9.703125 4.113281 -9.609375 3.96875 -9.421875 C 3.832031 -9.234375 3.765625 -8.992188 3.765625 -8.703125 L 3.765625 -8.1875 L 5.703125 -8.1875 Z M 5.703125 -6.515625 "/></g></g><g transform="translate(36.351835, 46.654555)"><g><path d="M 2.953125 -4.109375 C 2.953125 -3.296875 3.082031 -2.679688 3.34375 -2.265625 C 3.613281 -1.847656 4.050781 -1.640625 4.65625 -1.640625 C 5.25 -1.640625 5.675781 -1.847656 5.9375 -2.265625 C 6.195312 -2.679688 6.328125 -3.296875 6.328125 -4.109375 C 6.328125 -4.921875 6.191406 -5.53125 5.921875 -5.9375 C 5.660156 -6.34375 5.234375 -6.546875 4.640625 -6.546875 C 4.046875 -6.546875 3.613281 -6.34375 3.34375 -5.9375 C 3.082031 -5.53125 2.953125 -4.921875 2.953125 -4.109375 Z M 8.609375 -4.109375 C 8.609375 -2.773438 8.253906 -1.734375 7.546875 -0.984375 C 6.847656 -0.234375 5.875 0.140625 4.625 0.140625 C 3.832031 0.140625 3.132812 -0.03125 2.53125 -0.375 C 1.9375 -0.71875 1.476562 -1.207031 1.15625 -1.84375 C 0.832031 -2.488281 0.671875 -3.242188 0.671875 -4.109375 C 0.671875 -5.441406 1.019531 -6.476562 1.71875 -7.21875 C 2.414062 -7.96875 3.398438 -8.34375 4.671875 -8.34375 C 5.453125 -8.34375 6.140625 -8.171875 6.734375 -7.828125 C 7.335938 -7.484375 7.800781 -6.988281 8.125 -6.34375 C 8.445312 -5.707031 8.609375 -4.960938 8.609375 -4.109375 Z M 8.609375 -4.109375 "/></g></g><g transform="translate(45.638944, 46.654555)"><g><path d="M 5.75 -8.34375 C 6.050781 -8.34375 6.300781 -8.320312 6.5 -8.28125 L 6.328125 -6.1875 C 6.148438 -6.226562 5.929688 -6.25 5.671875 -6.25 C 4.953125 -6.25 4.394531 -6.066406 4 -5.703125 C 3.601562 -5.335938 3.40625 -4.828125 3.40625 -4.171875 L 3.40625 0 L 1.171875 0 L 1.171875 -8.1875 L 2.859375 -8.1875 L 3.1875 -6.8125 L 3.296875 -6.8125 C 3.554688 -7.269531 3.898438 -7.640625 4.328125 -7.921875 C 4.765625 -8.203125 5.238281 -8.34375 5.75 -8.34375 Z M 5.75 -8.34375 "/></g></g><g transform="translate(52.450467, 46.654555)"><g/></g><g transform="translate(56.346951, 46.654555)"><g><path d="M 6.890625 -2.4375 C 6.890625 -1.59375 6.597656 -0.953125 6.015625 -0.515625 C 5.429688 -0.078125 4.554688 0.140625 3.390625 0.140625 C 2.796875 0.140625 2.285156 0.0976562 1.859375 0.015625 C 1.441406 -0.0546875 1.050781 -0.171875 0.6875 -0.328125 L 0.6875 -2.171875 C 1.101562 -1.972656 1.570312 -1.804688 2.09375 -1.671875 C 2.613281 -1.546875 3.070312 -1.484375 3.46875 -1.484375 C 4.28125 -1.484375 4.6875 -1.71875 4.6875 -2.1875 C 4.6875 -2.363281 4.628906 -2.503906 4.515625 -2.609375 C 4.410156 -2.722656 4.222656 -2.847656 3.953125 -2.984375 C 3.691406 -3.128906 3.34375 -3.296875 2.90625 -3.484375 C 2.28125 -3.742188 1.816406 -3.984375 1.515625 -4.203125 C 1.222656 -4.429688 1.007812 -4.691406 0.875 -4.984375 C 0.738281 -5.273438 0.671875 -5.632812 0.671875 -6.0625 C 0.671875 -6.789062 0.953125 -7.351562 1.515625 -7.75 C 2.078125 -8.144531 2.878906 -8.34375 3.921875 -8.34375 C 4.898438 -8.34375 5.859375 -8.128906 6.796875 -7.703125 L 6.125 -6.09375 C 5.71875 -6.257812 5.332031 -6.398438 4.96875 -6.515625 C 4.613281 -6.628906 4.25 -6.6875 3.875 -6.6875 C 3.21875 -6.6875 2.890625 -6.507812 2.890625 -6.15625 C 2.890625 -5.957031 2.992188 -5.78125 3.203125 -5.625 C 3.421875 -5.476562 3.890625 -5.265625 4.609375 -4.984375 C 5.242188 -4.722656 5.707031 -4.476562 6 -4.25 C 6.300781 -4.03125 6.523438 -3.773438 6.671875 -3.484375 C 6.816406 -3.191406 6.890625 -2.84375 6.890625 -2.4375 Z M 6.890625 -2.4375 "/></g></g><g transform="translate(63.803005, 46.654555)"><g><path d="M 4.5 0.140625 C 1.945312 0.140625 0.671875 -1.253906 0.671875 -4.046875 C 0.671875 -5.441406 1.015625 -6.503906 1.703125 -7.234375 C 2.398438 -7.972656 3.394531 -8.34375 4.6875 -8.34375 C 5.632812 -8.34375 6.488281 -8.15625 7.25 -7.78125 L 6.578125 -6.0625 C 6.234375 -6.195312 5.910156 -6.3125 5.609375 -6.40625 C 5.304688 -6.5 5 -6.546875 4.6875 -6.546875 C 3.53125 -6.546875 2.953125 -5.71875 2.953125 -4.0625 C 2.953125 -2.457031 3.53125 -1.65625 4.6875 -1.65625 C 5.125 -1.65625 5.523438 -1.710938 5.890625 -1.828125 C 6.253906 -1.941406 6.617188 -2.125 6.984375 -2.375 L 6.984375 -0.46875 C 6.628906 -0.238281 6.265625 -0.0820312 5.890625 0 C 5.523438 0.09375 5.0625 0.140625 4.5 0.140625 Z M 4.5 0.140625 "/></g></g><g transform="translate(71.515407, 46.654555)"><g><path d="M 8.734375 0 L 6.5 0 L 6.5 -4.78125 C 6.5 -5.96875 6.054688 -6.5625 5.171875 -6.5625 C 4.546875 -6.5625 4.09375 -6.347656 3.8125 -5.921875 C 3.539062 -5.492188 3.40625 -4.804688 3.40625 -3.859375 L 3.40625 0 L 1.171875 0 L 1.171875 -11.390625 L 3.40625 -11.390625 L 3.40625 -9.078125 C 3.40625 -8.890625 3.390625 -8.460938 3.359375 -7.796875 L 3.296875 -7.140625 L 3.421875 -7.140625 C 3.921875 -7.941406 4.710938 -8.34375 5.796875 -8.34375 C 6.753906 -8.34375 7.484375 -8.082031 7.984375 -7.5625 C 8.484375 -7.050781 8.734375 -6.3125 8.734375 -5.34375 Z M 8.734375 0 "/></g></g><g transform="translate(81.373805, 46.654555)"><g><path d="M 2.953125 -4.109375 C 2.953125 -3.296875 3.082031 -2.679688 3.34375 -2.265625 C 3.613281 -1.847656 4.050781 -1.640625 4.65625 -1.640625 C 5.25 -1.640625 5.675781 -1.847656 5.9375 -2.265625 C 6.195312 -2.679688 6.328125 -3.296875 6.328125 -4.109375 C 6.328125 -4.921875 6.191406 -5.53125 5.921875 -5.9375 C 5.660156 -6.34375 5.234375 -6.546875 4.640625 -6.546875 C 4.046875 -6.546875 3.613281 -6.34375 3.34375 -5.9375 C 3.082031 -5.53125 2.953125 -4.921875 2.953125 -4.109375 Z M 8.609375 -4.109375 C 8.609375 -2.773438 8.253906 -1.734375 7.546875 -0.984375 C 6.847656 -0.234375 5.875 0.140625 4.625 0.140625 C 3.832031 0.140625 3.132812 -0.03125 2.53125 -0.375 C 1.9375 -0.71875 1.476562 -1.207031 1.15625 -1.84375 C 0.832031 -2.488281 0.671875 -3.242188 0.671875 -4.109375 C 0.671875 -5.441406 1.019531 -6.476562 1.71875 -7.21875 C 2.414062 -7.96875 3.398438 -8.34375 4.671875 -8.34375 C 5.453125 -8.34375 6.140625 -8.171875 6.734375 -7.828125 C 7.335938 -7.484375 7.800781 -6.988281 8.125 -6.34375 C 8.445312 -5.707031 8.609375 -4.960938 8.609375 -4.109375 Z M 8.609375 -4.109375 "/></g></g><g transform="translate(90.660914, 46.654555)"><g><path d="M 2.953125 -4.109375 C 2.953125 -3.296875 3.082031 -2.679688 3.34375 -2.265625 C 3.613281 -1.847656 4.050781 -1.640625 4.65625 -1.640625 C 5.25 -1.640625 5.675781 -1.847656 5.9375 -2.265625 C 6.195312 -2.679688 6.328125 -3.296875 6.328125 -4.109375 C 6.328125 -4.921875 6.191406 -5.53125 5.921875 -5.9375 C 5.660156 -6.34375 5.234375 -6.546875 4.640625 -6.546875 C 4.046875 -6.546875 3.613281 -6.34375 3.34375 -5.9375 C 3.082031 -5.53125 2.953125 -4.921875 2.953125 -4.109375 Z M 8.609375 -4.109375 C 8.609375 -2.773438 8.253906 -1.734375 7.546875 -0.984375 C 6.847656 -0.234375 5.875 0.140625 4.625 0.140625 C 3.832031 0.140625 3.132812 -0.03125 2.53125 -0.375 C 1.9375 -0.71875 1.476562 -1.207031 1.15625 -1.84375 C 0.832031 -2.488281 0.671875 -3.242188 0.671875 -4.109375 C 0.671875 -5.441406 1.019531 -6.476562 1.71875 -7.21875 C 2.414062 -7.96875 3.398438 -8.34375 4.671875 -8.34375 C 5.453125 -8.34375 6.140625 -8.171875 6.734375 -7.828125 C 7.335938 -7.484375 7.800781 -6.988281 8.125 -6.34375 C 8.445312 -5.707031 8.609375 -4.960938 8.609375 -4.109375 Z M 8.609375 -4.109375 "/></g></g><g transform="translate(99.948023, 46.654555)"><g><path d="M 3.40625 0 L 1.171875 0 L 1.171875 -11.390625 L 3.40625 -11.390625 Z M 3.40625 0 "/></g></g><g transform="translate(104.525659, 46.654555)"><g><path d="M 6.890625 -2.4375 C 6.890625 -1.59375 6.597656 -0.953125 6.015625 -0.515625 C 5.429688 -0.078125 4.554688 0.140625 3.390625 0.140625 C 2.796875 0.140625 2.285156 0.0976562 1.859375 0.015625 C 1.441406 -0.0546875 1.050781 -0.171875 0.6875 -0.328125 L 0.6875 -2.171875 C 1.101562 -1.972656 1.570312 -1.804688 2.09375 -1.671875 C 2.613281 -1.546875 3.070312 -1.484375 3.46875 -1.484375 C 4.28125 -1.484375 4.6875 -1.71875 4.6875 -2.1875 C 4.6875 -2.363281 4.628906 -2.503906 4.515625 -2.609375 C 4.410156 -2.722656 4.222656 -2.847656 3.953125 -2.984375 C 3.691406 -3.128906 3.34375 -3.296875 2.90625 -3.484375 C 2.28125 -3.742188 1.816406 -3.984375 1.515625 -4.203125 C 1.222656 -4.429688 1.007812 -4.691406 0.875 -4.984375 C 0.738281 -5.273438 0.671875 -5.632812 0.671875 -6.0625 C 0.671875 -6.789062 0.953125 -7.351562 1.515625 -7.75 C 2.078125 -8.144531 2.878906 -8.34375 3.921875 -8.34375 C 4.898438 -8.34375 5.859375 -8.128906 6.796875 -7.703125 L 6.125 -6.09375 C 5.71875 -6.257812 5.332031 -6.398438 4.96875 -6.515625 C 4.613281 -6.628906 4.25 -6.6875 3.875 -6.6875 C 3.21875 -6.6875 2.890625 -6.507812 2.890625 -6.15625 C 2.890625 -5.957031 2.992188 -5.78125 3.203125 -5.625 C 3.421875 -5.476562 3.890625 -5.265625 4.609375 -4.984375 C 5.242188 -4.722656 5.707031 -4.476562 6 -4.25 C 6.300781 -4.03125 6.523438 -3.773438 6.671875 -3.484375 C 6.816406 -3.191406 6.890625 -2.84375 6.890625 -2.4375 Z M 6.890625 -2.4375 "/></g></g></g></g></g></g></g></g></g></mask><clipPath id="9d5623e8fe"><path d="M 0.542969 0.90625 L 141.542969 0.90625 L 141.542969 81.15625 L 0.542969 81.15625 Z M 0.542969 0.90625 " clip-rule="nonzero"/></clipPath><clipPath id="8a289b21d2"><rect x="0" width="142" y="0" height="82"/></clipPath><clipPath id="748d433e2c"><rect x="0" width="142" y="0" height="82"/></clipPath></defs><g clip-path="url(#3aaebd4325)"><path fill="#000000" d="M 53.078125 189.222656 L 52.285156 187.710938 C 50.855469 185.277344 48.824219 183.589844 46.429688 182.160156 C 44.863281 181.226562 43.058594 180.558594 41.550781 179.621094 C 41.167969 179.382812 40.917969 179.210938 40.800781 178.730469 C 40.953125 171.277344 40.480469 163.640625 40.765625 156.203125 C 40.976562 150.660156 42.890625 146.347656 47.269531 142.925781 C 47.855469 140.328125 48.832031 137.726562 50.367188 135.546875 C 50.75 134.996094 51.78125 133.410156 52.53125 133.890625 C 53.582031 134.5625 54.351562 138.109375 54.71875 139.328125 C 54.835938 139.359375 54.847656 139.296875 54.914062 139.25 C 56.027344 138.476562 57.160156 136.738281 58.304688 136.003906 C 58.742188 135.726562 59.261719 135.503906 59.488281 136.140625 C 59.914062 137.332031 59.410156 139.144531 59.558594 140.378906 C 59.675781 141.378906 60.230469 141.257812 60.925781 141.585938 C 62.6875 142.421875 63.464844 143.632812 64.976562 144.640625 C 66.78125 145.84375 68.953125 146.378906 71.0625 146.75 C 72.246094 146.953125 73.941406 146.984375 75.011719 147.324219 C 76.246094 147.714844 74.859375 149.292969 74.390625 149.824219 C 73.1875 151.207031 71.816406 152.058594 69.953125 152.175781 C 66.183594 152.414062 62.085938 151.824219 58.347656 152.339844 C 55.632812 152.710938 53.417969 154.4375 53.167969 157.3125 C 53.132812 157.699219 53.011719 158.410156 53.511719 158.433594 L 70.652344 158.433594 C 71.269531 158.4375 71.5 158.847656 71.550781 159.414062 C 71.847656 162.808594 70.542969 167.808594 66.519531 168.152344 L 53.660156 168.152344 C 53.46875 168.09375 53.078125 168.328125 53.078125 168.503906 Z M 58.242188 144.910156 C 57.707031 145.476562 58.855469 146.191406 59.292969 146.359375 C 60.121094 146.683594 63.101562 147.007812 61.726562 145.402344 C 61.21875 144.808594 60.183594 144.539062 59.425781 144.574219 C 59.1875 144.585938 58.390625 144.753906 58.242188 144.910156 Z M 58.242188 144.910156 " fill-opacity="1" fill-rule="nonzero"/></g><g clip-path="url(#402be8a908)"><path fill="#000000" d="M 36.699219 168.089844 C 37.765625 167.996094 36.933594 169.632812 36.796875 170.15625 C 36.300781 172.125 36.125 174.058594 36.597656 176.0625 C 37.722656 180.839844 42.433594 181.78125 46.027344 184.050781 C 49.5 186.242188 51.914062 189.566406 52.144531 193.800781 C 52.199219 194.796875 52.347656 195.691406 51.160156 195.871094 C 49.300781 196.148438 46.023438 196.042969 44.078125 195.957031 C 39.34375 195.746094 34.710938 194.296875 31.570312 190.589844 C 26.527344 184.632812 27.394531 174.917969 33.402344 169.957031 C 34.109375 169.371094 35.8125 168.167969 36.695312 168.089844 Z M 36.699219 168.089844 " fill-opacity="1" fill-rule="nonzero"/></g><g transform="matrix(1, 0, 0, 1, 60, 164)"><g clip-path="url(#8e99183a3f)"><g fill="#000000" fill-opacity="1"><g transform="translate(0.820159, 52.451817)"><g><path d="M 3.53125 0 L 3.53125 -40.578125 L 30.390625 -40.578125 L 30.390625 -33.5 L 12.109375 -33.5 L 12.109375 -23.84375 L 28.609375 -23.84375 L 28.609375 -16.765625 L 12.109375 -16.765625 L 12.109375 0 Z M 3.53125 0 "/></g></g></g><g fill="#000000" fill-opacity="1"><g transform="translate(33.073084, 52.451817)"><g><path d="M 12.046875 0.578125 C 9.140625 0.578125 6.726562 -0.179688 4.8125 -1.703125 C 2.894531 -3.222656 1.9375 -5.488281 1.9375 -8.5 C 1.9375 -10.769531 2.472656 -12.550781 3.546875 -13.84375 C 4.617188 -15.144531 6.019531 -16.09375 7.75 -16.6875 C 9.488281 -17.289062 11.363281 -17.6875 13.375 -17.875 C 16.019531 -18.132812 17.910156 -18.410156 19.046875 -18.703125 C 20.179688 -18.992188 20.75 -19.628906 20.75 -20.609375 L 20.75 -20.71875 C 20.75 -21.976562 20.351562 -22.953125 19.5625 -23.640625 C 18.78125 -24.328125 17.671875 -24.671875 16.234375 -24.671875 C 14.710938 -24.671875 13.5 -24.335938 12.59375 -23.671875 C 11.695312 -23.015625 11.101562 -22.175781 10.8125 -21.15625 L 3.015625 -21.796875 C 3.597656 -24.566406 5.039062 -26.765625 7.34375 -28.390625 C 9.644531 -30.015625 12.617188 -30.828125 16.265625 -30.828125 C 18.523438 -30.828125 20.640625 -30.46875 22.609375 -29.75 C 24.578125 -29.039062 26.164062 -27.929688 27.375 -26.421875 C 28.582031 -24.910156 29.1875 -22.945312 29.1875 -20.53125 L 29.1875 0 L 21.1875 0 L 21.1875 -4.21875 L 20.9375 -4.21875 C 20.195312 -2.800781 19.09375 -1.644531 17.625 -0.75 C 16.15625 0.132812 14.296875 0.578125 12.046875 0.578125 Z M 14.46875 -5.25 C 16.3125 -5.25 17.828125 -5.785156 19.015625 -6.859375 C 20.210938 -7.941406 20.8125 -9.28125 20.8125 -10.875 L 20.8125 -14.109375 C 20.476562 -13.878906 19.960938 -13.675781 19.265625 -13.5 C 18.578125 -13.332031 17.835938 -13.1875 17.046875 -13.0625 C 16.265625 -12.9375 15.5625 -12.828125 14.9375 -12.734375 C 13.457031 -12.523438 12.265625 -12.109375 11.359375 -11.484375 C 10.453125 -10.867188 10 -9.96875 10 -8.78125 C 10 -7.613281 10.414062 -6.734375 11.25 -6.140625 C 12.09375 -5.546875 13.164062 -5.25 14.46875 -5.25 Z M 14.46875 -5.25 "/></g></g></g><g fill="#000000" fill-opacity="1"><g transform="translate(65.444935, 52.451817)"><g><path d="M 17.125 0.59375 C 14 0.59375 11.316406 -0.0664062 9.078125 -1.390625 C 6.835938 -2.722656 5.117188 -4.570312 3.921875 -6.9375 C 2.734375 -9.300781 2.140625 -12.019531 2.140625 -15.09375 C 2.140625 -18.21875 2.742188 -20.957031 3.953125 -23.3125 C 5.160156 -25.664062 6.878906 -27.503906 9.109375 -28.828125 C 11.347656 -30.160156 14.003906 -30.828125 17.078125 -30.828125 C 19.734375 -30.828125 22.0625 -30.34375 24.0625 -29.375 C 26.0625 -28.414062 27.640625 -27.0625 28.796875 -25.3125 C 29.953125 -23.570312 30.59375 -21.53125 30.71875 -19.1875 L 22.75 -19.1875 C 22.519531 -20.695312 21.925781 -21.914062 20.96875 -22.84375 C 20.007812 -23.78125 18.757812 -24.25 17.21875 -24.25 C 15.257812 -24.25 13.6875 -23.460938 12.5 -21.890625 C 11.3125 -20.316406 10.71875 -18.09375 10.71875 -15.21875 C 10.71875 -12.3125 11.304688 -10.0625 12.484375 -8.46875 C 13.671875 -6.875 15.25 -6.078125 17.21875 -6.078125 C 18.664062 -6.078125 19.882812 -6.515625 20.875 -7.390625 C 21.875 -8.273438 22.5 -9.53125 22.75 -11.15625 L 30.71875 -11.15625 C 30.582031 -8.832031 29.945312 -6.785156 28.8125 -5.015625 C 27.6875 -3.242188 26.132812 -1.863281 24.15625 -0.875 C 22.175781 0.101562 19.832031 0.59375 17.125 0.59375 Z M 17.125 0.59375 "/></g></g></g><g fill="#000000" fill-opacity="1"><g transform="translate(98.213016, 52.451817)"><g><path d="M 3.375 0 L 3.375 -30.4375 L 11.8125 -30.4375 L 11.8125 0 Z M 7.609375 -34.359375 C 6.367188 -34.359375 5.296875 -34.773438 4.390625 -35.609375 C 3.492188 -36.453125 3.046875 -37.460938 3.046875 -38.640625 C 3.046875 -39.816406 3.492188 -40.816406 4.390625 -41.640625 C 5.296875 -42.472656 6.367188 -42.890625 7.609375 -42.890625 C 8.859375 -42.890625 9.929688 -42.472656 10.828125 -41.640625 C 11.734375 -40.816406 12.1875 -39.816406 12.1875 -38.640625 C 12.1875 -37.460938 11.734375 -36.453125 10.828125 -35.609375 C 9.929688 -34.773438 8.859375 -34.359375 7.609375 -34.359375 Z M 7.609375 -34.359375 "/></g></g></g><g fill="#000000" fill-opacity="1"><g transform="translate(113.388557, 52.451817)"><g><path d="M 11.8125 -40.578125 L 11.8125 0 L 3.375 0 L 3.375 -40.578125 Z M 11.8125 -40.578125 "/></g></g></g><g fill="#000000" fill-opacity="1"><g transform="translate(128.564098, 52.451817)"><g><path d="M 11.8125 -40.578125 L 11.8125 0 L 3.375 0 L 3.375 -40.578125 Z M 11.8125 -40.578125 "/></g></g></g><g fill="#000000" fill-opacity="1"><g transform="translate(143.73964, 52.451817)"><g><path d="M 3.375 0 L 3.375 -30.4375 L 11.8125 -30.4375 L 11.8125 0 Z M 7.609375 -34.359375 C 6.367188 -34.359375 5.296875 -34.773438 4.390625 -35.609375 C 3.492188 -36.453125 3.046875 -37.460938 3.046875 -38.640625 C 3.046875 -39.816406 3.492188 -40.816406 4.390625 -41.640625 C 5.296875 -42.472656 6.367188 -42.890625 7.609375 -42.890625 C 8.859375 -42.890625 9.929688 -42.472656 10.828125 -41.640625 C 11.734375 -40.816406 12.1875 -39.816406 12.1875 -38.640625 C 12.1875 -37.460938 11.734375 -36.453125 10.828125 -35.609375 C 9.929688 -34.773438 8.859375 -34.359375 7.609375 -34.359375 Z M 7.609375 -34.359375 "/></g></g></g><g fill="#000000" fill-opacity="1"><g transform="translate(158.915181, 52.451817)"><g><path d="M 19.5625 -30.4375 L 19.5625 -24.09375 L 13.828125 -24.09375 L 13.828125 -9.359375 C 13.828125 -8.191406 14.09375 -7.398438 14.625 -6.984375 C 15.15625 -6.578125 15.84375 -6.375 16.6875 -6.375 C 17.082031 -6.375 17.476562 -6.410156 17.875 -6.484375 C 18.269531 -6.554688 18.570312 -6.613281 18.78125 -6.65625 L 20.109375 -0.375 C 19.691406 -0.238281 19.097656 -0.0820312 18.328125 0.09375 C 17.554688 0.269531 16.625 0.378906 15.53125 0.421875 C 12.46875 0.546875 10.007812 -0.117188 8.15625 -1.578125 C 6.300781 -3.035156 5.378906 -5.257812 5.390625 -8.25 L 5.390625 -24.09375 L 1.234375 -24.09375 L 1.234375 -30.4375 L 5.390625 -30.4375 L 5.390625 -37.71875 L 13.828125 -37.71875 L 13.828125 -30.4375 Z M 19.5625 -30.4375 "/></g></g></g></g></g><g fill="#000000" fill-opacity="1"><g transform="translate(241.083035, 211.115612)"><g><path d="M 8.046875 -11.984375 L 8.046875 0 L 2.296875 0 L 2.296875 -27.640625 L 7.875 -27.640625 L 7.875 -17.0625 L 8.125 -17.0625 C 8.601562 -18.289062 9.359375 -19.253906 10.390625 -19.953125 C 11.429688 -20.648438 12.738281 -21 14.3125 -21 C 16.476562 -21 18.21875 -20.304688 19.53125 -18.921875 C 20.84375 -17.535156 21.492188 -15.628906 21.484375 -13.203125 L 21.484375 0 L 15.734375 0 L 15.734375 -12.171875 C 15.742188 -13.453125 15.421875 -14.445312 14.765625 -15.15625 C 14.117188 -15.863281 13.207031 -16.21875 12.03125 -16.21875 C 10.863281 -16.21875 9.910156 -15.847656 9.171875 -15.109375 C 8.429688 -14.367188 8.054688 -13.328125 8.046875 -11.984375 Z M 8.046875 -11.984375 "/></g></g></g><g fill="#000000" fill-opacity="1"><g transform="translate(264.801108, 211.115612)"><g><path d="M 15.578125 -8.828125 L 15.578125 -20.734375 L 21.328125 -20.734375 L 21.328125 0 L 15.8125 0 L 15.8125 -3.765625 L 15.59375 -3.765625 C 15.125 -2.546875 14.347656 -1.566406 13.265625 -0.828125 C 12.179688 -0.0976562 10.863281 0.265625 9.3125 0.265625 C 7.226562 0.265625 5.539062 -0.425781 4.25 -1.8125 C 2.957031 -3.207031 2.304688 -5.113281 2.296875 -7.53125 L 2.296875 -20.734375 L 8.046875 -20.734375 L 8.046875 -8.5625 C 8.054688 -7.332031 8.382812 -6.363281 9.03125 -5.65625 C 9.675781 -4.945312 10.539062 -4.59375 11.625 -4.59375 C 12.664062 -4.59375 13.585938 -4.953125 14.390625 -5.671875 C 15.191406 -6.390625 15.585938 -7.441406 15.578125 -8.828125 Z M 15.578125 -8.828125 "/></g></g></g><g fill="#000000" fill-opacity="1"><g transform="translate(288.424745, 211.115612)"><g><path d="M 2.40625 0 L 2.40625 -27.640625 L 8.15625 -27.640625 L 8.15625 -17.25 L 8.328125 -17.25 C 8.585938 -17.8125 8.953125 -18.378906 9.421875 -18.953125 C 9.898438 -19.535156 10.53125 -20.019531 11.3125 -20.40625 C 12.101562 -20.800781 13.070312 -21 14.21875 -21 C 15.738281 -21 17.132812 -20.601562 18.40625 -19.8125 C 19.675781 -19.03125 20.691406 -17.847656 21.453125 -16.265625 C 22.222656 -14.691406 22.609375 -12.71875 22.609375 -10.34375 C 22.609375 -8.03125 22.234375 -6.078125 21.484375 -4.484375 C 20.742188 -2.898438 19.738281 -1.695312 18.46875 -0.875 C 17.207031 -0.0625 15.785156 0.34375 14.203125 0.34375 C 13.085938 0.34375 12.140625 0.160156 11.359375 -0.203125 C 10.585938 -0.578125 9.957031 -1.046875 9.46875 -1.609375 C 8.976562 -2.171875 8.597656 -2.738281 8.328125 -3.3125 L 8.0625 -3.3125 L 8.0625 0 Z M 8.03125 -10.359375 C 8.03125 -8.515625 8.410156 -7.03125 9.171875 -5.90625 C 9.929688 -4.789062 11.003906 -4.234375 12.390625 -4.234375 C 13.796875 -4.234375 14.875 -4.800781 15.625 -5.9375 C 16.375 -7.082031 16.75 -8.554688 16.75 -10.359375 C 16.75 -12.160156 16.375 -13.617188 15.625 -14.734375 C 14.882812 -15.859375 13.804688 -16.421875 12.390625 -16.421875 C 10.992188 -16.421875 9.914062 -15.875 9.15625 -14.78125 C 8.40625 -13.6875 8.03125 -12.210938 8.03125 -10.359375 Z M 8.03125 -10.359375 "/></g></g></g><g clip-path="url(#ec530ad95f)"><g transform="matrix(1, 0, 0, 1, 193, 189)"><g clip-path="url(#748d433e2c)"><g clip-path="url(#abd6267c0f)"><g mask="url(#2c5530df92)"><g><g clip-path="url(#8a289b21d2)"><g clip-path="url(#9d5623e8fe)"><path fill="url(#37ddcbdf58)" d="M 0.542969 0.90625 L 0.542969 81.15625 L 141.542969 81.15625 L 141.542969 0.90625 Z M 0.542969 0.90625 " fill-rule="nonzero"/></g></g></g></g></g></g></g></g></svg>