<svg xmlns="http://www.w3.org/2000/svg" xmlns:xlink="http://www.w3.org/1999/xlink" width="500" zoomAndPan="magnify" viewBox="0 0 375 374.999991" height="500" preserveAspectRatio="xMidYMid meet" version="1.0"><defs><filter x="0%" y="0%" width="100%" height="100%" id="14631fe2f3"><feColorMatrix values="0 0 0 0 1 0 0 0 0 1 0 0 0 0 1 0 0 0 1 0" color-interpolation-filters="sRGB"/></filter><g/><clipPath id="d9f0fd5905"><path d="M 40 133.800781 L 75.523438 133.800781 L 75.523438 190 L 40 190 Z M 40 133.800781 " clip-rule="nonzero"/></clipPath><clipPath id="9ce31c7d40"><path d="M 28.273438 168 L 53 168 L 53 196.050781 L 28.273438 196.050781 Z M 28.273438 168 " clip-rule="nonzero"/></clipPath><clipPath id="35ea62e917"><rect x="0" width="182" y="0" height="67"/></clipPath><clipPath id="8d915044ed"><path d="M 188.042969 189.90625 L 340.292969 189.90625 L 340.292969 270.90625 L 188.042969 270.90625 Z M 188.042969 189.90625 " clip-rule="nonzero"/></clipPath><clipPath id="805594d1b4"><path d="M 0.0429688 0.90625 L 152.292969 0.90625 L 152.292969 81.90625 L 0.0429688 81.90625 Z M 0.0429688 0.90625 " clip-rule="nonzero"/></clipPath><clipPath id="29dee39776"><path d="M 0.0429688 0.90625 L 152.292969 0.90625 L 152.292969 81.15625 L 0.0429688 81.15625 Z M 0.0429688 0.90625 " clip-rule="nonzero"/></clipPath><linearGradient x1="-40.001999" gradientTransform="matrix(0.751251, 0, 0, 0.749979, 30.096094, 30.905156)" y1="13.5" x2="162.658819" gradientUnits="userSpaceOnUse" y2="13.5" id="740e2ff653"><stop stop-opacity="1" stop-color="rgb(25.878906%, 1.568604%, 49.409485%)" offset="0"/><stop stop-opacity="1" stop-color="rgb(25.878906%, 1.568604%, 49.409485%)" offset="0.125"/><stop stop-opacity="1" stop-color="rgb(25.878906%, 1.568604%, 49.409485%)" offset="0.1875"/><stop stop-opacity="1" stop-color="rgb(25.878906%, 1.568604%, 49.409485%)" offset="0.195312"/><stop stop-opacity="1" stop-color="rgb(25.769043%, 2.01416%, 49.468994%)" offset="0.199219"/><stop stop-opacity="1" stop-color="rgb(25.65918%, 2.461243%, 49.528503%)" offset="0.203125"/><stop stop-opacity="1" stop-color="rgb(25.509644%, 3.068542%, 49.609375%)" offset="0.207031"/><stop stop-opacity="1" stop-color="rgb(25.361633%, 3.675842%, 49.690247%)" offset="0.210938"/><stop stop-opacity="1" stop-color="rgb(25.212097%, 4.283142%, 49.771118%)" offset="0.214844"/><stop stop-opacity="1" stop-color="rgb(25.062561%, 4.890442%, 49.85199%)" offset="0.21875"/><stop stop-opacity="1" stop-color="rgb(24.913025%, 5.497742%, 49.932861%)" offset="0.222656"/><stop stop-opacity="1" stop-color="rgb(24.765015%, 6.105042%, 50.013733%)" offset="0.226563"/><stop stop-opacity="1" stop-color="rgb(24.615479%, 6.712341%, 50.094604%)" offset="0.230469"/><stop stop-opacity="1" stop-color="rgb(24.465942%, 7.319641%, 50.175476%)" offset="0.234375"/><stop stop-opacity="1" stop-color="rgb(24.316406%, 7.926941%, 50.256348%)" offset="0.238281"/><stop stop-opacity="1" stop-color="rgb(24.16687%, 8.534241%, 50.338745%)" offset="0.242188"/><stop stop-opacity="1" stop-color="rgb(24.017334%, 9.141541%, 50.419617%)" offset="0.246094"/><stop stop-opacity="1" stop-color="rgb(23.869324%, 9.74884%, 50.500488%)" offset="0.25"/><stop stop-opacity="1" stop-color="rgb(23.719788%, 10.35614%, 50.58136%)" offset="0.253906"/><stop stop-opacity="1" stop-color="rgb(23.570251%, 10.96344%, 50.662231%)" offset="0.257812"/><stop stop-opacity="1" stop-color="rgb(23.420715%, 11.57074%, 50.743103%)" offset="0.261719"/><stop stop-opacity="1" stop-color="rgb(23.272705%, 12.17804%, 50.823975%)" offset="0.265625"/><stop stop-opacity="1" stop-color="rgb(23.123169%, 12.785339%, 50.904846%)" offset="0.269531"/><stop stop-opacity="1" stop-color="rgb(22.973633%, 13.392639%, 50.985718%)" offset="0.273438"/><stop stop-opacity="1" stop-color="rgb(22.824097%, 13.999939%, 51.066589%)" offset="0.277344"/><stop stop-opacity="1" stop-color="rgb(22.674561%, 14.607239%, 51.147461%)" offset="0.28125"/><stop stop-opacity="1" stop-color="rgb(22.525024%, 15.214539%, 51.228333%)" offset="0.285156"/><stop stop-opacity="1" stop-color="rgb(22.377014%, 15.821838%, 51.309204%)" offset="0.289063"/><stop stop-opacity="1" stop-color="rgb(22.227478%, 16.429138%, 51.390076%)" offset="0.292969"/><stop stop-opacity="1" stop-color="rgb(22.077942%, 17.037964%, 51.472473%)" offset="0.296875"/><stop stop-opacity="1" stop-color="rgb(21.928406%, 17.645264%, 51.553345%)" offset="0.300781"/><stop stop-opacity="1" stop-color="rgb(21.77887%, 18.252563%, 51.634216%)" offset="0.304688"/><stop stop-opacity="1" stop-color="rgb(21.629333%, 18.859863%, 51.715088%)" offset="0.308594"/><stop stop-opacity="1" stop-color="rgb(21.481323%, 19.467163%, 51.795959%)" offset="0.3125"/><stop stop-opacity="1" stop-color="rgb(21.331787%, 20.074463%, 51.876831%)" offset="0.316406"/><stop stop-opacity="1" stop-color="rgb(21.182251%, 20.681763%, 51.957703%)" offset="0.320313"/><stop stop-opacity="1" stop-color="rgb(21.032715%, 21.289062%, 52.038574%)" offset="0.324219"/><stop stop-opacity="1" stop-color="rgb(20.884705%, 21.896362%, 52.119446%)" offset="0.328125"/><stop stop-opacity="1" stop-color="rgb(20.735168%, 22.503662%, 52.200317%)" offset="0.332031"/><stop stop-opacity="1" stop-color="rgb(20.585632%, 23.110962%, 52.281189%)" offset="0.335938"/><stop stop-opacity="1" stop-color="rgb(20.436096%, 23.718262%, 52.362061%)" offset="0.339844"/><stop stop-opacity="1" stop-color="rgb(20.28656%, 24.325562%, 52.442932%)" offset="0.34375"/><stop stop-opacity="1" stop-color="rgb(20.137024%, 24.932861%, 52.523804%)" offset="0.347656"/><stop stop-opacity="1" stop-color="rgb(19.989014%, 25.540161%, 52.606201%)" offset="0.351562"/><stop stop-opacity="1" stop-color="rgb(19.839478%, 26.147461%, 52.687073%)" offset="0.355469"/><stop stop-opacity="1" stop-color="rgb(19.689941%, 26.754761%, 52.767944%)" offset="0.359375"/><stop stop-opacity="1" stop-color="rgb(19.540405%, 27.362061%, 52.848816%)" offset="0.363281"/><stop stop-opacity="1" stop-color="rgb(19.390869%, 27.96936%, 52.929688%)" offset="0.367188"/><stop stop-opacity="1" stop-color="rgb(19.241333%, 28.57666%, 53.010559%)" offset="0.371094"/><stop stop-opacity="1" stop-color="rgb(19.093323%, 29.18396%, 53.091431%)" offset="0.375"/><stop stop-opacity="1" stop-color="rgb(18.943787%, 29.79126%, 53.172302%)" offset="0.378906"/><stop stop-opacity="1" stop-color="rgb(18.79425%, 30.39856%, 53.253174%)" offset="0.382813"/><stop stop-opacity="1" stop-color="rgb(18.644714%, 31.005859%, 53.334045%)" offset="0.386719"/><stop stop-opacity="1" stop-color="rgb(18.496704%, 31.613159%, 53.414917%)" offset="0.390625"/><stop stop-opacity="1" stop-color="rgb(18.347168%, 32.220459%, 53.495789%)" offset="0.394531"/><stop stop-opacity="1" stop-color="rgb(18.197632%, 32.827759%, 53.57666%)" offset="0.398438"/><stop stop-opacity="1" stop-color="rgb(18.048096%, 33.435059%, 53.657532%)" offset="0.402344"/><stop stop-opacity="1" stop-color="rgb(17.89856%, 34.042358%, 53.738403%)" offset="0.40625"/><stop stop-opacity="1" stop-color="rgb(17.749023%, 34.649658%, 53.819275%)" offset="0.410156"/><stop stop-opacity="1" stop-color="rgb(17.601013%, 35.256958%, 53.901672%)" offset="0.414062"/><stop stop-opacity="1" stop-color="rgb(17.451477%, 35.864258%, 53.982544%)" offset="0.417969"/><stop stop-opacity="1" stop-color="rgb(17.301941%, 36.471558%, 54.063416%)" offset="0.421875"/><stop stop-opacity="1" stop-color="rgb(17.152405%, 37.078857%, 54.144287%)" offset="0.425781"/><stop stop-opacity="1" stop-color="rgb(17.002869%, 37.686157%, 54.225159%)" offset="0.429688"/><stop stop-opacity="1" stop-color="rgb(16.853333%, 38.293457%, 54.30603%)" offset="0.433594"/><stop stop-opacity="1" stop-color="rgb(16.705322%, 38.900757%, 54.386902%)" offset="0.4375"/><stop stop-opacity="1" stop-color="rgb(16.555786%, 39.508057%, 54.467773%)" offset="0.441406"/><stop stop-opacity="1" stop-color="rgb(16.40625%, 40.115356%, 54.548645%)" offset="0.445313"/><stop stop-opacity="1" stop-color="rgb(16.256714%, 40.722656%, 54.629517%)" offset="0.449219"/><stop stop-opacity="1" stop-color="rgb(16.108704%, 41.329956%, 54.710388%)" offset="0.453125"/><stop stop-opacity="1" stop-color="rgb(15.959167%, 41.937256%, 54.79126%)" offset="0.457031"/><stop stop-opacity="1" stop-color="rgb(15.809631%, 42.544556%, 54.872131%)" offset="0.460938"/><stop stop-opacity="1" stop-color="rgb(15.660095%, 43.151855%, 54.953003%)" offset="0.464844"/><stop stop-opacity="1" stop-color="rgb(15.510559%, 43.759155%, 55.0354%)" offset="0.46875"/><stop stop-opacity="1" stop-color="rgb(15.361023%, 44.366455%, 55.116272%)" offset="0.472656"/><stop stop-opacity="1" stop-color="rgb(15.213013%, 44.973755%, 55.197144%)" offset="0.476562"/><stop stop-opacity="1" stop-color="rgb(15.063477%, 45.581055%, 55.278015%)" offset="0.480469"/><stop stop-opacity="1" stop-color="rgb(14.91394%, 46.188354%, 55.358887%)" offset="0.484375"/><stop stop-opacity="1" stop-color="rgb(14.764404%, 46.795654%, 55.439758%)" offset="0.488281"/><stop stop-opacity="1" stop-color="rgb(14.616394%, 47.402954%, 55.52063%)" offset="0.492188"/><stop stop-opacity="1" stop-color="rgb(14.466858%, 48.010254%, 55.601501%)" offset="0.496094"/><stop stop-opacity="1" stop-color="rgb(14.317322%, 48.617554%, 55.682373%)" offset="0.5"/><stop stop-opacity="1" stop-color="rgb(14.167786%, 49.224854%, 55.763245%)" offset="0.503906"/><stop stop-opacity="1" stop-color="rgb(14.01825%, 49.832153%, 55.844116%)" offset="0.507812"/><stop stop-opacity="1" stop-color="rgb(13.868713%, 50.439453%, 55.924988%)" offset="0.511719"/><stop stop-opacity="1" stop-color="rgb(13.720703%, 51.046753%, 56.005859%)" offset="0.515625"/><stop stop-opacity="1" stop-color="rgb(13.571167%, 51.654053%, 56.086731%)" offset="0.519531"/><stop stop-opacity="1" stop-color="rgb(13.421631%, 52.261353%, 56.169128%)" offset="0.523438"/><stop stop-opacity="1" stop-color="rgb(13.272095%, 52.868652%, 56.25%)" offset="0.527344"/><stop stop-opacity="1" stop-color="rgb(13.122559%, 53.475952%, 56.330872%)" offset="0.53125"/><stop stop-opacity="1" stop-color="rgb(12.973022%, 54.083252%, 56.411743%)" offset="0.535156"/><stop stop-opacity="1" stop-color="rgb(12.825012%, 54.690552%, 56.492615%)" offset="0.539062"/><stop stop-opacity="1" stop-color="rgb(12.675476%, 55.297852%, 56.573486%)" offset="0.542969"/><stop stop-opacity="1" stop-color="rgb(12.52594%, 55.905151%, 56.654358%)" offset="0.546875"/><stop stop-opacity="1" stop-color="rgb(12.376404%, 56.512451%, 56.735229%)" offset="0.550781"/><stop stop-opacity="1" stop-color="rgb(12.228394%, 57.119751%, 56.816101%)" offset="0.554688"/><stop stop-opacity="1" stop-color="rgb(12.078857%, 57.727051%, 56.896973%)" offset="0.558594"/><stop stop-opacity="1" stop-color="rgb(11.929321%, 58.334351%, 56.977844%)" offset="0.5625"/><stop stop-opacity="1" stop-color="rgb(11.779785%, 58.94165%, 57.058716%)" offset="0.566406"/><stop stop-opacity="1" stop-color="rgb(11.630249%, 59.54895%, 57.139587%)" offset="0.570312"/><stop stop-opacity="1" stop-color="rgb(11.480713%, 60.15625%, 57.220459%)" offset="0.574219"/><stop stop-opacity="1" stop-color="rgb(11.332703%, 60.76355%, 57.302856%)" offset="0.578125"/><stop stop-opacity="1" stop-color="rgb(11.183167%, 61.37085%, 57.383728%)" offset="0.582031"/><stop stop-opacity="1" stop-color="rgb(11.03363%, 61.978149%, 57.4646%)" offset="0.585938"/><stop stop-opacity="1" stop-color="rgb(10.884094%, 62.585449%, 57.545471%)" offset="0.589844"/><stop stop-opacity="1" stop-color="rgb(10.734558%, 63.192749%, 57.626343%)" offset="0.59375"/><stop stop-opacity="1" stop-color="rgb(10.585022%, 63.800049%, 57.707214%)" offset="0.597656"/><stop stop-opacity="1" stop-color="rgb(10.437012%, 64.407349%, 57.788086%)" offset="0.601562"/><stop stop-opacity="1" stop-color="rgb(10.287476%, 65.014648%, 57.868958%)" offset="0.605469"/><stop stop-opacity="1" stop-color="rgb(10.137939%, 65.621948%, 57.949829%)" offset="0.609375"/><stop stop-opacity="1" stop-color="rgb(9.988403%, 66.229248%, 58.030701%)" offset="0.613281"/><stop stop-opacity="1" stop-color="rgb(9.840393%, 66.836548%, 58.111572%)" offset="0.617188"/><stop stop-opacity="1" stop-color="rgb(9.690857%, 67.443848%, 58.192444%)" offset="0.621094"/><stop stop-opacity="1" stop-color="rgb(9.541321%, 68.051147%, 58.273315%)" offset="0.625"/><stop stop-opacity="1" stop-color="rgb(9.391785%, 68.658447%, 58.354187%)" offset="0.628906"/><stop stop-opacity="1" stop-color="rgb(9.242249%, 69.265747%, 58.436584%)" offset="0.632812"/><stop stop-opacity="1" stop-color="rgb(9.092712%, 69.873047%, 58.517456%)" offset="0.636719"/><stop stop-opacity="1" stop-color="rgb(8.944702%, 70.480347%, 58.598328%)" offset="0.640625"/><stop stop-opacity="1" stop-color="rgb(8.795166%, 71.087646%, 58.679199%)" offset="0.644531"/><stop stop-opacity="1" stop-color="rgb(8.64563%, 71.694946%, 58.760071%)" offset="0.648438"/><stop stop-opacity="1" stop-color="rgb(8.496094%, 72.302246%, 58.840942%)" offset="0.652344"/><stop stop-opacity="1" stop-color="rgb(8.348083%, 72.909546%, 58.921814%)" offset="0.65625"/><stop stop-opacity="1" stop-color="rgb(8.198547%, 73.516846%, 59.002686%)" offset="0.660156"/><stop stop-opacity="1" stop-color="rgb(8.049011%, 74.124146%, 59.083557%)" offset="0.664062"/><stop stop-opacity="1" stop-color="rgb(7.899475%, 74.731445%, 59.164429%)" offset="0.667969"/><stop stop-opacity="1" stop-color="rgb(7.749939%, 75.338745%, 59.2453%)" offset="0.671875"/><stop stop-opacity="1" stop-color="rgb(7.600403%, 75.946045%, 59.326172%)" offset="0.675781"/><stop stop-opacity="1" stop-color="rgb(7.452393%, 76.553345%, 59.407043%)" offset="0.679688"/><stop stop-opacity="1" stop-color="rgb(7.302856%, 77.160645%, 59.487915%)" offset="0.683594"/><stop stop-opacity="1" stop-color="rgb(7.15332%, 77.767944%, 59.570312%)" offset="0.6875"/><stop stop-opacity="1" stop-color="rgb(7.003784%, 78.375244%, 59.651184%)" offset="0.691406"/><stop stop-opacity="1" stop-color="rgb(6.854248%, 78.982544%, 59.732056%)" offset="0.695312"/><stop stop-opacity="1" stop-color="rgb(6.704712%, 79.589844%, 59.812927%)" offset="0.699219"/><stop stop-opacity="1" stop-color="rgb(6.556702%, 80.197144%, 59.893799%)" offset="0.703125"/><stop stop-opacity="1" stop-color="rgb(6.407166%, 80.804443%, 59.97467%)" offset="0.707031"/><stop stop-opacity="1" stop-color="rgb(6.257629%, 81.411743%, 60.055542%)" offset="0.710938"/><stop stop-opacity="1" stop-color="rgb(6.108093%, 82.019043%, 60.136414%)" offset="0.714844"/><stop stop-opacity="1" stop-color="rgb(5.960083%, 82.626343%, 60.217285%)" offset="0.71875"/><stop stop-opacity="1" stop-color="rgb(5.810547%, 83.233643%, 60.298157%)" offset="0.722656"/><stop stop-opacity="1" stop-color="rgb(5.661011%, 83.840942%, 60.379028%)" offset="0.726563"/><stop stop-opacity="1" stop-color="rgb(5.511475%, 84.448242%, 60.4599%)" offset="0.730469"/><stop stop-opacity="1" stop-color="rgb(5.361938%, 85.055542%, 60.540771%)" offset="0.734375"/><stop stop-opacity="1" stop-color="rgb(5.212402%, 85.662842%, 60.621643%)" offset="0.738281"/><stop stop-opacity="1" stop-color="rgb(5.064392%, 86.270142%, 60.704041%)" offset="0.742188"/><stop stop-opacity="1" stop-color="rgb(4.914856%, 86.877441%, 60.784912%)" offset="0.746094"/><stop stop-opacity="1" stop-color="rgb(4.76532%, 87.484741%, 60.865784%)" offset="0.75"/><stop stop-opacity="1" stop-color="rgb(4.615784%, 88.092041%, 60.946655%)" offset="0.753906"/><stop stop-opacity="1" stop-color="rgb(4.466248%, 88.699341%, 61.027527%)" offset="0.757812"/><stop stop-opacity="1" stop-color="rgb(4.316711%, 89.306641%, 61.108398%)" offset="0.761719"/><stop stop-opacity="1" stop-color="rgb(4.168701%, 89.91394%, 61.18927%)" offset="0.765625"/><stop stop-opacity="1" stop-color="rgb(4.019165%, 90.52124%, 61.270142%)" offset="0.769531"/><stop stop-opacity="1" stop-color="rgb(3.869629%, 91.12854%, 61.351013%)" offset="0.773438"/><stop stop-opacity="1" stop-color="rgb(3.720093%, 91.73584%, 61.431885%)" offset="0.777344"/><stop stop-opacity="1" stop-color="rgb(3.572083%, 92.34314%, 61.512756%)" offset="0.78125"/><stop stop-opacity="1" stop-color="rgb(3.422546%, 92.950439%, 61.593628%)" offset="0.785156"/><stop stop-opacity="1" stop-color="rgb(3.27301%, 93.557739%, 61.6745%)" offset="0.789062"/><stop stop-opacity="1" stop-color="rgb(3.123474%, 94.165039%, 61.755371%)" offset="0.792969"/><stop stop-opacity="1" stop-color="rgb(2.973938%, 94.772339%, 61.837769%)" offset="0.796875"/><stop stop-opacity="1" stop-color="rgb(2.861023%, 95.230103%, 61.898804%)" offset="0.800781"/><stop stop-opacity="1" stop-color="rgb(2.749634%, 95.689392%, 61.959839%)" offset="0.804688"/><stop stop-opacity="1" stop-color="rgb(2.749634%, 95.689392%, 61.959839%)" offset="0.8125"/><stop stop-opacity="1" stop-color="rgb(2.749634%, 95.689392%, 61.959839%)" offset="0.875"/><stop stop-opacity="1" stop-color="rgb(2.749634%, 95.689392%, 61.959839%)" offset="1"/></linearGradient><clipPath id="6de5564026"><rect x="0" width="153" y="0" height="82"/></clipPath><clipPath id="3d3b6446e0"><path d="M 0.0429688 0.90625 L 152.292969 0.90625 L 152.292969 81.90625 L 0.0429688 81.90625 Z M 0.0429688 0.90625 " clip-rule="nonzero"/></clipPath><clipPath id="715c9d2a7d"><rect x="0" width="153" y="0" height="82"/></clipPath><clipPath id="152fffdf19"><rect x="0" width="153" y="0" height="82"/></clipPath><mask id="64d42cede9"><g filter="url(#14631fe2f3)"><g transform="matrix(1, 0, 0, 1, 0.000000000000028422, 0)"><g clip-path="url(#152fffdf19)"><g clip-path="url(#3d3b6446e0)"><g transform="matrix(1, 0, 0, 1, 0.000000000000028422, 0)"><g clip-path="url(#715c9d2a7d)"><g fill="#000000" fill-opacity="1"><g transform="translate(30.043726, 46.654496)"><g><path d="M 5.703125 -6.515625 L 3.765625 -6.515625 L 3.765625 0 L 1.53125 0 L 1.53125 -6.515625 L 0.296875 -6.515625 L 0.296875 -7.59375 L 1.53125 -8.1875 L 1.53125 -8.796875 C 1.53125 -9.722656 1.757812 -10.398438 2.21875 -10.828125 C 2.675781 -11.265625 3.410156 -11.484375 4.421875 -11.484375 C 5.191406 -11.484375 5.878906 -11.367188 6.484375 -11.140625 L 5.90625 -9.5 C 5.457031 -9.632812 5.046875 -9.703125 4.671875 -9.703125 C 4.347656 -9.703125 4.113281 -9.609375 3.96875 -9.421875 C 3.832031 -9.234375 3.765625 -8.992188 3.765625 -8.703125 L 3.765625 -8.1875 L 5.703125 -8.1875 Z M 5.703125 -6.515625 "/></g></g><g transform="translate(35.851831, 46.654496)"><g><path d="M 2.953125 -4.109375 C 2.953125 -3.296875 3.082031 -2.679688 3.34375 -2.265625 C 3.613281 -1.847656 4.050781 -1.640625 4.65625 -1.640625 C 5.25 -1.640625 5.675781 -1.847656 5.9375 -2.265625 C 6.195312 -2.679688 6.328125 -3.296875 6.328125 -4.109375 C 6.328125 -4.921875 6.191406 -5.53125 5.921875 -5.9375 C 5.660156 -6.34375 5.234375 -6.546875 4.640625 -6.546875 C 4.046875 -6.546875 3.613281 -6.34375 3.34375 -5.9375 C 3.082031 -5.53125 2.953125 -4.921875 2.953125 -4.109375 Z M 8.609375 -4.109375 C 8.609375 -2.773438 8.253906 -1.734375 7.546875 -0.984375 C 6.847656 -0.234375 5.875 0.140625 4.625 0.140625 C 3.832031 0.140625 3.132812 -0.03125 2.53125 -0.375 C 1.9375 -0.71875 1.476562 -1.207031 1.15625 -1.84375 C 0.832031 -2.488281 0.671875 -3.242188 0.671875 -4.109375 C 0.671875 -5.441406 1.019531 -6.476562 1.71875 -7.21875 C 2.414062 -7.96875 3.398438 -8.34375 4.671875 -8.34375 C 5.453125 -8.34375 6.140625 -8.171875 6.734375 -7.828125 C 7.335938 -7.484375 7.800781 -6.988281 8.125 -6.34375 C 8.445312 -5.707031 8.609375 -4.960938 8.609375 -4.109375 Z M 8.609375 -4.109375 "/></g></g><g transform="translate(45.138939, 46.654496)"><g><path d="M 5.75 -8.34375 C 6.050781 -8.34375 6.300781 -8.320312 6.5 -8.28125 L 6.328125 -6.1875 C 6.148438 -6.226562 5.929688 -6.25 5.671875 -6.25 C 4.953125 -6.25 4.394531 -6.066406 4 -5.703125 C 3.601562 -5.335938 3.40625 -4.828125 3.40625 -4.171875 L 3.40625 0 L 1.171875 0 L 1.171875 -8.1875 L 2.859375 -8.1875 L 3.1875 -6.8125 L 3.296875 -6.8125 C 3.554688 -7.269531 3.898438 -7.640625 4.328125 -7.921875 C 4.765625 -8.203125 5.238281 -8.34375 5.75 -8.34375 Z M 5.75 -8.34375 "/></g></g><g transform="translate(51.950462, 46.654496)"><g/></g><g transform="translate(55.846947, 46.654496)"><g><path d="M 6.890625 -2.4375 C 6.890625 -1.59375 6.597656 -0.953125 6.015625 -0.515625 C 5.429688 -0.078125 4.554688 0.140625 3.390625 0.140625 C 2.796875 0.140625 2.285156 0.0976562 1.859375 0.015625 C 1.441406 -0.0546875 1.050781 -0.171875 0.6875 -0.328125 L 0.6875 -2.171875 C 1.101562 -1.972656 1.570312 -1.804688 2.09375 -1.671875 C 2.613281 -1.546875 3.070312 -1.484375 3.46875 -1.484375 C 4.28125 -1.484375 4.6875 -1.71875 4.6875 -2.1875 C 4.6875 -2.363281 4.628906 -2.503906 4.515625 -2.609375 C 4.410156 -2.722656 4.222656 -2.847656 3.953125 -2.984375 C 3.691406 -3.128906 3.34375 -3.296875 2.90625 -3.484375 C 2.28125 -3.742188 1.816406 -3.984375 1.515625 -4.203125 C 1.222656 -4.429688 1.007812 -4.691406 0.875 -4.984375 C 0.738281 -5.273438 0.671875 -5.632812 0.671875 -6.0625 C 0.671875 -6.789062 0.953125 -7.351562 1.515625 -7.75 C 2.078125 -8.144531 2.878906 -8.34375 3.921875 -8.34375 C 4.898438 -8.34375 5.859375 -8.128906 6.796875 -7.703125 L 6.125 -6.09375 C 5.71875 -6.257812 5.332031 -6.398438 4.96875 -6.515625 C 4.613281 -6.628906 4.25 -6.6875 3.875 -6.6875 C 3.21875 -6.6875 2.890625 -6.507812 2.890625 -6.15625 C 2.890625 -5.957031 2.992188 -5.78125 3.203125 -5.625 C 3.421875 -5.476562 3.890625 -5.265625 4.609375 -4.984375 C 5.242188 -4.722656 5.707031 -4.476562 6 -4.25 C 6.300781 -4.03125 6.523438 -3.773438 6.671875 -3.484375 C 6.816406 -3.191406 6.890625 -2.84375 6.890625 -2.4375 Z M 6.890625 -2.4375 "/></g></g><g transform="translate(63.303001, 46.654496)"><g><path d="M 4.625 -1.640625 C 5.007812 -1.640625 5.476562 -1.722656 6.03125 -1.890625 L 6.03125 -0.234375 C 5.46875 0.015625 4.785156 0.140625 3.984375 0.140625 C 3.085938 0.140625 2.429688 -0.0820312 2.015625 -0.53125 C 1.609375 -0.976562 1.40625 -1.65625 1.40625 -2.5625 L 1.40625 -6.515625 L 0.34375 -6.515625 L 0.34375 -7.453125 L 1.578125 -8.203125 L 2.21875 -9.9375 L 3.640625 -9.9375 L 3.640625 -8.1875 L 5.9375 -8.1875 L 5.9375 -6.515625 L 3.640625 -6.515625 L 3.640625 -2.5625 C 3.640625 -2.25 3.726562 -2.015625 3.90625 -1.859375 C 4.09375 -1.710938 4.332031 -1.640625 4.625 -1.640625 Z M 4.625 -1.640625 "/></g></g><g transform="translate(69.814231, 46.654496)"><g><path d="M 6.96875 0 L 6.671875 -1.046875 L 6.5625 -1.046875 C 6.320312 -0.660156 5.976562 -0.363281 5.53125 -0.15625 C 5.09375 0.0390625 4.59375 0.140625 4.03125 0.140625 C 3.070312 0.140625 2.347656 -0.113281 1.859375 -0.625 C 1.367188 -1.144531 1.125 -1.882812 1.125 -2.84375 L 1.125 -8.1875 L 3.359375 -8.1875 L 3.359375 -3.40625 C 3.359375 -2.8125 3.460938 -2.367188 3.671875 -2.078125 C 3.878906 -1.785156 4.21875 -1.640625 4.6875 -1.640625 C 5.3125 -1.640625 5.757812 -1.847656 6.03125 -2.265625 C 6.3125 -2.679688 6.453125 -3.375 6.453125 -4.34375 L 6.453125 -8.1875 L 8.6875 -8.1875 L 8.6875 0 Z M 6.96875 0 "/></g></g><g transform="translate(79.672629, 46.654496)"><g><path d="M 3.765625 0.140625 C 2.804688 0.140625 2.050781 -0.226562 1.5 -0.96875 C 0.945312 -1.71875 0.671875 -2.753906 0.671875 -4.078125 C 0.671875 -5.421875 0.945312 -6.46875 1.5 -7.21875 C 2.0625 -7.96875 2.835938 -8.34375 3.828125 -8.34375 C 4.859375 -8.34375 5.644531 -7.941406 6.1875 -7.140625 L 6.25 -7.140625 C 6.144531 -7.753906 6.09375 -8.300781 6.09375 -8.78125 L 6.09375 -11.390625 L 8.328125 -11.390625 L 8.328125 0 L 6.609375 0 L 6.1875 -1.0625 L 6.09375 -1.0625 C 5.582031 -0.257812 4.804688 0.140625 3.765625 0.140625 Z M 4.546875 -1.640625 C 5.117188 -1.640625 5.535156 -1.800781 5.796875 -2.125 C 6.066406 -2.457031 6.210938 -3.023438 6.234375 -3.828125 L 6.234375 -4.0625 C 6.234375 -4.945312 6.097656 -5.578125 5.828125 -5.953125 C 5.554688 -6.335938 5.117188 -6.53125 4.515625 -6.53125 C 4.015625 -6.53125 3.625 -6.316406 3.34375 -5.890625 C 3.070312 -5.472656 2.9375 -4.859375 2.9375 -4.046875 C 2.9375 -3.242188 3.070312 -2.640625 3.34375 -2.234375 C 3.625 -1.835938 4.023438 -1.640625 4.546875 -1.640625 Z M 4.546875 -1.640625 "/></g></g><g transform="translate(89.164815, 46.654496)"><g><path d="M 6.375 0 L 5.9375 -1.109375 L 5.875 -1.109375 C 5.5 -0.640625 5.113281 -0.3125 4.71875 -0.125 C 4.320312 0.0507812 3.804688 0.140625 3.171875 0.140625 C 2.378906 0.140625 1.753906 -0.0820312 1.296875 -0.53125 C 0.847656 -0.976562 0.625 -1.617188 0.625 -2.453125 C 0.625 -3.316406 0.925781 -3.953125 1.53125 -4.359375 C 2.144531 -4.773438 3.066406 -5.003906 4.296875 -5.046875 L 5.71875 -5.09375 L 5.71875 -5.453125 C 5.71875 -6.285156 5.289062 -6.703125 4.4375 -6.703125 C 3.78125 -6.703125 3.007812 -6.503906 2.125 -6.109375 L 1.390625 -7.625 C 2.335938 -8.113281 3.382812 -8.359375 4.53125 -8.359375 C 5.625 -8.359375 6.460938 -8.117188 7.046875 -7.640625 C 7.640625 -7.160156 7.9375 -6.429688 7.9375 -5.453125 L 7.9375 0 Z M 5.71875 -3.796875 L 4.84375 -3.765625 C 4.195312 -3.742188 3.710938 -3.625 3.390625 -3.40625 C 3.078125 -3.195312 2.921875 -2.875 2.921875 -2.4375 C 2.921875 -1.800781 3.28125 -1.484375 4 -1.484375 C 4.519531 -1.484375 4.9375 -1.628906 5.25 -1.921875 C 5.5625 -2.222656 5.71875 -2.625 5.71875 -3.125 Z M 5.71875 -3.796875 "/></g></g><g transform="translate(98.224873, 46.654496)"><g><path d="M 8.734375 0 L 6.5 0 L 6.5 -4.78125 C 6.5 -5.375 6.390625 -5.816406 6.171875 -6.109375 C 5.960938 -6.410156 5.628906 -6.5625 5.171875 -6.5625 C 4.546875 -6.5625 4.09375 -6.347656 3.8125 -5.921875 C 3.539062 -5.503906 3.40625 -4.816406 3.40625 -3.859375 L 3.40625 0 L 1.171875 0 L 1.171875 -8.1875 L 2.875 -8.1875 L 3.171875 -7.140625 L 3.296875 -7.140625 C 3.546875 -7.535156 3.890625 -7.832031 4.328125 -8.03125 C 4.765625 -8.238281 5.265625 -8.34375 5.828125 -8.34375 C 6.773438 -8.34375 7.492188 -8.082031 7.984375 -7.5625 C 8.484375 -7.050781 8.734375 -6.3125 8.734375 -5.34375 Z M 8.734375 0 "/></g></g><g transform="translate(108.083271, 46.654496)"><g><path d="M 4.625 -1.640625 C 5.007812 -1.640625 5.476562 -1.722656 6.03125 -1.890625 L 6.03125 -0.234375 C 5.46875 0.015625 4.785156 0.140625 3.984375 0.140625 C 3.085938 0.140625 2.429688 -0.0820312 2.015625 -0.53125 C 1.609375 -0.976562 1.40625 -1.65625 1.40625 -2.5625 L 1.40625 -6.515625 L 0.34375 -6.515625 L 0.34375 -7.453125 L 1.578125 -8.203125 L 2.21875 -9.9375 L 3.640625 -9.9375 L 3.640625 -8.1875 L 5.9375 -8.1875 L 5.9375 -6.515625 L 3.640625 -6.515625 L 3.640625 -2.5625 C 3.640625 -2.25 3.726562 -2.015625 3.90625 -1.859375 C 4.09375 -1.710938 4.332031 -1.640625 4.625 -1.640625 Z M 4.625 -1.640625 "/></g></g><g transform="translate(114.594501, 46.654496)"><g><path d="M 6.890625 -2.4375 C 6.890625 -1.59375 6.597656 -0.953125 6.015625 -0.515625 C 5.429688 -0.078125 4.554688 0.140625 3.390625 0.140625 C 2.796875 0.140625 2.285156 0.0976562 1.859375 0.015625 C 1.441406 -0.0546875 1.050781 -0.171875 0.6875 -0.328125 L 0.6875 -2.171875 C 1.101562 -1.972656 1.570312 -1.804688 2.09375 -1.671875 C 2.613281 -1.546875 3.070312 -1.484375 3.46875 -1.484375 C 4.28125 -1.484375 4.6875 -1.71875 4.6875 -2.1875 C 4.6875 -2.363281 4.628906 -2.503906 4.515625 -2.609375 C 4.410156 -2.722656 4.222656 -2.847656 3.953125 -2.984375 C 3.691406 -3.128906 3.34375 -3.296875 2.90625 -3.484375 C 2.28125 -3.742188 1.816406 -3.984375 1.515625 -4.203125 C 1.222656 -4.429688 1.007812 -4.691406 0.875 -4.984375 C 0.738281 -5.273438 0.671875 -5.632812 0.671875 -6.0625 C 0.671875 -6.789062 0.953125 -7.351562 1.515625 -7.75 C 2.078125 -8.144531 2.878906 -8.34375 3.921875 -8.34375 C 4.898438 -8.34375 5.859375 -8.128906 6.796875 -7.703125 L 6.125 -6.09375 C 5.71875 -6.257812 5.332031 -6.398438 4.96875 -6.515625 C 4.613281 -6.628906 4.25 -6.6875 3.875 -6.6875 C 3.21875 -6.6875 2.890625 -6.507812 2.890625 -6.15625 C 2.890625 -5.957031 2.992188 -5.78125 3.203125 -5.625 C 3.421875 -5.476562 3.890625 -5.265625 4.609375 -4.984375 C 5.242188 -4.722656 5.707031 -4.476562 6 -4.25 C 6.300781 -4.03125 6.523438 -3.773438 6.671875 -3.484375 C 6.816406 -3.191406 6.890625 -2.84375 6.890625 -2.4375 Z M 6.890625 -2.4375 "/></g></g></g></g></g></g></g></g></g></mask><clipPath id="421ef08fbf"><path d="M 0.0429688 0.90625 L 152.292969 0.90625 L 152.292969 81.15625 L 0.0429688 81.15625 Z M 0.0429688 0.90625 " clip-rule="nonzero"/></clipPath><clipPath id="9f93f61016"><rect x="0" width="153" y="0" height="82"/></clipPath><clipPath id="80de9f68d2"><rect x="0" width="153" y="0" height="82"/></clipPath></defs><g clip-path="url(#d9f0fd5905)"><path fill="#000000" d="M 53.078125 189.222656 L 52.285156 187.710938 C 50.855469 185.277344 48.824219 183.589844 46.429688 182.160156 C 44.863281 181.226562 43.058594 180.558594 41.550781 179.621094 C 41.167969 179.382812 40.917969 179.210938 40.800781 178.730469 C 40.953125 171.277344 40.480469 163.640625 40.765625 156.203125 C 40.976562 150.660156 42.890625 146.347656 47.269531 142.925781 C 47.855469 140.328125 48.832031 137.726562 50.367188 135.546875 C 50.75 134.996094 51.78125 133.410156 52.53125 133.890625 C 53.582031 134.5625 54.351562 138.109375 54.71875 139.328125 C 54.835938 139.359375 54.847656 139.296875 54.914062 139.25 C 56.027344 138.476562 57.160156 136.738281 58.304688 136.003906 C 58.742188 135.726562 59.261719 135.503906 59.488281 136.140625 C 59.914062 137.332031 59.410156 139.144531 59.558594 140.378906 C 59.675781 141.378906 60.230469 141.257812 60.925781 141.585938 C 62.6875 142.421875 63.464844 143.632812 64.976562 144.640625 C 66.78125 145.84375 68.953125 146.378906 71.0625 146.75 C 72.246094 146.953125 73.941406 146.984375 75.011719 147.324219 C 76.246094 147.714844 74.859375 149.292969 74.390625 149.824219 C 73.1875 151.207031 71.816406 152.058594 69.953125 152.175781 C 66.183594 152.414062 62.085938 151.824219 58.347656 152.339844 C 55.632812 152.710938 53.417969 154.4375 53.167969 157.3125 C 53.132812 157.699219 53.011719 158.410156 53.511719 158.433594 L 70.652344 158.433594 C 71.269531 158.4375 71.5 158.847656 71.550781 159.414062 C 71.847656 162.808594 70.542969 167.808594 66.519531 168.152344 L 53.660156 168.152344 C 53.46875 168.09375 53.078125 168.328125 53.078125 168.503906 Z M 58.242188 144.910156 C 57.707031 145.476562 58.855469 146.191406 59.292969 146.359375 C 60.121094 146.683594 63.101562 147.007812 61.726562 145.402344 C 61.21875 144.808594 60.183594 144.539062 59.425781 144.574219 C 59.1875 144.585938 58.390625 144.753906 58.242188 144.910156 Z M 58.242188 144.910156 " fill-opacity="1" fill-rule="nonzero"/></g><g clip-path="url(#9ce31c7d40)"><path fill="#000000" d="M 36.699219 168.089844 C 37.765625 167.996094 36.933594 169.632812 36.796875 170.15625 C 36.300781 172.125 36.125 174.058594 36.597656 176.0625 C 37.722656 180.839844 42.433594 181.78125 46.027344 184.050781 C 49.5 186.242188 51.914062 189.566406 52.144531 193.800781 C 52.199219 194.796875 52.347656 195.691406 51.160156 195.871094 C 49.300781 196.148438 46.023438 196.042969 44.078125 195.957031 C 39.34375 195.746094 34.710938 194.296875 31.570312 190.589844 C 26.527344 184.632812 27.394531 174.917969 33.402344 169.957031 C 34.109375 169.371094 35.8125 168.167969 36.695312 168.089844 Z M 36.699219 168.089844 " fill-opacity="1" fill-rule="nonzero"/></g><g transform="matrix(1, 0, 0, 1, 60, 164)"><g clip-path="url(#35ea62e917)"><g fill="#000000" fill-opacity="1"><g transform="translate(0.820159, 52.451788)"><g><path d="M 3.53125 0 L 3.53125 -40.578125 L 30.390625 -40.578125 L 30.390625 -33.5 L 12.109375 -33.5 L 12.109375 -23.84375 L 28.609375 -23.84375 L 28.609375 -16.765625 L 12.109375 -16.765625 L 12.109375 0 Z M 3.53125 0 "/></g></g></g><g fill="#000000" fill-opacity="1"><g transform="translate(33.073084, 52.451788)"><g><path d="M 12.046875 0.578125 C 9.140625 0.578125 6.726562 -0.179688 4.8125 -1.703125 C 2.894531 -3.222656 1.9375 -5.488281 1.9375 -8.5 C 1.9375 -10.769531 2.472656 -12.550781 3.546875 -13.84375 C 4.617188 -15.144531 6.019531 -16.09375 7.75 -16.6875 C 9.488281 -17.289062 11.363281 -17.6875 13.375 -17.875 C 16.019531 -18.132812 17.910156 -18.410156 19.046875 -18.703125 C 20.179688 -18.992188 20.75 -19.628906 20.75 -20.609375 L 20.75 -20.71875 C 20.75 -21.976562 20.351562 -22.953125 19.5625 -23.640625 C 18.78125 -24.328125 17.671875 -24.671875 16.234375 -24.671875 C 14.710938 -24.671875 13.5 -24.335938 12.59375 -23.671875 C 11.695312 -23.015625 11.101562 -22.175781 10.8125 -21.15625 L 3.015625 -21.796875 C 3.597656 -24.566406 5.039062 -26.765625 7.34375 -28.390625 C 9.644531 -30.015625 12.617188 -30.828125 16.265625 -30.828125 C 18.523438 -30.828125 20.640625 -30.46875 22.609375 -29.75 C 24.578125 -29.039062 26.164062 -27.929688 27.375 -26.421875 C 28.582031 -24.910156 29.1875 -22.945312 29.1875 -20.53125 L 29.1875 0 L 21.1875 0 L 21.1875 -4.21875 L 20.9375 -4.21875 C 20.195312 -2.800781 19.09375 -1.644531 17.625 -0.75 C 16.15625 0.132812 14.296875 0.578125 12.046875 0.578125 Z M 14.46875 -5.25 C 16.3125 -5.25 17.828125 -5.785156 19.015625 -6.859375 C 20.210938 -7.941406 20.8125 -9.28125 20.8125 -10.875 L 20.8125 -14.109375 C 20.476562 -13.878906 19.960938 -13.675781 19.265625 -13.5 C 18.578125 -13.332031 17.835938 -13.1875 17.046875 -13.0625 C 16.265625 -12.9375 15.5625 -12.828125 14.9375 -12.734375 C 13.457031 -12.523438 12.265625 -12.109375 11.359375 -11.484375 C 10.453125 -10.867188 10 -9.96875 10 -8.78125 C 10 -7.613281 10.414062 -6.734375 11.25 -6.140625 C 12.09375 -5.546875 13.164062 -5.25 14.46875 -5.25 Z M 14.46875 -5.25 "/></g></g></g><g fill="#000000" fill-opacity="1"><g transform="translate(65.444935, 52.451788)"><g><path d="M 17.125 0.59375 C 14 0.59375 11.316406 -0.0664062 9.078125 -1.390625 C 6.835938 -2.722656 5.117188 -4.570312 3.921875 -6.9375 C 2.734375 -9.300781 2.140625 -12.019531 2.140625 -15.09375 C 2.140625 -18.21875 2.742188 -20.957031 3.953125 -23.3125 C 5.160156 -25.664062 6.878906 -27.503906 9.109375 -28.828125 C 11.347656 -30.160156 14.003906 -30.828125 17.078125 -30.828125 C 19.734375 -30.828125 22.0625 -30.34375 24.0625 -29.375 C 26.0625 -28.414062 27.640625 -27.0625 28.796875 -25.3125 C 29.953125 -23.570312 30.59375 -21.53125 30.71875 -19.1875 L 22.75 -19.1875 C 22.519531 -20.695312 21.925781 -21.914062 20.96875 -22.84375 C 20.007812 -23.78125 18.757812 -24.25 17.21875 -24.25 C 15.257812 -24.25 13.6875 -23.460938 12.5 -21.890625 C 11.3125 -20.316406 10.71875 -18.09375 10.71875 -15.21875 C 10.71875 -12.3125 11.304688 -10.0625 12.484375 -8.46875 C 13.671875 -6.875 15.25 -6.078125 17.21875 -6.078125 C 18.664062 -6.078125 19.882812 -6.515625 20.875 -7.390625 C 21.875 -8.273438 22.5 -9.53125 22.75 -11.15625 L 30.71875 -11.15625 C 30.582031 -8.832031 29.945312 -6.785156 28.8125 -5.015625 C 27.6875 -3.242188 26.132812 -1.863281 24.15625 -0.875 C 22.175781 0.101562 19.832031 0.59375 17.125 0.59375 Z M 17.125 0.59375 "/></g></g></g><g fill="#000000" fill-opacity="1"><g transform="translate(98.213016, 52.451788)"><g><path d="M 3.375 0 L 3.375 -30.4375 L 11.8125 -30.4375 L 11.8125 0 Z M 7.609375 -34.359375 C 6.367188 -34.359375 5.296875 -34.773438 4.390625 -35.609375 C 3.492188 -36.453125 3.046875 -37.460938 3.046875 -38.640625 C 3.046875 -39.816406 3.492188 -40.816406 4.390625 -41.640625 C 5.296875 -42.472656 6.367188 -42.890625 7.609375 -42.890625 C 8.859375 -42.890625 9.929688 -42.472656 10.828125 -41.640625 C 11.734375 -40.816406 12.1875 -39.816406 12.1875 -38.640625 C 12.1875 -37.460938 11.734375 -36.453125 10.828125 -35.609375 C 9.929688 -34.773438 8.859375 -34.359375 7.609375 -34.359375 Z M 7.609375 -34.359375 "/></g></g></g><g fill="#000000" fill-opacity="1"><g transform="translate(113.388557, 52.451788)"><g><path d="M 11.8125 -40.578125 L 11.8125 0 L 3.375 0 L 3.375 -40.578125 Z M 11.8125 -40.578125 "/></g></g></g><g fill="#000000" fill-opacity="1"><g transform="translate(128.564098, 52.451788)"><g><path d="M 11.8125 -40.578125 L 11.8125 0 L 3.375 0 L 3.375 -40.578125 Z M 11.8125 -40.578125 "/></g></g></g><g fill="#000000" fill-opacity="1"><g transform="translate(143.73964, 52.451788)"><g><path d="M 3.375 0 L 3.375 -30.4375 L 11.8125 -30.4375 L 11.8125 0 Z M 7.609375 -34.359375 C 6.367188 -34.359375 5.296875 -34.773438 4.390625 -35.609375 C 3.492188 -36.453125 3.046875 -37.460938 3.046875 -38.640625 C 3.046875 -39.816406 3.492188 -40.816406 4.390625 -41.640625 C 5.296875 -42.472656 6.367188 -42.890625 7.609375 -42.890625 C 8.859375 -42.890625 9.929688 -42.472656 10.828125 -41.640625 C 11.734375 -40.816406 12.1875 -39.816406 12.1875 -38.640625 C 12.1875 -37.460938 11.734375 -36.453125 10.828125 -35.609375 C 9.929688 -34.773438 8.859375 -34.359375 7.609375 -34.359375 Z M 7.609375 -34.359375 "/></g></g></g><g fill="#000000" fill-opacity="1"><g transform="translate(158.915181, 52.451788)"><g><path d="M 19.5625 -30.4375 L 19.5625 -24.09375 L 13.828125 -24.09375 L 13.828125 -9.359375 C 13.828125 -8.191406 14.09375 -7.398438 14.625 -6.984375 C 15.15625 -6.578125 15.84375 -6.375 16.6875 -6.375 C 17.082031 -6.375 17.476562 -6.410156 17.875 -6.484375 C 18.269531 -6.554688 18.570312 -6.613281 18.78125 -6.65625 L 20.109375 -0.375 C 19.691406 -0.238281 19.097656 -0.0820312 18.328125 0.09375 C 17.554688 0.269531 16.625 0.378906 15.53125 0.421875 C 12.46875 0.546875 10.007812 -0.117188 8.15625 -1.578125 C 6.300781 -3.035156 5.378906 -5.257812 5.390625 -8.25 L 5.390625 -24.09375 L 1.234375 -24.09375 L 1.234375 -30.4375 L 5.390625 -30.4375 L 5.390625 -37.71875 L 13.828125 -37.71875 L 13.828125 -30.4375 Z M 19.5625 -30.4375 "/></g></g></g></g></g><g fill="#000000" fill-opacity="1"><g transform="translate(241.083035, 211.115698)"><g><path d="M 8.046875 -11.984375 L 8.046875 0 L 2.296875 0 L 2.296875 -27.640625 L 7.875 -27.640625 L 7.875 -17.0625 L 8.125 -17.0625 C 8.601562 -18.289062 9.359375 -19.253906 10.390625 -19.953125 C 11.429688 -20.648438 12.738281 -21 14.3125 -21 C 16.476562 -21 18.21875 -20.304688 19.53125 -18.921875 C 20.84375 -17.535156 21.492188 -15.628906 21.484375 -13.203125 L 21.484375 0 L 15.734375 0 L 15.734375 -12.171875 C 15.742188 -13.453125 15.421875 -14.445312 14.765625 -15.15625 C 14.117188 -15.863281 13.207031 -16.21875 12.03125 -16.21875 C 10.863281 -16.21875 9.910156 -15.847656 9.171875 -15.109375 C 8.429688 -14.367188 8.054688 -13.328125 8.046875 -11.984375 Z M 8.046875 -11.984375 "/></g></g></g><g fill="#000000" fill-opacity="1"><g transform="translate(264.801108, 211.115698)"><g><path d="M 15.578125 -8.828125 L 15.578125 -20.734375 L 21.328125 -20.734375 L 21.328125 0 L 15.8125 0 L 15.8125 -3.765625 L 15.59375 -3.765625 C 15.125 -2.546875 14.347656 -1.566406 13.265625 -0.828125 C 12.179688 -0.0976562 10.863281 0.265625 9.3125 0.265625 C 7.226562 0.265625 5.539062 -0.425781 4.25 -1.8125 C 2.957031 -3.207031 2.304688 -5.113281 2.296875 -7.53125 L 2.296875 -20.734375 L 8.046875 -20.734375 L 8.046875 -8.5625 C 8.054688 -7.332031 8.382812 -6.363281 9.03125 -5.65625 C 9.675781 -4.945312 10.539062 -4.59375 11.625 -4.59375 C 12.664062 -4.59375 13.585938 -4.953125 14.390625 -5.671875 C 15.191406 -6.390625 15.585938 -7.441406 15.578125 -8.828125 Z M 15.578125 -8.828125 "/></g></g></g><g fill="#000000" fill-opacity="1"><g transform="translate(288.424745, 211.115698)"><g><path d="M 2.40625 0 L 2.40625 -27.640625 L 8.15625 -27.640625 L 8.15625 -17.25 L 8.328125 -17.25 C 8.585938 -17.8125 8.953125 -18.378906 9.421875 -18.953125 C 9.898438 -19.535156 10.53125 -20.019531 11.3125 -20.40625 C 12.101562 -20.800781 13.070312 -21 14.21875 -21 C 15.738281 -21 17.132812 -20.601562 18.40625 -19.8125 C 19.675781 -19.03125 20.691406 -17.847656 21.453125 -16.265625 C 22.222656 -14.691406 22.609375 -12.71875 22.609375 -10.34375 C 22.609375 -8.03125 22.234375 -6.078125 21.484375 -4.484375 C 20.742188 -2.898438 19.738281 -1.695312 18.46875 -0.875 C 17.207031 -0.0625 15.785156 0.34375 14.203125 0.34375 C 13.085938 0.34375 12.140625 0.160156 11.359375 -0.203125 C 10.585938 -0.578125 9.957031 -1.046875 9.46875 -1.609375 C 8.976562 -2.171875 8.597656 -2.738281 8.328125 -3.3125 L 8.0625 -3.3125 L 8.0625 0 Z M 8.03125 -10.359375 C 8.03125 -8.515625 8.410156 -7.03125 9.171875 -5.90625 C 9.929688 -4.789062 11.003906 -4.234375 12.390625 -4.234375 C 13.796875 -4.234375 14.875 -4.800781 15.625 -5.9375 C 16.375 -7.082031 16.75 -8.554688 16.75 -10.359375 C 16.75 -12.160156 16.375 -13.617188 15.625 -14.734375 C 14.882812 -15.859375 13.804688 -16.421875 12.390625 -16.421875 C 10.992188 -16.421875 9.914062 -15.875 9.15625 -14.78125 C 8.40625 -13.6875 8.03125 -12.210938 8.03125 -10.359375 Z M 8.03125 -10.359375 "/></g></g></g><g clip-path="url(#8d915044ed)"><g transform="matrix(1, 0, 0, 1, 188, 189)"><g clip-path="url(#80de9f68d2)"><g clip-path="url(#805594d1b4)"><g mask="url(#64d42cede9)"><g transform="matrix(1, 0, 0, 1, 0.000000000000028422, 0)"><g clip-path="url(#9f93f61016)"><g clip-path="url(#421ef08fbf)"><path fill="url(#740e2ff653)" d="M 0.0429688 0.90625 L 0.0429688 81.15625 L 152.292969 81.15625 L 152.292969 0.90625 Z M 0.0429688 0.90625 " fill-rule="nonzero"/></g></g></g></g></g></g></g></g></svg>