<svg xmlns="http://www.w3.org/2000/svg" xmlns:xlink="http://www.w3.org/1999/xlink" width="500" zoomAndPan="magnify" viewBox="0 0 375 374.999991" height="500" preserveAspectRatio="xMidYMid meet" version="1.0"><defs><g/><clipPath id="7cdf269d00"><path d="M 102.371094 121.5 L 141.699219 121.5 L 141.699219 169.460938 L 102.371094 169.460938 Z M 102.371094 121.5 " clip-rule="nonzero"/></clipPath></defs><g clip-path="url(#7cdf269d00)"><path fill="#111114" d="M 141.699219 121.542969 L 141.699219 127.023438 C 141.445312 129.078125 139.835938 130.730469 137.773438 131.121094 L 117.664062 131.121094 C 117.496094 131.105469 117.332031 131.097656 117.164062 131.097656 C 116.992188 131.097656 116.820312 131.105469 116.660156 131.121094 C 114.191406 131.371094 112.261719 133.410156 112.261719 135.902344 C 112.261719 138.546875 114.453125 140.699219 117.164062 140.699219 L 127.175781 140.699219 C 129.527344 140.773438 131.46875 142.433594 131.867188 144.605469 L 131.867188 150.277344 L 117.289062 150.277344 C 117.230469 150.265625 117.179688 150.265625 117.121094 150.265625 C 117.0625 150.265625 117.007812 150.265625 116.949219 150.277344 C 114.460938 150.347656 112.449219 152.21875 112.203125 154.589844 C 112.1875 154.746094 112.179688 154.914062 112.179688 155.078125 C 112.179688 155.246094 112.1875 155.414062 112.203125 155.570312 L 112.203125 165.3125 C 111.941406 167.394531 110.3125 169.054688 108.214844 169.421875 L 102.371094 169.421875 L 102.371094 126.332031 C 102.371094 123.691406 104.578125 121.542969 107.285156 121.542969 Z M 141.699219 121.542969 " fill-opacity="1" fill-rule="nonzero"/></g><g fill="#111114" fill-opacity="1"><g transform="translate(122.04081, 195.193698)"><g><path d="M 20.765625 -28.078125 L 20.765625 -22.59375 L 9.3125 -22.59375 L 9.3125 -16.6875 L 17.875 -16.6875 L 17.875 -11.359375 L 9.3125 -11.359375 L 9.3125 0 L 2.484375 0 L 2.484375 -28.078125 Z M 20.765625 -28.078125 "/></g></g></g><g fill="#111114" fill-opacity="1"><g transform="translate(143.918639, 195.193698)"><g><path d="M 19.953125 -4.953125 L 9.484375 -4.953125 L 7.796875 0 L 0.640625 0 L 10.796875 -28.078125 L 18.71875 -28.078125 L 28.875 0 L 21.640625 0 Z M 18.203125 -10.234375 L 14.71875 -20.515625 L 11.28125 -10.234375 Z M 18.203125 -10.234375 "/></g></g></g><g fill="#111114" fill-opacity="1"><g transform="translate(173.395711, 195.193698)"><g><path d="M 1.3125 -14.078125 C 1.3125 -16.847656 1.910156 -19.320312 3.109375 -21.5 C 4.316406 -23.675781 5.992188 -25.367188 8.140625 -26.578125 C 10.285156 -27.796875 12.71875 -28.40625 15.4375 -28.40625 C 18.769531 -28.40625 21.625 -27.523438 24 -25.765625 C 26.375 -24.003906 27.960938 -21.601562 28.765625 -18.5625 L 21.234375 -18.5625 C 20.679688 -19.726562 19.890625 -20.617188 18.859375 -21.234375 C 17.828125 -21.847656 16.660156 -22.15625 15.359375 -22.15625 C 13.253906 -22.15625 11.546875 -21.421875 10.234375 -19.953125 C 8.929688 -18.492188 8.28125 -16.535156 8.28125 -14.078125 C 8.28125 -11.628906 8.929688 -9.671875 10.234375 -8.203125 C 11.546875 -6.734375 13.253906 -6 15.359375 -6 C 16.660156 -6 17.828125 -6.304688 18.859375 -6.921875 C 19.890625 -7.535156 20.679688 -8.425781 21.234375 -9.59375 L 28.765625 -9.59375 C 27.960938 -6.5625 26.375 -4.171875 24 -2.421875 C 21.625 -0.671875 18.769531 0.203125 15.4375 0.203125 C 12.71875 0.203125 10.285156 -0.398438 8.140625 -1.609375 C 5.992188 -2.828125 4.316406 -4.515625 3.109375 -6.671875 C 1.910156 -8.835938 1.3125 -11.304688 1.3125 -14.078125 Z M 1.3125 -14.078125 "/></g></g></g><g fill="#111114" fill-opacity="1"><g transform="translate(203.872687, 195.193698)"><g><path d="M 9.3125 -28.078125 L 9.3125 0 L 2.484375 0 L 2.484375 -28.078125 Z M 9.3125 -28.078125 "/></g></g></g><g fill="#111114" fill-opacity="1"><g transform="translate(215.671511, 195.193698)"><g><path d="M 9.3125 -5.28125 L 18.28125 -5.28125 L 18.28125 0 L 2.484375 0 L 2.484375 -28.078125 L 9.3125 -28.078125 Z M 9.3125 -5.28125 "/></g></g></g><g fill="#111114" fill-opacity="1"><g transform="translate(234.749611, 195.193698)"><g><path d="M 9.3125 -5.28125 L 18.28125 -5.28125 L 18.28125 0 L 2.484375 0 L 2.484375 -28.078125 L 9.3125 -28.078125 Z M 9.3125 -5.28125 "/></g></g></g><g fill="#111114" fill-opacity="1"><g transform="translate(253.827712, 195.193698)"><g><path d="M 9.3125 -28.078125 L 9.3125 0 L 2.484375 0 L 2.484375 -28.078125 Z M 9.3125 -28.078125 "/></g></g></g><g fill="#111114" fill-opacity="1"><g transform="translate(265.626535, 195.193698)"><g><path d="M 22.6875 -28.078125 L 22.6875 -22.59375 L 15.234375 -22.59375 L 15.234375 0 L 8.40625 0 L 8.40625 -22.59375 L 0.953125 -22.59375 L 0.953125 -28.078125 Z M 22.6875 -28.078125 "/></g></g></g><g fill="#111114" fill-opacity="1"><g transform="translate(223.845518, 224.326449)"><g><path d="M 1.109375 -8.28125 C 1.109375 -9.976562 1.453125 -11.472656 2.140625 -12.765625 C 2.835938 -14.054688 3.796875 -15.050781 5.015625 -15.75 C 6.234375 -16.445312 7.628906 -16.796875 9.203125 -16.796875 C 11.203125 -16.796875 12.859375 -16.320312 14.171875 -15.375 C 15.484375 -14.425781 16.367188 -13.070312 16.828125 -11.3125 L 13.140625 -11.3125 C 12.835938 -12.132812 12.351562 -12.773438 11.6875 -13.234375 C 11.03125 -13.691406 10.203125 -13.921875 9.203125 -13.921875 C 7.804688 -13.921875 6.691406 -13.425781 5.859375 -12.4375 C 5.035156 -11.445312 4.625 -10.0625 4.625 -8.28125 C 4.625 -6.5 5.035156 -5.109375 5.859375 -4.109375 C 6.691406 -3.109375 7.804688 -2.609375 9.203125 -2.609375 C 11.191406 -2.609375 12.503906 -3.476562 13.140625 -5.21875 L 16.828125 -5.21875 C 16.347656 -3.539062 15.445312 -2.207031 14.125 -1.21875 C 12.8125 -0.226562 11.171875 0.265625 9.203125 0.265625 C 7.628906 0.265625 6.234375 -0.0859375 5.015625 -0.796875 C 3.796875 -1.503906 2.835938 -2.503906 2.140625 -3.796875 C 1.453125 -5.085938 1.109375 -6.582031 1.109375 -8.28125 Z M 1.109375 -8.28125 "/></g></g></g><g fill="#111114" fill-opacity="1"><g transform="translate(241.845505, 224.326449)"><g><path d="M 18.359375 0 L 15.78125 -2.578125 C 14.78125 -1.578125 13.6875 -0.832031 12.5 -0.34375 C 11.320312 0.144531 10.003906 0.390625 8.546875 0.390625 C 7.066406 0.390625 5.753906 0.128906 4.609375 -0.390625 C 3.472656 -0.910156 2.59375 -1.65625 1.96875 -2.625 C 1.351562 -3.59375 1.046875 -4.71875 1.046875 -6 C 1.046875 -7.4375 1.457031 -8.71875 2.28125 -9.84375 C 3.101562 -10.976562 4.320312 -11.878906 5.9375 -12.546875 C 5.351562 -13.242188 4.941406 -13.894531 4.703125 -14.5 C 4.460938 -15.113281 4.34375 -15.789062 4.34375 -16.53125 C 4.34375 -17.445312 4.578125 -18.265625 5.046875 -18.984375 C 5.523438 -19.703125 6.203125 -20.269531 7.078125 -20.6875 C 7.960938 -21.113281 8.984375 -21.328125 10.140625 -21.328125 C 11.316406 -21.328125 12.320312 -21.101562 13.15625 -20.65625 C 13.988281 -20.207031 14.609375 -19.59375 15.015625 -18.8125 C 15.421875 -18.03125 15.585938 -17.160156 15.515625 -16.203125 L 12.09375 -16.203125 C 12.113281 -16.941406 11.929688 -17.515625 11.546875 -17.921875 C 11.171875 -18.335938 10.648438 -18.546875 9.984375 -18.546875 C 9.328125 -18.546875 8.789062 -18.347656 8.375 -17.953125 C 7.96875 -17.566406 7.765625 -17.09375 7.765625 -16.53125 C 7.765625 -15.988281 7.921875 -15.453125 8.234375 -14.921875 C 8.546875 -14.390625 9.09375 -13.707031 9.875 -12.875 L 15.390625 -7.375 L 17.515625 -10.890625 L 21.203125 -10.890625 L 18.515625 -6.265625 L 17.765625 -5.046875 L 22.828125 0 Z M 8.546875 -2.515625 C 10.429688 -2.515625 12.09375 -3.285156 13.53125 -4.828125 L 8.015625 -10.375 C 5.648438 -9.4375 4.46875 -8.019531 4.46875 -6.125 C 4.46875 -5.101562 4.847656 -4.242188 5.609375 -3.546875 C 6.367188 -2.859375 7.347656 -2.515625 8.546875 -2.515625 Z M 8.546875 -2.515625 "/></g></g></g><g fill="#111114" fill-opacity="1"><g transform="translate(264.675483, 224.326449)"><g><path d="M 1.109375 -8.28125 C 1.109375 -9.976562 1.453125 -11.472656 2.140625 -12.765625 C 2.835938 -14.054688 3.796875 -15.050781 5.015625 -15.75 C 6.234375 -16.445312 7.628906 -16.796875 9.203125 -16.796875 C 11.203125 -16.796875 12.859375 -16.320312 14.171875 -15.375 C 15.484375 -14.425781 16.367188 -13.070312 16.828125 -11.3125 L 13.140625 -11.3125 C 12.835938 -12.132812 12.351562 -12.773438 11.6875 -13.234375 C 11.03125 -13.691406 10.203125 -13.921875 9.203125 -13.921875 C 7.804688 -13.921875 6.691406 -13.425781 5.859375 -12.4375 C 5.035156 -11.445312 4.625 -10.0625 4.625 -8.28125 C 4.625 -6.5 5.035156 -5.109375 5.859375 -4.109375 C 6.691406 -3.109375 7.804688 -2.609375 9.203125 -2.609375 C 11.191406 -2.609375 12.503906 -3.476562 13.140625 -5.21875 L 16.828125 -5.21875 C 16.347656 -3.539062 15.445312 -2.207031 14.125 -1.21875 C 12.8125 -0.226562 11.171875 0.265625 9.203125 0.265625 C 7.628906 0.265625 6.234375 -0.0859375 5.015625 -0.796875 C 3.796875 -1.503906 2.835938 -2.503906 2.140625 -3.796875 C 1.453125 -5.085938 1.109375 -6.582031 1.109375 -8.28125 Z M 1.109375 -8.28125 "/></g></g></g></svg>