<svg xmlns="http://www.w3.org/2000/svg" xmlns:xlink="http://www.w3.org/1999/xlink" width="500" zoomAndPan="magnify" viewBox="0 0 375 374.999991" height="500" preserveAspectRatio="xMidYMid meet" version="1.0"><defs><g/><clipPath id="993af65f7f"><path d="M 102.371094 121.5 L 141.699219 121.5 L 141.699219 169.460938 L 102.371094 169.460938 Z M 102.371094 121.5 " clip-rule="nonzero"/></clipPath></defs><g clip-path="url(#993af65f7f)"><path fill="#111114" d="M 141.699219 121.542969 L 141.699219 127.023438 C 141.445312 129.078125 139.835938 130.730469 137.773438 131.121094 L 117.664062 131.121094 C 117.496094 131.105469 117.332031 131.097656 117.164062 131.097656 C 116.992188 131.097656 116.820312 131.105469 116.660156 131.121094 C 114.191406 131.371094 112.261719 133.410156 112.261719 135.902344 C 112.261719 138.546875 114.453125 140.699219 117.164062 140.699219 L 127.175781 140.699219 C 129.527344 140.773438 131.46875 142.433594 131.867188 144.605469 L 131.867188 150.277344 L 117.289062 150.277344 C 117.230469 150.265625 117.179688 150.265625 117.121094 150.265625 C 117.0625 150.265625 117.007812 150.265625 116.949219 150.277344 C 114.460938 150.347656 112.449219 152.21875 112.203125 154.589844 C 112.1875 154.746094 112.179688 154.914062 112.179688 155.078125 C 112.179688 155.246094 112.1875 155.414062 112.203125 155.570312 L 112.203125 165.3125 C 111.941406 167.394531 110.3125 169.054688 108.214844 169.421875 L 102.371094 169.421875 L 102.371094 126.332031 C 102.371094 123.691406 104.578125 121.542969 107.285156 121.542969 Z M 141.699219 121.542969 " fill-opacity="1" fill-rule="nonzero"/></g><g fill="#111114" fill-opacity="1"><g transform="translate(122.04081, 195.193638)"><g><path d="M 20.765625 -28.078125 L 20.765625 -22.59375 L 9.3125 -22.59375 L 9.3125 -16.6875 L 17.875 -16.6875 L 17.875 -11.359375 L 9.3125 -11.359375 L 9.3125 0 L 2.484375 0 L 2.484375 -28.078125 Z M 20.765625 -28.078125 "/></g></g></g><g fill="#111114" fill-opacity="1"><g transform="translate(143.918639, 195.193638)"><g><path d="M 19.953125 -4.953125 L 9.484375 -4.953125 L 7.796875 0 L 0.640625 0 L 10.796875 -28.078125 L 18.71875 -28.078125 L 28.875 0 L 21.640625 0 Z M 18.203125 -10.234375 L 14.71875 -20.515625 L 11.28125 -10.234375 Z M 18.203125 -10.234375 "/></g></g></g><g fill="#111114" fill-opacity="1"><g transform="translate(173.395711, 195.193638)"><g><path d="M 1.3125 -14.078125 C 1.3125 -16.847656 1.910156 -19.320312 3.109375 -21.5 C 4.316406 -23.675781 5.992188 -25.367188 8.140625 -26.578125 C 10.285156 -27.796875 12.71875 -28.40625 15.4375 -28.40625 C 18.769531 -28.40625 21.625 -27.523438 24 -25.765625 C 26.375 -24.003906 27.960938 -21.601562 28.765625 -18.5625 L 21.234375 -18.5625 C 20.679688 -19.726562 19.890625 -20.617188 18.859375 -21.234375 C 17.828125 -21.847656 16.660156 -22.15625 15.359375 -22.15625 C 13.253906 -22.15625 11.546875 -21.421875 10.234375 -19.953125 C 8.929688 -18.492188 8.28125 -16.535156 8.28125 -14.078125 C 8.28125 -11.628906 8.929688 -9.671875 10.234375 -8.203125 C 11.546875 -6.734375 13.253906 -6 15.359375 -6 C 16.660156 -6 17.828125 -6.304688 18.859375 -6.921875 C 19.890625 -7.535156 20.679688 -8.425781 21.234375 -9.59375 L 28.765625 -9.59375 C 27.960938 -6.5625 26.375 -4.171875 24 -2.421875 C 21.625 -0.671875 18.769531 0.203125 15.4375 0.203125 C 12.71875 0.203125 10.285156 -0.398438 8.140625 -1.609375 C 5.992188 -2.828125 4.316406 -4.515625 3.109375 -6.671875 C 1.910156 -8.835938 1.3125 -11.304688 1.3125 -14.078125 Z M 1.3125 -14.078125 "/></g></g></g><g fill="#111114" fill-opacity="1"><g transform="translate(203.872687, 195.193638)"><g><path d="M 9.3125 -28.078125 L 9.3125 0 L 2.484375 0 L 2.484375 -28.078125 Z M 9.3125 -28.078125 "/></g></g></g><g fill="#111114" fill-opacity="1"><g transform="translate(215.671511, 195.193638)"><g><path d="M 9.3125 -5.28125 L 18.28125 -5.28125 L 18.28125 0 L 2.484375 0 L 2.484375 -28.078125 L 9.3125 -28.078125 Z M 9.3125 -5.28125 "/></g></g></g><g fill="#111114" fill-opacity="1"><g transform="translate(234.749611, 195.193638)"><g><path d="M 9.3125 -5.28125 L 18.28125 -5.28125 L 18.28125 0 L 2.484375 0 L 2.484375 -28.078125 L 9.3125 -28.078125 Z M 9.3125 -5.28125 "/></g></g></g><g fill="#111114" fill-opacity="1"><g transform="translate(253.827712, 195.193638)"><g><path d="M 9.3125 -28.078125 L 9.3125 0 L 2.484375 0 L 2.484375 -28.078125 Z M 9.3125 -28.078125 "/></g></g></g><g fill="#111114" fill-opacity="1"><g transform="translate(265.626535, 195.193638)"><g><path d="M 22.6875 -28.078125 L 22.6875 -22.59375 L 15.234375 -22.59375 L 15.234375 0 L 8.40625 0 L 8.40625 -22.59375 L 0.953125 -22.59375 L 0.953125 -28.078125 Z M 22.6875 -28.078125 "/></g></g></g><g fill="#111114" fill-opacity="1"><g transform="translate(177.573904, 224.026392)"><g><path d="M 1.109375 -8.28125 C 1.109375 -9.976562 1.453125 -11.472656 2.140625 -12.765625 C 2.835938 -14.054688 3.796875 -15.050781 5.015625 -15.75 C 6.234375 -16.445312 7.628906 -16.796875 9.203125 -16.796875 C 11.203125 -16.796875 12.859375 -16.320312 14.171875 -15.375 C 15.484375 -14.425781 16.367188 -13.070312 16.828125 -11.3125 L 13.140625 -11.3125 C 12.835938 -12.132812 12.351562 -12.773438 11.6875 -13.234375 C 11.03125 -13.691406 10.203125 -13.921875 9.203125 -13.921875 C 7.804688 -13.921875 6.691406 -13.425781 5.859375 -12.4375 C 5.035156 -11.445312 4.625 -10.0625 4.625 -8.28125 C 4.625 -6.5 5.035156 -5.109375 5.859375 -4.109375 C 6.691406 -3.109375 7.804688 -2.609375 9.203125 -2.609375 C 11.191406 -2.609375 12.503906 -3.476562 13.140625 -5.21875 L 16.828125 -5.21875 C 16.347656 -3.539062 15.445312 -2.207031 14.125 -1.21875 C 12.8125 -0.226562 11.171875 0.265625 9.203125 0.265625 C 7.628906 0.265625 6.234375 -0.0859375 5.015625 -0.796875 C 3.796875 -1.503906 2.835938 -2.503906 2.140625 -3.796875 C 1.453125 -5.085938 1.109375 -6.582031 1.109375 -8.28125 Z M 1.109375 -8.28125 "/></g></g></g><g fill="#111114" fill-opacity="1"><g transform="translate(195.573892, 224.026392)"><g><path d="M 9.421875 0.265625 C 7.859375 0.265625 6.445312 -0.0859375 5.1875 -0.796875 C 3.925781 -1.503906 2.9375 -2.503906 2.21875 -3.796875 C 1.5 -5.085938 1.140625 -6.582031 1.140625 -8.28125 C 1.140625 -9.957031 1.507812 -11.445312 2.25 -12.75 C 2.988281 -14.050781 4 -15.050781 5.28125 -15.75 C 6.5625 -16.445312 7.988281 -16.796875 9.5625 -16.796875 C 11.144531 -16.796875 12.578125 -16.445312 13.859375 -15.75 C 15.140625 -15.050781 16.148438 -14.050781 16.890625 -12.75 C 17.628906 -11.445312 18 -9.957031 18 -8.28125 C 18 -6.601562 17.617188 -5.113281 16.859375 -3.8125 C 16.097656 -2.507812 15.0625 -1.503906 13.75 -0.796875 C 12.445312 -0.0859375 11.003906 0.265625 9.421875 0.265625 Z M 9.421875 -2.703125 C 10.296875 -2.703125 11.117188 -2.910156 11.890625 -3.328125 C 12.660156 -3.742188 13.285156 -4.375 13.765625 -5.21875 C 14.242188 -6.0625 14.484375 -7.082031 14.484375 -8.28125 C 14.484375 -9.476562 14.253906 -10.488281 13.796875 -11.3125 C 13.335938 -12.144531 12.726562 -12.769531 11.96875 -13.1875 C 11.207031 -13.613281 10.390625 -13.828125 9.515625 -13.828125 C 8.628906 -13.828125 7.8125 -13.613281 7.0625 -13.1875 C 6.3125 -12.769531 5.71875 -12.144531 5.28125 -11.3125 C 4.84375 -10.488281 4.625 -9.476562 4.625 -8.28125 C 4.625 -6.5 5.078125 -5.125 5.984375 -4.15625 C 6.890625 -3.1875 8.035156 -2.703125 9.421875 -2.703125 Z M 9.421875 -2.703125 "/></g></g></g><g fill="#111114" fill-opacity="1"><g transform="translate(214.713871, 224.026392)"><g><path d="M 10.59375 -16.796875 C 11.894531 -16.796875 13.054688 -16.523438 14.078125 -15.984375 C 15.109375 -15.453125 15.914062 -14.65625 16.5 -13.59375 C 17.082031 -12.53125 17.375 -11.25 17.375 -9.75 L 17.375 0 L 13.984375 0 L 13.984375 -9.234375 C 13.984375 -10.710938 13.613281 -11.847656 12.875 -12.640625 C 12.132812 -13.429688 11.125 -13.828125 9.84375 -13.828125 C 8.5625 -13.828125 7.546875 -13.429688 6.796875 -12.640625 C 6.046875 -11.847656 5.671875 -10.710938 5.671875 -9.234375 L 5.671875 0 L 2.25 0 L 2.25 -16.53125 L 5.671875 -16.53125 L 5.671875 -14.640625 C 6.234375 -15.316406 6.945312 -15.84375 7.8125 -16.21875 C 8.6875 -16.601562 9.613281 -16.796875 10.59375 -16.796875 Z M 10.59375 -16.796875 "/></g></g></g><g fill="#111114" fill-opacity="1"><g transform="translate(234.183851, 224.026392)"><g><path d="M 17.40625 -8.671875 C 17.40625 -8.046875 17.363281 -7.484375 17.28125 -6.984375 L 4.65625 -6.984375 C 4.75 -5.671875 5.234375 -4.613281 6.109375 -3.8125 C 6.992188 -3.007812 8.078125 -2.609375 9.359375 -2.609375 C 11.203125 -2.609375 12.503906 -3.378906 13.265625 -4.921875 L 16.953125 -4.921875 C 16.453125 -3.398438 15.546875 -2.15625 14.234375 -1.1875 C 12.921875 -0.21875 11.296875 0.265625 9.359375 0.265625 C 7.773438 0.265625 6.359375 -0.0859375 5.109375 -0.796875 C 3.859375 -1.503906 2.878906 -2.503906 2.171875 -3.796875 C 1.460938 -5.085938 1.109375 -6.582031 1.109375 -8.28125 C 1.109375 -9.976562 1.453125 -11.472656 2.140625 -12.765625 C 2.835938 -14.054688 3.8125 -15.050781 5.0625 -15.75 C 6.3125 -16.445312 7.742188 -16.796875 9.359375 -16.796875 C 10.921875 -16.796875 12.3125 -16.457031 13.53125 -15.78125 C 14.75 -15.101562 15.695312 -14.144531 16.375 -12.90625 C 17.0625 -11.675781 17.40625 -10.265625 17.40625 -8.671875 Z M 13.828125 -9.75 C 13.804688 -11.007812 13.351562 -12.019531 12.46875 -12.78125 C 11.59375 -13.539062 10.503906 -13.921875 9.203125 -13.921875 C 8.023438 -13.921875 7.015625 -13.546875 6.171875 -12.796875 C 5.335938 -12.046875 4.84375 -11.03125 4.6875 -9.75 Z M 13.828125 -9.75 "/></g></g></g><g fill="#111114" fill-opacity="1"><g transform="translate(252.693833, 224.026392)"><g><path d="M 1.109375 -8.28125 C 1.109375 -9.976562 1.453125 -11.472656 2.140625 -12.765625 C 2.835938 -14.054688 3.796875 -15.050781 5.015625 -15.75 C 6.234375 -16.445312 7.628906 -16.796875 9.203125 -16.796875 C 11.203125 -16.796875 12.859375 -16.320312 14.171875 -15.375 C 15.484375 -14.425781 16.367188 -13.070312 16.828125 -11.3125 L 13.140625 -11.3125 C 12.835938 -12.132812 12.351562 -12.773438 11.6875 -13.234375 C 11.03125 -13.691406 10.203125 -13.921875 9.203125 -13.921875 C 7.804688 -13.921875 6.691406 -13.425781 5.859375 -12.4375 C 5.035156 -11.445312 4.625 -10.0625 4.625 -8.28125 C 4.625 -6.5 5.035156 -5.109375 5.859375 -4.109375 C 6.691406 -3.109375 7.804688 -2.609375 9.203125 -2.609375 C 11.191406 -2.609375 12.503906 -3.476562 13.140625 -5.21875 L 16.828125 -5.21875 C 16.347656 -3.539062 15.445312 -2.207031 14.125 -1.21875 C 12.8125 -0.226562 11.171875 0.265625 9.203125 0.265625 C 7.628906 0.265625 6.234375 -0.0859375 5.015625 -0.796875 C 3.796875 -1.503906 2.835938 -2.503906 2.140625 -3.796875 C 1.453125 -5.085938 1.109375 -6.582031 1.109375 -8.28125 Z M 1.109375 -8.28125 "/></g></g></g><g fill="#111114" fill-opacity="1"><g transform="translate(270.693821, 224.026392)"><g><path d="M 6.234375 -13.734375 L 6.234375 -4.59375 C 6.234375 -3.96875 6.378906 -3.519531 6.671875 -3.25 C 6.960938 -2.976562 7.457031 -2.84375 8.15625 -2.84375 L 10.265625 -2.84375 L 10.265625 0 L 7.5625 0 C 6.019531 0 4.835938 -0.359375 4.015625 -1.078125 C 3.203125 -1.796875 2.796875 -2.96875 2.796875 -4.59375 L 2.796875 -13.734375 L 0.84375 -13.734375 L 0.84375 -16.53125 L 2.796875 -16.53125 L 2.796875 -20.640625 L 6.234375 -20.640625 L 6.234375 -16.53125 L 10.265625 -16.53125 L 10.265625 -13.734375 Z M 6.234375 -13.734375 "/></g></g></g></svg>