<svg xmlns="http://www.w3.org/2000/svg" xmlns:xlink="http://www.w3.org/1999/xlink" width="500" zoomAndPan="magnify" viewBox="0 0 375 374.999991" height="500" preserveAspectRatio="xMidYMid meet" version="1.0"><defs><g/><clipPath id="53e88c89df"><path d="M 102.371094 121.5 L 141.699219 121.5 L 141.699219 169.460938 L 102.371094 169.460938 Z M 102.371094 121.5 " clip-rule="nonzero"/></clipPath></defs><g clip-path="url(#53e88c89df)"><path fill="#111114" d="M 141.699219 121.542969 L 141.699219 127.023438 C 141.445312 129.078125 139.835938 130.730469 137.773438 131.121094 L 117.664062 131.121094 C 117.496094 131.105469 117.332031 131.097656 117.164062 131.097656 C 116.992188 131.097656 116.820312 131.105469 116.660156 131.121094 C 114.191406 131.371094 112.261719 133.410156 112.261719 135.902344 C 112.261719 138.546875 114.453125 140.699219 117.164062 140.699219 L 127.175781 140.699219 C 129.527344 140.773438 131.46875 142.433594 131.867188 144.605469 L 131.867188 150.277344 L 117.289062 150.277344 C 117.230469 150.265625 117.179688 150.265625 117.121094 150.265625 C 117.0625 150.265625 117.007812 150.265625 116.949219 150.277344 C 114.460938 150.347656 112.449219 152.21875 112.203125 154.589844 C 112.1875 154.746094 112.179688 154.914062 112.179688 155.078125 C 112.179688 155.246094 112.1875 155.414062 112.203125 155.570312 L 112.203125 165.3125 C 111.941406 167.394531 110.3125 169.054688 108.214844 169.421875 L 102.371094 169.421875 L 102.371094 126.332031 C 102.371094 123.691406 104.578125 121.542969 107.285156 121.542969 Z M 141.699219 121.542969 " fill-opacity="1" fill-rule="nonzero"/></g><g fill="#111114" fill-opacity="1"><g transform="translate(122.04081, 195.193638)"><g><path d="M 20.765625 -28.078125 L 20.765625 -22.59375 L 9.3125 -22.59375 L 9.3125 -16.6875 L 17.875 -16.6875 L 17.875 -11.359375 L 9.3125 -11.359375 L 9.3125 0 L 2.484375 0 L 2.484375 -28.078125 Z M 20.765625 -28.078125 "/></g></g></g><g fill="#111114" fill-opacity="1"><g transform="translate(143.918639, 195.193638)"><g><path d="M 19.953125 -4.953125 L 9.484375 -4.953125 L 7.796875 0 L 0.640625 0 L 10.796875 -28.078125 L 18.71875 -28.078125 L 28.875 0 L 21.640625 0 Z M 18.203125 -10.234375 L 14.71875 -20.515625 L 11.28125 -10.234375 Z M 18.203125 -10.234375 "/></g></g></g><g fill="#111114" fill-opacity="1"><g transform="translate(173.395711, 195.193638)"><g><path d="M 1.3125 -14.078125 C 1.3125 -16.847656 1.910156 -19.320312 3.109375 -21.5 C 4.316406 -23.675781 5.992188 -25.367188 8.140625 -26.578125 C 10.285156 -27.796875 12.71875 -28.40625 15.4375 -28.40625 C 18.769531 -28.40625 21.625 -27.523438 24 -25.765625 C 26.375 -24.003906 27.960938 -21.601562 28.765625 -18.5625 L 21.234375 -18.5625 C 20.679688 -19.726562 19.890625 -20.617188 18.859375 -21.234375 C 17.828125 -21.847656 16.660156 -22.15625 15.359375 -22.15625 C 13.253906 -22.15625 11.546875 -21.421875 10.234375 -19.953125 C 8.929688 -18.492188 8.28125 -16.535156 8.28125 -14.078125 C 8.28125 -11.628906 8.929688 -9.671875 10.234375 -8.203125 C 11.546875 -6.734375 13.253906 -6 15.359375 -6 C 16.660156 -6 17.828125 -6.304688 18.859375 -6.921875 C 19.890625 -7.535156 20.679688 -8.425781 21.234375 -9.59375 L 28.765625 -9.59375 C 27.960938 -6.5625 26.375 -4.171875 24 -2.421875 C 21.625 -0.671875 18.769531 0.203125 15.4375 0.203125 C 12.71875 0.203125 10.285156 -0.398438 8.140625 -1.609375 C 5.992188 -2.828125 4.316406 -4.515625 3.109375 -6.671875 C 1.910156 -8.835938 1.3125 -11.304688 1.3125 -14.078125 Z M 1.3125 -14.078125 "/></g></g></g><g fill="#111114" fill-opacity="1"><g transform="translate(203.872687, 195.193638)"><g><path d="M 9.3125 -28.078125 L 9.3125 0 L 2.484375 0 L 2.484375 -28.078125 Z M 9.3125 -28.078125 "/></g></g></g><g fill="#111114" fill-opacity="1"><g transform="translate(215.671511, 195.193638)"><g><path d="M 9.3125 -5.28125 L 18.28125 -5.28125 L 18.28125 0 L 2.484375 0 L 2.484375 -28.078125 L 9.3125 -28.078125 Z M 9.3125 -5.28125 "/></g></g></g><g fill="#111114" fill-opacity="1"><g transform="translate(234.749611, 195.193638)"><g><path d="M 9.3125 -5.28125 L 18.28125 -5.28125 L 18.28125 0 L 2.484375 0 L 2.484375 -28.078125 L 9.3125 -28.078125 Z M 9.3125 -5.28125 "/></g></g></g><g fill="#111114" fill-opacity="1"><g transform="translate(253.827712, 195.193638)"><g><path d="M 9.3125 -28.078125 L 9.3125 0 L 2.484375 0 L 2.484375 -28.078125 Z M 9.3125 -28.078125 "/></g></g></g><g fill="#111114" fill-opacity="1"><g transform="translate(265.626535, 195.193638)"><g><path d="M 22.6875 -28.078125 L 22.6875 -22.59375 L 15.234375 -22.59375 L 15.234375 0 L 8.40625 0 L 8.40625 -22.59375 L 0.953125 -22.59375 L 0.953125 -28.078125 Z M 22.6875 -28.078125 "/></g></g></g><g fill="#111114" fill-opacity="1"><g transform="translate(176.561565, 224.176392)"><g><path d="M 8.90625 -16.796875 C 10.1875 -16.796875 11.320312 -16.539062 12.3125 -16.03125 C 13.300781 -15.519531 14.078125 -14.882812 14.640625 -14.125 L 14.640625 -16.53125 L 18.09375 -16.53125 L 18.09375 0.265625 C 18.09375 1.785156 17.769531 3.140625 17.125 4.328125 C 16.488281 5.523438 15.566406 6.460938 14.359375 7.140625 C 13.148438 7.816406 11.703125 8.15625 10.015625 8.15625 C 7.773438 8.15625 5.914062 7.628906 4.4375 6.578125 C 2.957031 5.535156 2.117188 4.113281 1.921875 2.3125 L 5.3125 2.3125 C 5.570312 3.164062 6.125 3.859375 6.96875 4.390625 C 7.820312 4.921875 8.835938 5.1875 10.015625 5.1875 C 11.398438 5.1875 12.515625 4.765625 13.359375 3.921875 C 14.210938 3.085938 14.640625 1.867188 14.640625 0.265625 L 14.640625 -2.484375 C 14.054688 -1.703125 13.269531 -1.046875 12.28125 -0.515625 C 11.289062 0.00390625 10.164062 0.265625 8.90625 0.265625 C 7.46875 0.265625 6.15625 -0.0976562 4.96875 -0.828125 C 3.78125 -1.554688 2.835938 -2.570312 2.140625 -3.875 C 1.453125 -5.1875 1.109375 -6.675781 1.109375 -8.34375 C 1.109375 -10 1.453125 -11.46875 2.140625 -12.75 C 2.835938 -14.03125 3.78125 -15.023438 4.96875 -15.734375 C 6.15625 -16.441406 7.46875 -16.796875 8.90625 -16.796875 Z M 14.640625 -8.28125 C 14.640625 -9.414062 14.40625 -10.40625 13.9375 -11.25 C 13.46875 -12.09375 12.851562 -12.734375 12.09375 -13.171875 C 11.332031 -13.609375 10.507812 -13.828125 9.625 -13.828125 C 8.75 -13.828125 7.929688 -13.613281 7.171875 -13.1875 C 6.410156 -12.757812 5.796875 -12.128906 5.328125 -11.296875 C 4.859375 -10.460938 4.625 -9.476562 4.625 -8.34375 C 4.625 -7.195312 4.859375 -6.191406 5.328125 -5.328125 C 5.796875 -4.472656 6.414062 -3.820312 7.1875 -3.375 C 7.957031 -2.925781 8.769531 -2.703125 9.625 -2.703125 C 10.507812 -2.703125 11.332031 -2.921875 12.09375 -3.359375 C 12.851562 -3.796875 13.46875 -4.4375 13.9375 -5.28125 C 14.40625 -6.132812 14.640625 -7.132812 14.640625 -8.28125 Z M 14.640625 -8.28125 "/></g></g></g><g fill="#111114" fill-opacity="1"><g transform="translate(196.901549, 224.176392)"><g><path d="M 1.109375 -8.34375 C 1.109375 -10 1.453125 -11.46875 2.140625 -12.75 C 2.835938 -14.03125 3.78125 -15.023438 4.96875 -15.734375 C 6.15625 -16.441406 7.46875 -16.796875 8.90625 -16.796875 C 10.207031 -16.796875 11.34375 -16.539062 12.3125 -16.03125 C 13.28125 -15.519531 14.054688 -14.882812 14.640625 -14.125 L 14.640625 -16.53125 L 18.09375 -16.53125 L 18.09375 0 L 14.640625 0 L 14.640625 -2.453125 C 14.054688 -1.679688 13.265625 -1.035156 12.265625 -0.515625 C 11.265625 0.00390625 10.125 0.265625 8.84375 0.265625 C 7.425781 0.265625 6.128906 -0.0976562 4.953125 -0.828125 C 3.773438 -1.554688 2.835938 -2.570312 2.140625 -3.875 C 1.453125 -5.1875 1.109375 -6.675781 1.109375 -8.34375 Z M 14.640625 -8.28125 C 14.640625 -9.414062 14.40625 -10.40625 13.9375 -11.25 C 13.46875 -12.09375 12.851562 -12.734375 12.09375 -13.171875 C 11.332031 -13.609375 10.507812 -13.828125 9.625 -13.828125 C 8.75 -13.828125 7.929688 -13.613281 7.171875 -13.1875 C 6.410156 -12.757812 5.796875 -12.128906 5.328125 -11.296875 C 4.859375 -10.460938 4.625 -9.476562 4.625 -8.34375 C 4.625 -7.195312 4.859375 -6.191406 5.328125 -5.328125 C 5.796875 -4.472656 6.414062 -3.820312 7.1875 -3.375 C 7.957031 -2.925781 8.769531 -2.703125 9.625 -2.703125 C 10.507812 -2.703125 11.332031 -2.921875 12.09375 -3.359375 C 12.851562 -3.796875 13.46875 -4.4375 13.9375 -5.28125 C 14.40625 -6.132812 14.640625 -7.132812 14.640625 -8.28125 Z M 14.640625 -8.28125 "/></g></g></g><g fill="#111114" fill-opacity="1"><g transform="translate(217.241532, 224.176392)"><g><path d="M 22.265625 -16.796875 C 23.554688 -16.796875 24.71875 -16.523438 25.75 -15.984375 C 26.78125 -15.453125 27.585938 -14.65625 28.171875 -13.59375 C 28.765625 -12.53125 29.0625 -11.25 29.0625 -9.75 L 29.0625 0 L 25.6875 0 L 25.6875 -9.234375 C 25.6875 -10.710938 25.3125 -11.847656 24.5625 -12.640625 C 23.820312 -13.429688 22.816406 -13.828125 21.546875 -13.828125 C 20.265625 -13.828125 19.25 -13.429688 18.5 -12.640625 C 17.75 -11.847656 17.375 -10.710938 17.375 -9.234375 L 17.375 0 L 13.984375 0 L 13.984375 -9.234375 C 13.984375 -10.710938 13.613281 -11.847656 12.875 -12.640625 C 12.132812 -13.429688 11.125 -13.828125 9.84375 -13.828125 C 8.5625 -13.828125 7.546875 -13.429688 6.796875 -12.640625 C 6.046875 -11.847656 5.671875 -10.710938 5.671875 -9.234375 L 5.671875 0 L 2.25 0 L 2.25 -16.53125 L 5.671875 -16.53125 L 5.671875 -14.640625 C 6.234375 -15.316406 6.941406 -15.84375 7.796875 -16.21875 C 8.660156 -16.601562 9.582031 -16.796875 10.5625 -16.796875 C 11.882812 -16.796875 13.0625 -16.515625 14.09375 -15.953125 C 15.132812 -15.398438 15.9375 -14.59375 16.5 -13.53125 C 17 -14.53125 17.78125 -15.320312 18.84375 -15.90625 C 19.90625 -16.5 21.046875 -16.796875 22.265625 -16.796875 Z M 22.265625 -16.796875 "/></g></g></g><g fill="#111114" fill-opacity="1"><g transform="translate(248.411506, 224.176392)"><g><path d="M 17.40625 -8.671875 C 17.40625 -8.046875 17.363281 -7.484375 17.28125 -6.984375 L 4.65625 -6.984375 C 4.75 -5.671875 5.234375 -4.613281 6.109375 -3.8125 C 6.992188 -3.007812 8.078125 -2.609375 9.359375 -2.609375 C 11.203125 -2.609375 12.503906 -3.378906 13.265625 -4.921875 L 16.953125 -4.921875 C 16.453125 -3.398438 15.546875 -2.15625 14.234375 -1.1875 C 12.921875 -0.21875 11.296875 0.265625 9.359375 0.265625 C 7.773438 0.265625 6.359375 -0.0859375 5.109375 -0.796875 C 3.859375 -1.503906 2.878906 -2.503906 2.171875 -3.796875 C 1.460938 -5.085938 1.109375 -6.582031 1.109375 -8.28125 C 1.109375 -9.976562 1.453125 -11.472656 2.140625 -12.765625 C 2.835938 -14.054688 3.8125 -15.050781 5.0625 -15.75 C 6.3125 -16.445312 7.742188 -16.796875 9.359375 -16.796875 C 10.921875 -16.796875 12.3125 -16.457031 13.53125 -15.78125 C 14.75 -15.101562 15.695312 -14.144531 16.375 -12.90625 C 17.0625 -11.675781 17.40625 -10.265625 17.40625 -8.671875 Z M 13.828125 -9.75 C 13.804688 -11.007812 13.351562 -12.019531 12.46875 -12.78125 C 11.59375 -13.539062 10.503906 -13.921875 9.203125 -13.921875 C 8.023438 -13.921875 7.015625 -13.546875 6.171875 -12.796875 C 5.335938 -12.046875 4.84375 -11.03125 4.6875 -9.75 Z M 13.828125 -9.75 "/></g></g></g><g fill="#111114" fill-opacity="1"><g transform="translate(266.921487, 224.176392)"><g><path d="M 8.25 0.265625 C 6.945312 0.265625 5.78125 0.03125 4.75 -0.4375 C 3.71875 -0.90625 2.898438 -1.539062 2.296875 -2.34375 C 1.703125 -3.15625 1.382812 -4.0625 1.34375 -5.0625 L 4.890625 -5.0625 C 4.953125 -4.363281 5.285156 -3.78125 5.890625 -3.3125 C 6.503906 -2.84375 7.269531 -2.609375 8.1875 -2.609375 C 9.144531 -2.609375 9.890625 -2.789062 10.421875 -3.15625 C 10.953125 -3.53125 11.21875 -4.007812 11.21875 -4.59375 C 11.21875 -5.207031 10.921875 -5.664062 10.328125 -5.96875 C 9.742188 -6.269531 8.8125 -6.597656 7.53125 -6.953125 C 6.289062 -7.296875 5.28125 -7.628906 4.5 -7.953125 C 3.71875 -8.273438 3.039062 -8.765625 2.46875 -9.421875 C 1.90625 -10.078125 1.625 -10.945312 1.625 -12.03125 C 1.625 -12.90625 1.882812 -13.707031 2.40625 -14.4375 C 2.925781 -15.175781 3.671875 -15.753906 4.640625 -16.171875 C 5.609375 -16.585938 6.722656 -16.796875 7.984375 -16.796875 C 9.859375 -16.796875 11.367188 -16.320312 12.515625 -15.375 C 13.671875 -14.425781 14.289062 -13.128906 14.375 -11.484375 L 10.953125 -11.484375 C 10.890625 -12.222656 10.585938 -12.8125 10.046875 -13.25 C 9.503906 -13.695312 8.773438 -13.921875 7.859375 -13.921875 C 6.960938 -13.921875 6.269531 -13.75 5.78125 -13.40625 C 5.300781 -13.070312 5.0625 -12.625 5.0625 -12.0625 C 5.0625 -11.625 5.222656 -11.253906 5.546875 -10.953125 C 5.867188 -10.648438 6.257812 -10.410156 6.71875 -10.234375 C 7.175781 -10.066406 7.859375 -9.851562 8.765625 -9.59375 C 9.960938 -9.28125 10.945312 -8.957031 11.71875 -8.625 C 12.488281 -8.289062 13.148438 -7.800781 13.703125 -7.15625 C 14.265625 -6.519531 14.554688 -5.675781 14.578125 -4.625 C 14.578125 -3.675781 14.316406 -2.832031 13.796875 -2.09375 C 13.273438 -1.351562 12.539062 -0.773438 11.59375 -0.359375 C 10.644531 0.0546875 9.53125 0.265625 8.25 0.265625 Z M 8.25 0.265625 "/></g></g></g></svg>