<svg xmlns="http://www.w3.org/2000/svg" xmlns:xlink="http://www.w3.org/1999/xlink" width="500" zoomAndPan="magnify" viewBox="0 0 375 374.999991" height="500" preserveAspectRatio="xMidYMid meet" version="1.0"><defs><g/><clipPath id="5c39a69414"><path d="M 102.371094 121.5 L 141.699219 121.5 L 141.699219 169.460938 L 102.371094 169.460938 Z M 102.371094 121.5 " clip-rule="nonzero"/></clipPath></defs><g clip-path="url(#5c39a69414)"><path fill="#111114" d="M 141.699219 121.542969 L 141.699219 127.019531 C 141.445312 129.078125 139.835938 130.730469 137.773438 131.121094 L 117.664062 131.121094 C 117.496094 131.105469 117.332031 131.097656 117.164062 131.097656 C 116.992188 131.097656 116.820312 131.105469 116.660156 131.121094 C 114.191406 131.371094 112.261719 133.410156 112.261719 135.902344 C 112.261719 138.546875 114.453125 140.699219 117.164062 140.699219 L 127.175781 140.699219 C 129.527344 140.773438 131.46875 142.433594 131.867188 144.605469 L 131.867188 150.277344 L 117.289062 150.277344 C 117.230469 150.265625 117.179688 150.265625 117.121094 150.265625 C 117.0625 150.265625 117.007812 150.265625 116.949219 150.277344 C 114.460938 150.347656 112.449219 152.21875 112.203125 154.589844 C 112.1875 154.746094 112.179688 154.914062 112.179688 155.078125 C 112.179688 155.246094 112.1875 155.414062 112.203125 155.570312 L 112.203125 165.3125 C 111.941406 167.394531 110.3125 169.054688 108.214844 169.421875 L 102.371094 169.421875 L 102.371094 126.332031 C 102.371094 123.691406 104.578125 121.542969 107.285156 121.542969 Z M 141.699219 121.542969 " fill-opacity="1" fill-rule="nonzero"/></g><g fill="#111114" fill-opacity="1"><g transform="translate(122.04081, 195.193698)"><g><path d="M 20.765625 -28.078125 L 20.765625 -22.59375 L 9.3125 -22.59375 L 9.3125 -16.6875 L 17.875 -16.6875 L 17.875 -11.359375 L 9.3125 -11.359375 L 9.3125 0 L 2.484375 0 L 2.484375 -28.078125 Z M 20.765625 -28.078125 "/></g></g></g><g fill="#111114" fill-opacity="1"><g transform="translate(143.918639, 195.193698)"><g><path d="M 19.953125 -4.953125 L 9.484375 -4.953125 L 7.796875 0 L 0.640625 0 L 10.796875 -28.078125 L 18.71875 -28.078125 L 28.875 0 L 21.640625 0 Z M 18.203125 -10.234375 L 14.71875 -20.515625 L 11.28125 -10.234375 Z M 18.203125 -10.234375 "/></g></g></g><g fill="#111114" fill-opacity="1"><g transform="translate(173.395711, 195.193698)"><g><path d="M 1.3125 -14.078125 C 1.3125 -16.847656 1.910156 -19.320312 3.109375 -21.5 C 4.316406 -23.675781 5.992188 -25.367188 8.140625 -26.578125 C 10.285156 -27.796875 12.71875 -28.40625 15.4375 -28.40625 C 18.769531 -28.40625 21.625 -27.523438 24 -25.765625 C 26.375 -24.003906 27.960938 -21.601562 28.765625 -18.5625 L 21.234375 -18.5625 C 20.679688 -19.726562 19.890625 -20.617188 18.859375 -21.234375 C 17.828125 -21.847656 16.660156 -22.15625 15.359375 -22.15625 C 13.253906 -22.15625 11.546875 -21.421875 10.234375 -19.953125 C 8.929688 -18.492188 8.28125 -16.535156 8.28125 -14.078125 C 8.28125 -11.628906 8.929688 -9.671875 10.234375 -8.203125 C 11.546875 -6.734375 13.253906 -6 15.359375 -6 C 16.660156 -6 17.828125 -6.304688 18.859375 -6.921875 C 19.890625 -7.535156 20.679688 -8.425781 21.234375 -9.59375 L 28.765625 -9.59375 C 27.960938 -6.5625 26.375 -4.171875 24 -2.421875 C 21.625 -0.671875 18.769531 0.203125 15.4375 0.203125 C 12.71875 0.203125 10.285156 -0.398438 8.140625 -1.609375 C 5.992188 -2.828125 4.316406 -4.515625 3.109375 -6.671875 C 1.910156 -8.835938 1.3125 -11.304688 1.3125 -14.078125 Z M 1.3125 -14.078125 "/></g></g></g><g fill="#111114" fill-opacity="1"><g transform="translate(203.872687, 195.193698)"><g><path d="M 9.3125 -28.078125 L 9.3125 0 L 2.484375 0 L 2.484375 -28.078125 Z M 9.3125 -28.078125 "/></g></g></g><g fill="#111114" fill-opacity="1"><g transform="translate(215.671511, 195.193698)"><g><path d="M 9.3125 -5.28125 L 18.28125 -5.28125 L 18.28125 0 L 2.484375 0 L 2.484375 -28.078125 L 9.3125 -28.078125 Z M 9.3125 -5.28125 "/></g></g></g><g fill="#111114" fill-opacity="1"><g transform="translate(234.749611, 195.193698)"><g><path d="M 9.3125 -5.28125 L 18.28125 -5.28125 L 18.28125 0 L 2.484375 0 L 2.484375 -28.078125 L 9.3125 -28.078125 Z M 9.3125 -5.28125 "/></g></g></g><g fill="#111114" fill-opacity="1"><g transform="translate(253.827712, 195.193698)"><g><path d="M 9.3125 -28.078125 L 9.3125 0 L 2.484375 0 L 2.484375 -28.078125 Z M 9.3125 -28.078125 "/></g></g></g><g fill="#111114" fill-opacity="1"><g transform="translate(265.626535, 195.193698)"><g><path d="M 22.6875 -28.078125 L 22.6875 -22.59375 L 15.234375 -22.59375 L 15.234375 0 L 8.40625 0 L 8.40625 -22.59375 L 0.953125 -22.59375 L 0.953125 -28.078125 Z M 22.6875 -28.078125 "/></g></g></g><g fill="#111114" fill-opacity="1"><g transform="translate(215.482652, 224.272017)"><g><path d="M 5.671875 -14.09375 C 6.253906 -14.851562 7.046875 -15.492188 8.046875 -16.015625 C 9.046875 -16.535156 10.175781 -16.796875 11.4375 -16.796875 C 12.875 -16.796875 14.1875 -16.441406 15.375 -15.734375 C 16.5625 -15.023438 17.492188 -14.03125 18.171875 -12.75 C 18.859375 -11.46875 19.203125 -10 19.203125 -8.34375 C 19.203125 -6.675781 18.859375 -5.1875 18.171875 -3.875 C 17.492188 -2.570312 16.5625 -1.554688 15.375 -0.828125 C 14.1875 -0.0976562 12.875 0.265625 11.4375 0.265625 C 10.175781 0.265625 9.050781 0.0078125 8.0625 -0.5 C 7.082031 -1.007812 6.285156 -1.644531 5.671875 -2.40625 L 5.671875 7.859375 L 2.25 7.859375 L 2.25 -16.53125 L 5.671875 -16.53125 Z M 15.71875 -8.34375 C 15.71875 -9.476562 15.484375 -10.460938 15.015625 -11.296875 C 14.546875 -12.128906 13.925781 -12.757812 13.15625 -13.1875 C 12.382812 -13.613281 11.5625 -13.828125 10.6875 -13.828125 C 9.820312 -13.828125 9.003906 -13.609375 8.234375 -13.171875 C 7.460938 -12.734375 6.84375 -12.09375 6.375 -11.25 C 5.90625 -10.40625 5.671875 -9.414062 5.671875 -8.28125 C 5.671875 -7.132812 5.90625 -6.132812 6.375 -5.28125 C 6.84375 -4.4375 7.460938 -3.796875 8.234375 -3.359375 C 9.003906 -2.921875 9.820312 -2.703125 10.6875 -2.703125 C 11.5625 -2.703125 12.382812 -2.925781 13.15625 -3.375 C 13.925781 -3.820312 14.546875 -4.472656 15.015625 -5.328125 C 15.484375 -6.191406 15.71875 -7.195312 15.71875 -8.34375 Z M 15.71875 -8.34375 "/></g></g></g><g fill="#111114" fill-opacity="1"><g transform="translate(235.822636, 224.272017)"><g><path d="M 5.671875 -22.203125 L 5.671875 0 L 2.25 0 L 2.25 -22.203125 Z M 5.671875 -22.203125 "/></g></g></g><g fill="#111114" fill-opacity="1"><g transform="translate(243.742634, 224.272017)"><g><path d="M 1.109375 -8.34375 C 1.109375 -10 1.453125 -11.46875 2.140625 -12.75 C 2.835938 -14.03125 3.78125 -15.023438 4.96875 -15.734375 C 6.15625 -16.441406 7.46875 -16.796875 8.90625 -16.796875 C 10.207031 -16.796875 11.34375 -16.539062 12.3125 -16.03125 C 13.28125 -15.519531 14.054688 -14.882812 14.640625 -14.125 L 14.640625 -16.53125 L 18.09375 -16.53125 L 18.09375 0 L 14.640625 0 L 14.640625 -2.453125 C 14.054688 -1.679688 13.265625 -1.035156 12.265625 -0.515625 C 11.265625 0.00390625 10.125 0.265625 8.84375 0.265625 C 7.425781 0.265625 6.128906 -0.0976562 4.953125 -0.828125 C 3.773438 -1.554688 2.835938 -2.570312 2.140625 -3.875 C 1.453125 -5.1875 1.109375 -6.675781 1.109375 -8.34375 Z M 14.640625 -8.28125 C 14.640625 -9.414062 14.40625 -10.40625 13.9375 -11.25 C 13.46875 -12.09375 12.851562 -12.734375 12.09375 -13.171875 C 11.332031 -13.609375 10.507812 -13.828125 9.625 -13.828125 C 8.75 -13.828125 7.929688 -13.613281 7.171875 -13.1875 C 6.410156 -12.757812 5.796875 -12.128906 5.328125 -11.296875 C 4.859375 -10.460938 4.625 -9.476562 4.625 -8.34375 C 4.625 -7.195312 4.859375 -6.191406 5.328125 -5.328125 C 5.796875 -4.472656 6.414062 -3.820312 7.1875 -3.375 C 7.957031 -2.925781 8.769531 -2.703125 9.625 -2.703125 C 10.507812 -2.703125 11.332031 -2.921875 12.09375 -3.359375 C 12.851562 -3.796875 13.46875 -4.4375 13.9375 -5.28125 C 14.40625 -6.132812 14.640625 -7.132812 14.640625 -8.28125 Z M 14.640625 -8.28125 "/></g></g></g><g fill="#111114" fill-opacity="1"><g transform="translate(264.082617, 224.272017)"><g><path d="M 17.125 -16.53125 L 6.984375 7.765625 L 3.453125 7.765625 L 6.8125 -0.265625 L 0.296875 -16.53125 L 4.109375 -16.53125 L 8.765625 -3.9375 L 13.59375 -16.53125 Z M 17.125 -16.53125 "/></g></g></g></svg>