<svg xmlns="http://www.w3.org/2000/svg" xmlns:xlink="http://www.w3.org/1999/xlink" width="500" zoomAndPan="magnify" viewBox="0 0 375 374.999991" height="500" preserveAspectRatio="xMidYMid meet" version="1.0"><defs><g/><clipPath id="920e111534"><path d="M 40 133.800781 L 75.523438 133.800781 L 75.523438 190 L 40 190 Z M 40 133.800781 " clip-rule="nonzero"/></clipPath><clipPath id="0a709b3d5d"><path d="M 28.273438 167 L 53 167 L 53 196 L 28.273438 196 Z M 28.273438 167 " clip-rule="nonzero"/></clipPath><clipPath id="a2058d97a2"><rect x="0" width="182" y="0" height="67"/></clipPath></defs><g clip-path="url(#920e111534)"><path fill="#ffffff" d="M 53.121094 189.035156 L 52.328125 187.527344 C 50.894531 185.105469 48.859375 183.421875 46.460938 181.996094 C 44.894531 181.066406 43.082031 180.398438 41.574219 179.46875 C 41.191406 179.230469 40.9375 179.058594 40.824219 178.578125 C 40.976562 171.148438 40.503906 163.539062 40.785156 156.128906 C 40.996094 150.601562 42.914062 146.304688 47.300781 142.894531 C 47.890625 140.304688 48.867188 137.714844 50.40625 135.539062 C 50.789062 134.992188 51.820312 133.410156 52.574219 133.890625 C 53.625 134.5625 54.394531 138.09375 54.761719 139.308594 C 54.882812 139.34375 54.894531 139.28125 54.960938 139.234375 C 56.074219 138.460938 57.210938 136.726562 58.359375 135.996094 C 58.796875 135.71875 59.3125 135.5 59.542969 136.132812 C 59.96875 137.320312 59.464844 139.128906 59.613281 140.355469 C 59.730469 141.355469 60.285156 141.234375 60.984375 141.5625 C 62.746094 142.394531 63.527344 143.597656 65.042969 144.605469 C 66.847656 145.800781 69.023438 146.335938 71.140625 146.703125 C 72.320312 146.910156 74.019531 146.941406 75.09375 147.277344 C 76.328125 147.667969 74.9375 149.238281 74.472656 149.773438 C 73.265625 151.144531 71.890625 152 70.023438 152.113281 C 66.25 152.351562 62.144531 151.765625 58.398438 152.277344 C 55.679688 152.648438 53.460938 154.367188 53.210938 157.234375 C 53.175781 157.617188 53.054688 158.328125 53.554688 158.351562 L 70.726562 158.351562 C 71.347656 158.355469 71.574219 158.765625 71.625 159.328125 C 71.925781 162.710938 70.613281 167.695312 66.585938 168.035156 L 53.703125 168.035156 C 53.511719 167.976562 53.121094 168.210938 53.121094 168.386719 Z M 58.292969 144.875 C 57.757812 145.4375 58.90625 146.148438 59.347656 146.316406 C 60.175781 146.636719 63.160156 146.964844 61.785156 145.363281 C 61.277344 144.773438 60.238281 144.503906 59.480469 144.539062 C 59.242188 144.550781 58.441406 144.71875 58.292969 144.875 Z M 58.292969 144.875 " fill-opacity="1" fill-rule="nonzero"/></g><g clip-path="url(#0a709b3d5d)"><path fill="#ffffff" d="M 36.714844 167.972656 C 37.78125 167.882812 36.945312 169.511719 36.8125 170.03125 C 36.316406 171.996094 36.136719 173.921875 36.613281 175.921875 C 37.738281 180.679688 42.460938 181.617188 46.058594 183.878906 C 49.535156 186.066406 51.957031 189.375 52.1875 193.597656 C 52.242188 194.589844 52.390625 195.480469 51.199219 195.660156 C 49.335938 195.9375 46.054688 195.832031 44.105469 195.746094 C 39.363281 195.535156 34.722656 194.09375 31.578125 190.398438 C 26.523438 184.460938 27.390625 174.78125 33.414062 169.832031 C 34.121094 169.253906 35.824219 168.050781 36.710938 167.972656 Z M 36.714844 167.972656 " fill-opacity="1" fill-rule="nonzero"/></g><g transform="matrix(1, 0, 0, 1, 60, 164)"><g clip-path="url(#a2058d97a2)"><g fill="#ffffff" fill-opacity="1"><g transform="translate(0.820159, 52.451788)"><g><path d="M 3.53125 0 L 3.53125 -40.578125 L 30.390625 -40.578125 L 30.390625 -33.5 L 12.109375 -33.5 L 12.109375 -23.84375 L 28.609375 -23.84375 L 28.609375 -16.765625 L 12.109375 -16.765625 L 12.109375 0 Z M 3.53125 0 "/></g></g></g><g fill="#ffffff" fill-opacity="1"><g transform="translate(33.073084, 52.451788)"><g><path d="M 12.046875 0.578125 C 9.140625 0.578125 6.726562 -0.179688 4.8125 -1.703125 C 2.894531 -3.222656 1.9375 -5.488281 1.9375 -8.5 C 1.9375 -10.769531 2.472656 -12.550781 3.546875 -13.84375 C 4.617188 -15.144531 6.019531 -16.09375 7.75 -16.6875 C 9.488281 -17.289062 11.363281 -17.6875 13.375 -17.875 C 16.019531 -18.132812 17.910156 -18.410156 19.046875 -18.703125 C 20.179688 -18.992188 20.75 -19.628906 20.75 -20.609375 L 20.75 -20.71875 C 20.75 -21.976562 20.351562 -22.953125 19.5625 -23.640625 C 18.78125 -24.328125 17.671875 -24.671875 16.234375 -24.671875 C 14.710938 -24.671875 13.5 -24.335938 12.59375 -23.671875 C 11.695312 -23.015625 11.101562 -22.175781 10.8125 -21.15625 L 3.015625 -21.796875 C 3.597656 -24.566406 5.039062 -26.765625 7.34375 -28.390625 C 9.644531 -30.015625 12.617188 -30.828125 16.265625 -30.828125 C 18.523438 -30.828125 20.640625 -30.46875 22.609375 -29.75 C 24.578125 -29.039062 26.164062 -27.929688 27.375 -26.421875 C 28.582031 -24.910156 29.1875 -22.945312 29.1875 -20.53125 L 29.1875 0 L 21.1875 0 L 21.1875 -4.21875 L 20.9375 -4.21875 C 20.195312 -2.800781 19.09375 -1.644531 17.625 -0.75 C 16.15625 0.132812 14.296875 0.578125 12.046875 0.578125 Z M 14.46875 -5.25 C 16.3125 -5.25 17.828125 -5.785156 19.015625 -6.859375 C 20.210938 -7.941406 20.8125 -9.28125 20.8125 -10.875 L 20.8125 -14.109375 C 20.476562 -13.878906 19.960938 -13.675781 19.265625 -13.5 C 18.578125 -13.332031 17.835938 -13.1875 17.046875 -13.0625 C 16.265625 -12.9375 15.5625 -12.828125 14.9375 -12.734375 C 13.457031 -12.523438 12.265625 -12.109375 11.359375 -11.484375 C 10.453125 -10.867188 10 -9.96875 10 -8.78125 C 10 -7.613281 10.414062 -6.734375 11.25 -6.140625 C 12.09375 -5.546875 13.164062 -5.25 14.46875 -5.25 Z M 14.46875 -5.25 "/></g></g></g><g fill="#ffffff" fill-opacity="1"><g transform="translate(65.444935, 52.451788)"><g><path d="M 17.125 0.59375 C 14 0.59375 11.316406 -0.0664062 9.078125 -1.390625 C 6.835938 -2.722656 5.117188 -4.570312 3.921875 -6.9375 C 2.734375 -9.300781 2.140625 -12.019531 2.140625 -15.09375 C 2.140625 -18.21875 2.742188 -20.957031 3.953125 -23.3125 C 5.160156 -25.664062 6.878906 -27.503906 9.109375 -28.828125 C 11.347656 -30.160156 14.003906 -30.828125 17.078125 -30.828125 C 19.734375 -30.828125 22.0625 -30.34375 24.0625 -29.375 C 26.0625 -28.414062 27.640625 -27.0625 28.796875 -25.3125 C 29.953125 -23.570312 30.59375 -21.53125 30.71875 -19.1875 L 22.75 -19.1875 C 22.519531 -20.695312 21.925781 -21.914062 20.96875 -22.84375 C 20.007812 -23.78125 18.757812 -24.25 17.21875 -24.25 C 15.257812 -24.25 13.6875 -23.460938 12.5 -21.890625 C 11.3125 -20.316406 10.71875 -18.09375 10.71875 -15.21875 C 10.71875 -12.3125 11.304688 -10.0625 12.484375 -8.46875 C 13.671875 -6.875 15.25 -6.078125 17.21875 -6.078125 C 18.664062 -6.078125 19.882812 -6.515625 20.875 -7.390625 C 21.875 -8.273438 22.5 -9.53125 22.75 -11.15625 L 30.71875 -11.15625 C 30.582031 -8.832031 29.945312 -6.785156 28.8125 -5.015625 C 27.6875 -3.242188 26.132812 -1.863281 24.15625 -0.875 C 22.175781 0.101562 19.832031 0.59375 17.125 0.59375 Z M 17.125 0.59375 "/></g></g></g><g fill="#ffffff" fill-opacity="1"><g transform="translate(98.213016, 52.451788)"><g><path d="M 3.375 0 L 3.375 -30.4375 L 11.8125 -30.4375 L 11.8125 0 Z M 7.609375 -34.359375 C 6.367188 -34.359375 5.296875 -34.773438 4.390625 -35.609375 C 3.492188 -36.453125 3.046875 -37.460938 3.046875 -38.640625 C 3.046875 -39.816406 3.492188 -40.816406 4.390625 -41.640625 C 5.296875 -42.472656 6.367188 -42.890625 7.609375 -42.890625 C 8.859375 -42.890625 9.929688 -42.472656 10.828125 -41.640625 C 11.734375 -40.816406 12.1875 -39.816406 12.1875 -38.640625 C 12.1875 -37.460938 11.734375 -36.453125 10.828125 -35.609375 C 9.929688 -34.773438 8.859375 -34.359375 7.609375 -34.359375 Z M 7.609375 -34.359375 "/></g></g></g><g fill="#ffffff" fill-opacity="1"><g transform="translate(113.388557, 52.451788)"><g><path d="M 11.8125 -40.578125 L 11.8125 0 L 3.375 0 L 3.375 -40.578125 Z M 11.8125 -40.578125 "/></g></g></g><g fill="#ffffff" fill-opacity="1"><g transform="translate(128.564098, 52.451788)"><g><path d="M 11.8125 -40.578125 L 11.8125 0 L 3.375 0 L 3.375 -40.578125 Z M 11.8125 -40.578125 "/></g></g></g><g fill="#ffffff" fill-opacity="1"><g transform="translate(143.73964, 52.451788)"><g><path d="M 3.375 0 L 3.375 -30.4375 L 11.8125 -30.4375 L 11.8125 0 Z M 7.609375 -34.359375 C 6.367188 -34.359375 5.296875 -34.773438 4.390625 -35.609375 C 3.492188 -36.453125 3.046875 -37.460938 3.046875 -38.640625 C 3.046875 -39.816406 3.492188 -40.816406 4.390625 -41.640625 C 5.296875 -42.472656 6.367188 -42.890625 7.609375 -42.890625 C 8.859375 -42.890625 9.929688 -42.472656 10.828125 -41.640625 C 11.734375 -40.816406 12.1875 -39.816406 12.1875 -38.640625 C 12.1875 -37.460938 11.734375 -36.453125 10.828125 -35.609375 C 9.929688 -34.773438 8.859375 -34.359375 7.609375 -34.359375 Z M 7.609375 -34.359375 "/></g></g></g><g fill="#ffffff" fill-opacity="1"><g transform="translate(158.915181, 52.451788)"><g><path d="M 19.5625 -30.4375 L 19.5625 -24.09375 L 13.828125 -24.09375 L 13.828125 -9.359375 C 13.828125 -8.191406 14.09375 -7.398438 14.625 -6.984375 C 15.15625 -6.578125 15.84375 -6.375 16.6875 -6.375 C 17.082031 -6.375 17.476562 -6.410156 17.875 -6.484375 C 18.269531 -6.554688 18.570312 -6.613281 18.78125 -6.65625 L 20.109375 -0.375 C 19.691406 -0.238281 19.097656 -0.0820312 18.328125 0.09375 C 17.554688 0.269531 16.625 0.378906 15.53125 0.421875 C 12.46875 0.546875 10.007812 -0.117188 8.15625 -1.578125 C 6.300781 -3.035156 5.378906 -5.257812 5.390625 -8.25 L 5.390625 -24.09375 L 1.234375 -24.09375 L 1.234375 -30.4375 L 5.390625 -30.4375 L 5.390625 -37.71875 L 13.828125 -37.71875 L 13.828125 -30.4375 Z M 19.5625 -30.4375 "/></g></g></g></g></g><g fill="#ffffff" fill-opacity="1"><g transform="translate(241.083035, 211.115698)"><g><path d="M 8.046875 -11.984375 L 8.046875 0 L 2.296875 0 L 2.296875 -27.640625 L 7.875 -27.640625 L 7.875 -17.0625 L 8.125 -17.0625 C 8.601562 -18.289062 9.359375 -19.253906 10.390625 -19.953125 C 11.429688 -20.648438 12.738281 -21 14.3125 -21 C 16.476562 -21 18.21875 -20.304688 19.53125 -18.921875 C 20.84375 -17.535156 21.492188 -15.628906 21.484375 -13.203125 L 21.484375 0 L 15.734375 0 L 15.734375 -12.171875 C 15.742188 -13.453125 15.421875 -14.445312 14.765625 -15.15625 C 14.117188 -15.863281 13.207031 -16.21875 12.03125 -16.21875 C 10.863281 -16.21875 9.910156 -15.847656 9.171875 -15.109375 C 8.429688 -14.367188 8.054688 -13.328125 8.046875 -11.984375 Z M 8.046875 -11.984375 "/></g></g></g><g fill="#ffffff" fill-opacity="1"><g transform="translate(264.801108, 211.115698)"><g><path d="M 15.578125 -8.828125 L 15.578125 -20.734375 L 21.328125 -20.734375 L 21.328125 0 L 15.8125 0 L 15.8125 -3.765625 L 15.59375 -3.765625 C 15.125 -2.546875 14.347656 -1.566406 13.265625 -0.828125 C 12.179688 -0.0976562 10.863281 0.265625 9.3125 0.265625 C 7.226562 0.265625 5.539062 -0.425781 4.25 -1.8125 C 2.957031 -3.207031 2.304688 -5.113281 2.296875 -7.53125 L 2.296875 -20.734375 L 8.046875 -20.734375 L 8.046875 -8.5625 C 8.054688 -7.332031 8.382812 -6.363281 9.03125 -5.65625 C 9.675781 -4.945312 10.539062 -4.59375 11.625 -4.59375 C 12.664062 -4.59375 13.585938 -4.953125 14.390625 -5.671875 C 15.191406 -6.390625 15.585938 -7.441406 15.578125 -8.828125 Z M 15.578125 -8.828125 "/></g></g></g><g fill="#ffffff" fill-opacity="1"><g transform="translate(288.424745, 211.115698)"><g><path d="M 2.40625 0 L 2.40625 -27.640625 L 8.15625 -27.640625 L 8.15625 -17.25 L 8.328125 -17.25 C 8.585938 -17.8125 8.953125 -18.378906 9.421875 -18.953125 C 9.898438 -19.535156 10.53125 -20.019531 11.3125 -20.40625 C 12.101562 -20.800781 13.070312 -21 14.21875 -21 C 15.738281 -21 17.132812 -20.601562 18.40625 -19.8125 C 19.675781 -19.03125 20.691406 -17.847656 21.453125 -16.265625 C 22.222656 -14.691406 22.609375 -12.71875 22.609375 -10.34375 C 22.609375 -8.03125 22.234375 -6.078125 21.484375 -4.484375 C 20.742188 -2.898438 19.738281 -1.695312 18.46875 -0.875 C 17.207031 -0.0625 15.785156 0.34375 14.203125 0.34375 C 13.085938 0.34375 12.140625 0.160156 11.359375 -0.203125 C 10.585938 -0.578125 9.957031 -1.046875 9.46875 -1.609375 C 8.976562 -2.171875 8.597656 -2.738281 8.328125 -3.3125 L 8.0625 -3.3125 L 8.0625 0 Z M 8.03125 -10.359375 C 8.03125 -8.515625 8.410156 -7.03125 9.171875 -5.90625 C 9.929688 -4.789062 11.003906 -4.234375 12.390625 -4.234375 C 13.796875 -4.234375 14.875 -4.800781 15.625 -5.9375 C 16.375 -7.082031 16.75 -8.554688 16.75 -10.359375 C 16.75 -12.160156 16.375 -13.617188 15.625 -14.734375 C 14.882812 -15.859375 13.804688 -16.421875 12.390625 -16.421875 C 10.992188 -16.421875 9.914062 -15.875 9.15625 -14.78125 C 8.40625 -13.6875 8.03125 -12.210938 8.03125 -10.359375 Z M 8.03125 -10.359375 "/></g></g></g></svg>