<svg xmlns="http://www.w3.org/2000/svg" xmlns:xlink="http://www.w3.org/1999/xlink" width="500" zoomAndPan="magnify" viewBox="0 0 375 374.999991" height="500" preserveAspectRatio="xMidYMid meet" version="1.0"><defs><filter x="0%" y="0%" width="100%" height="100%" id="d3aec42b9e"><feColorMatrix values="0 0 0 0 1 0 0 0 0 1 0 0 0 0 1 0 0 0 1 0" color-interpolation-filters="sRGB"/></filter><g/><clipPath id="39b8f7ce32"><path d="M 40 133.800781 L 75.523438 133.800781 L 75.523438 190 L 40 190 Z M 40 133.800781 " clip-rule="nonzero"/></clipPath><clipPath id="e7659abbed"><path d="M 28.273438 168 L 53 168 L 53 196.050781 L 28.273438 196.050781 Z M 28.273438 168 " clip-rule="nonzero"/></clipPath><clipPath id="491f730273"><rect x="0" width="182" y="0" height="67"/></clipPath><clipPath id="86ed8f43e8"><path d="M 141.953125 76.117188 L 375 76.117188 L 375 319.117188 L 141.953125 319.117188 Z M 141.953125 76.117188 " clip-rule="nonzero"/></clipPath><clipPath id="7a5cdc8e67"><path d="M 0.953125 0.117188 L 234 0.117188 L 234 243.117188 L 0.953125 243.117188 Z M 0.953125 0.117188 " clip-rule="nonzero"/></clipPath><clipPath id="793f7f5ec1"><path d="M 9.203125 4.617188 L 234 4.617188 L 234 238.617188 L 9.203125 238.617188 Z M 9.203125 4.617188 " clip-rule="nonzero"/></clipPath><linearGradient x1="-109.484" gradientTransform="matrix(0.750232, 0, 0, 0.749999, 91.341668, 90.115732)" y1="42" x2="190.152369" gradientUnits="userSpaceOnUse" y2="42" id="2db6af5893"><stop stop-opacity="1" stop-color="rgb(25.878906%, 1.568604%, 49.409485%)" offset="0"/><stop stop-opacity="1" stop-color="rgb(25.878906%, 1.568604%, 49.409485%)" offset="0.25"/><stop stop-opacity="1" stop-color="rgb(25.878906%, 1.568604%, 49.409485%)" offset="0.375"/><stop stop-opacity="1" stop-color="rgb(25.878906%, 1.568604%, 49.409485%)" offset="0.390625"/><stop stop-opacity="1" stop-color="rgb(25.878906%, 1.568604%, 49.409485%)" offset="0.398438"/><stop stop-opacity="1" stop-color="rgb(25.701904%, 2.288818%, 49.505615%)" offset="0.402344"/><stop stop-opacity="1" stop-color="rgb(25.524902%, 3.009033%, 49.601746%)" offset="0.40625"/><stop stop-opacity="1" stop-color="rgb(25.285339%, 3.98407%, 49.731445%)" offset="0.410156"/><stop stop-opacity="1" stop-color="rgb(25.045776%, 4.960632%, 49.861145%)" offset="0.414062"/><stop stop-opacity="1" stop-color="rgb(24.806213%, 5.935669%, 49.990845%)" offset="0.417969"/><stop stop-opacity="1" stop-color="rgb(24.56665%, 6.912231%, 50.12207%)" offset="0.421875"/><stop stop-opacity="1" stop-color="rgb(24.325562%, 7.887268%, 50.25177%)" offset="0.425781"/><stop stop-opacity="1" stop-color="rgb(24.085999%, 8.863831%, 50.38147%)" offset="0.429688"/><stop stop-opacity="1" stop-color="rgb(23.846436%, 9.838867%, 50.511169%)" offset="0.433594"/><stop stop-opacity="1" stop-color="rgb(23.606873%, 10.81543%, 50.642395%)" offset="0.4375"/><stop stop-opacity="1" stop-color="rgb(23.36731%, 11.790466%, 50.772095%)" offset="0.441406"/><stop stop-opacity="1" stop-color="rgb(23.127747%, 12.767029%, 50.901794%)" offset="0.445312"/><stop stop-opacity="1" stop-color="rgb(22.886658%, 13.743591%, 51.031494%)" offset="0.449219"/><stop stop-opacity="1" stop-color="rgb(22.647095%, 14.720154%, 51.16272%)" offset="0.453125"/><stop stop-opacity="1" stop-color="rgb(22.407532%, 15.69519%, 51.292419%)" offset="0.457031"/><stop stop-opacity="1" stop-color="rgb(22.167969%, 16.671753%, 51.423645%)" offset="0.460938"/><stop stop-opacity="1" stop-color="rgb(21.928406%, 17.64679%, 51.553345%)" offset="0.464844"/><stop stop-opacity="1" stop-color="rgb(21.688843%, 18.623352%, 51.683044%)" offset="0.46875"/><stop stop-opacity="1" stop-color="rgb(21.447754%, 19.598389%, 51.812744%)" offset="0.472656"/><stop stop-opacity="1" stop-color="rgb(21.208191%, 20.574951%, 51.94397%)" offset="0.476562"/><stop stop-opacity="1" stop-color="rgb(20.968628%, 21.549988%, 52.073669%)" offset="0.480469"/><stop stop-opacity="1" stop-color="rgb(20.729065%, 22.52655%, 52.203369%)" offset="0.484375"/><stop stop-opacity="1" stop-color="rgb(20.489502%, 23.501587%, 52.333069%)" offset="0.488281"/><stop stop-opacity="1" stop-color="rgb(20.249939%, 24.478149%, 52.464294%)" offset="0.492187"/><stop stop-opacity="1" stop-color="rgb(20.00885%, 25.453186%, 52.593994%)" offset="0.496094"/><stop stop-opacity="1" stop-color="rgb(19.769287%, 26.429749%, 52.723694%)" offset="0.5"/><stop stop-opacity="1" stop-color="rgb(19.529724%, 27.404785%, 52.853394%)" offset="0.503906"/><stop stop-opacity="1" stop-color="rgb(19.290161%, 28.381348%, 52.984619%)" offset="0.507812"/><stop stop-opacity="1" stop-color="rgb(19.050598%, 29.356384%, 53.114319%)" offset="0.511719"/><stop stop-opacity="1" stop-color="rgb(18.811035%, 30.332947%, 53.244019%)" offset="0.515625"/><stop stop-opacity="1" stop-color="rgb(18.569946%, 31.307983%, 53.373718%)" offset="0.519531"/><stop stop-opacity="1" stop-color="rgb(18.330383%, 32.284546%, 53.504944%)" offset="0.523438"/><stop stop-opacity="1" stop-color="rgb(18.09082%, 33.259583%, 53.634644%)" offset="0.527344"/><stop stop-opacity="1" stop-color="rgb(17.851257%, 34.236145%, 53.764343%)" offset="0.53125"/><stop stop-opacity="1" stop-color="rgb(17.611694%, 35.211182%, 53.894043%)" offset="0.535156"/><stop stop-opacity="1" stop-color="rgb(17.372131%, 36.187744%, 54.025269%)" offset="0.539062"/><stop stop-opacity="1" stop-color="rgb(17.131042%, 37.162781%, 54.154968%)" offset="0.542969"/><stop stop-opacity="1" stop-color="rgb(16.891479%, 38.139343%, 54.286194%)" offset="0.546875"/><stop stop-opacity="1" stop-color="rgb(16.651917%, 39.11438%, 54.415894%)" offset="0.550781"/><stop stop-opacity="1" stop-color="rgb(16.412354%, 40.090942%, 54.545593%)" offset="0.554688"/><stop stop-opacity="1" stop-color="rgb(16.172791%, 41.065979%, 54.675293%)" offset="0.558594"/><stop stop-opacity="1" stop-color="rgb(15.933228%, 42.042542%, 54.806519%)" offset="0.5625"/><stop stop-opacity="1" stop-color="rgb(15.692139%, 43.017578%, 54.936218%)" offset="0.566406"/><stop stop-opacity="1" stop-color="rgb(15.452576%, 43.994141%, 55.065918%)" offset="0.570312"/><stop stop-opacity="1" stop-color="rgb(15.213013%, 44.970703%, 55.195618%)" offset="0.574219"/><stop stop-opacity="1" stop-color="rgb(14.97345%, 45.947266%, 55.326843%)" offset="0.578125"/><stop stop-opacity="1" stop-color="rgb(14.733887%, 46.922302%, 55.456543%)" offset="0.582031"/><stop stop-opacity="1" stop-color="rgb(14.494324%, 47.898865%, 55.586243%)" offset="0.585938"/><stop stop-opacity="1" stop-color="rgb(14.253235%, 48.873901%, 55.715942%)" offset="0.589844"/><stop stop-opacity="1" stop-color="rgb(14.013672%, 49.850464%, 55.847168%)" offset="0.59375"/><stop stop-opacity="1" stop-color="rgb(13.774109%, 50.8255%, 55.976868%)" offset="0.597656"/><stop stop-opacity="1" stop-color="rgb(13.534546%, 51.802063%, 56.106567%)" offset="0.601562"/><stop stop-opacity="1" stop-color="rgb(13.294983%, 52.7771%, 56.236267%)" offset="0.605469"/><stop stop-opacity="1" stop-color="rgb(13.05542%, 53.753662%, 56.367493%)" offset="0.609375"/><stop stop-opacity="1" stop-color="rgb(12.814331%, 54.728699%, 56.497192%)" offset="0.613281"/><stop stop-opacity="1" stop-color="rgb(12.574768%, 55.705261%, 56.628418%)" offset="0.617188"/><stop stop-opacity="1" stop-color="rgb(12.335205%, 56.680298%, 56.758118%)" offset="0.621094"/><stop stop-opacity="1" stop-color="rgb(12.095642%, 57.65686%, 56.887817%)" offset="0.625"/><stop stop-opacity="1" stop-color="rgb(11.856079%, 58.631897%, 57.017517%)" offset="0.628906"/><stop stop-opacity="1" stop-color="rgb(11.616516%, 59.608459%, 57.148743%)" offset="0.632812"/><stop stop-opacity="1" stop-color="rgb(11.375427%, 60.583496%, 57.278442%)" offset="0.636719"/><stop stop-opacity="1" stop-color="rgb(11.135864%, 61.560059%, 57.408142%)" offset="0.640625"/><stop stop-opacity="1" stop-color="rgb(10.896301%, 62.535095%, 57.537842%)" offset="0.644531"/><stop stop-opacity="1" stop-color="rgb(10.656738%, 63.511658%, 57.669067%)" offset="0.648438"/><stop stop-opacity="1" stop-color="rgb(10.417175%, 64.486694%, 57.798767%)" offset="0.652344"/><stop stop-opacity="1" stop-color="rgb(10.177612%, 65.463257%, 57.928467%)" offset="0.65625"/><stop stop-opacity="1" stop-color="rgb(9.936523%, 66.438293%, 58.058167%)" offset="0.660156"/><stop stop-opacity="1" stop-color="rgb(9.69696%, 67.414856%, 58.189392%)" offset="0.664062"/><stop stop-opacity="1" stop-color="rgb(9.457397%, 68.389893%, 58.319092%)" offset="0.667969"/><stop stop-opacity="1" stop-color="rgb(9.217834%, 69.366455%, 58.448792%)" offset="0.671875"/><stop stop-opacity="1" stop-color="rgb(8.978271%, 70.341492%, 58.578491%)" offset="0.675781"/><stop stop-opacity="1" stop-color="rgb(8.738708%, 71.318054%, 58.709717%)" offset="0.679687"/><stop stop-opacity="1" stop-color="rgb(8.49762%, 72.293091%, 58.839417%)" offset="0.683594"/><stop stop-opacity="1" stop-color="rgb(8.258057%, 73.269653%, 58.969116%)" offset="0.6875"/><stop stop-opacity="1" stop-color="rgb(8.018494%, 74.24469%, 59.098816%)" offset="0.691406"/><stop stop-opacity="1" stop-color="rgb(7.778931%, 75.221252%, 59.230042%)" offset="0.695312"/><stop stop-opacity="1" stop-color="rgb(7.539368%, 76.196289%, 59.359741%)" offset="0.699219"/><stop stop-opacity="1" stop-color="rgb(7.299805%, 77.172852%, 59.490967%)" offset="0.703125"/><stop stop-opacity="1" stop-color="rgb(7.058716%, 78.149414%, 59.620667%)" offset="0.707031"/><stop stop-opacity="1" stop-color="rgb(6.819153%, 79.125977%, 59.750366%)" offset="0.710937"/><stop stop-opacity="1" stop-color="rgb(6.57959%, 80.101013%, 59.880066%)" offset="0.714844"/><stop stop-opacity="1" stop-color="rgb(6.340027%, 81.077576%, 60.011292%)" offset="0.71875"/><stop stop-opacity="1" stop-color="rgb(6.100464%, 82.052612%, 60.140991%)" offset="0.722656"/><stop stop-opacity="1" stop-color="rgb(5.860901%, 83.029175%, 60.270691%)" offset="0.726562"/><stop stop-opacity="1" stop-color="rgb(5.619812%, 84.004211%, 60.400391%)" offset="0.730469"/><stop stop-opacity="1" stop-color="rgb(5.380249%, 84.980774%, 60.531616%)" offset="0.734375"/><stop stop-opacity="1" stop-color="rgb(5.140686%, 85.955811%, 60.661316%)" offset="0.738281"/><stop stop-opacity="1" stop-color="rgb(4.901123%, 86.932373%, 60.791016%)" offset="0.742187"/><stop stop-opacity="1" stop-color="rgb(4.66156%, 87.90741%, 60.920715%)" offset="0.746094"/><stop stop-opacity="1" stop-color="rgb(4.421997%, 88.883972%, 61.051941%)" offset="0.75"/><stop stop-opacity="1" stop-color="rgb(4.180908%, 89.859009%, 61.181641%)" offset="0.753906"/><stop stop-opacity="1" stop-color="rgb(3.941345%, 90.835571%, 61.31134%)" offset="0.757812"/><stop stop-opacity="1" stop-color="rgb(3.701782%, 91.810608%, 61.44104%)" offset="0.761719"/><stop stop-opacity="1" stop-color="rgb(3.462219%, 92.78717%, 61.572266%)" offset="0.765625"/><stop stop-opacity="1" stop-color="rgb(3.222656%, 93.762207%, 61.701965%)" offset="0.769531"/><stop stop-opacity="1" stop-color="rgb(2.983093%, 94.73877%, 61.833191%)" offset="0.773438"/><stop stop-opacity="1" stop-color="rgb(2.865601%, 95.213318%, 61.895752%)" offset="0.777344"/><stop stop-opacity="1" stop-color="rgb(2.749634%, 95.689392%, 61.959839%)" offset="0.78125"/><stop stop-opacity="1" stop-color="rgb(2.749634%, 95.689392%, 61.959839%)" offset="0.8125"/><stop stop-opacity="1" stop-color="rgb(2.749634%, 95.689392%, 61.959839%)" offset="0.875"/><stop stop-opacity="1" stop-color="rgb(2.749634%, 95.689392%, 61.959839%)" offset="1"/></linearGradient><clipPath id="1774afedfa"><rect x="0" width="234" y="0" height="244"/></clipPath><clipPath id="d198f05fa7"><path d="M 0.953125 0.117188 L 234 0.117188 L 234 243.117188 L 0.953125 243.117188 Z M 0.953125 0.117188 " clip-rule="nonzero"/></clipPath><clipPath id="f4f1f04ab1"><rect x="0" width="234" y="0" height="244"/></clipPath><clipPath id="a73449ddae"><rect x="0" width="234" y="0" height="244"/></clipPath><mask id="df31ad4cda"><g filter="url(#d3aec42b9e)"><g><g clip-path="url(#a73449ddae)"><g clip-path="url(#d198f05fa7)"><g><g clip-path="url(#f4f1f04ab1)"><g fill="#000000" fill-opacity="1"><g transform="translate(98.840028, 137.365698)"><g><path d="M 9.53125 -14.1875 L 9.53125 0 L 2.71875 0 L 2.71875 -32.734375 L 9.328125 -32.734375 L 9.328125 -20.21875 L 9.625 -20.21875 C 10.1875 -21.664062 11.082031 -22.800781 12.3125 -23.625 C 13.539062 -24.445312 15.085938 -24.859375 16.953125 -24.859375 C 19.515625 -24.859375 21.570312 -24.035156 23.125 -22.390625 C 24.675781 -20.753906 25.445312 -18.5 25.4375 -15.625 L 25.4375 0 L 18.625 0 L 18.625 -14.40625 C 18.644531 -15.925781 18.265625 -17.101562 17.484375 -17.9375 C 16.710938 -18.78125 15.632812 -19.203125 14.25 -19.203125 C 12.863281 -19.203125 11.734375 -18.765625 10.859375 -17.890625 C 9.984375 -17.015625 9.539062 -15.78125 9.53125 -14.1875 Z M 9.53125 -14.1875 "/></g></g></g><g fill="#000000" fill-opacity="1"><g transform="translate(126.932983, 137.365698)"><g><path d="M 18.453125 -10.453125 L 18.453125 -24.546875 L 25.265625 -24.546875 L 25.265625 0 L 18.734375 0 L 18.734375 -4.453125 L 18.46875 -4.453125 C 17.914062 -3.015625 17 -1.859375 15.71875 -0.984375 C 14.4375 -0.117188 12.875 0.3125 11.03125 0.3125 C 8.550781 0.3125 6.546875 -0.507812 5.015625 -2.15625 C 3.492188 -3.800781 2.726562 -6.054688 2.71875 -8.921875 L 2.71875 -24.546875 L 9.53125 -24.546875 L 9.53125 -10.125 C 9.539062 -8.675781 9.925781 -7.53125 10.6875 -6.6875 C 11.457031 -5.851562 12.488281 -5.4375 13.78125 -5.4375 C 15 -5.4375 16.082031 -5.859375 17.03125 -6.703125 C 17.988281 -7.554688 18.460938 -8.804688 18.453125 -10.453125 Z M 18.453125 -10.453125 "/></g></g></g><g fill="#000000" fill-opacity="1"><g transform="translate(154.914072, 137.365698)"><g><path d="M 2.84375 0 L 2.84375 -32.734375 L 9.65625 -32.734375 L 9.65625 -20.421875 L 9.859375 -20.421875 C 10.171875 -21.085938 10.609375 -21.757812 11.171875 -22.4375 C 11.734375 -23.125 12.476562 -23.695312 13.40625 -24.15625 C 14.332031 -24.625 15.476562 -24.859375 16.84375 -24.859375 C 18.644531 -24.859375 20.296875 -24.390625 21.796875 -23.453125 C 23.296875 -22.523438 24.5 -21.125 25.40625 -19.25 C 26.320312 -17.382812 26.78125 -15.046875 26.78125 -12.234375 C 26.78125 -9.503906 26.335938 -7.195312 25.453125 -5.3125 C 24.566406 -3.4375 23.375 -2.015625 21.875 -1.046875 C 20.375 -0.078125 18.691406 0.40625 16.828125 0.40625 C 15.503906 0.40625 14.378906 0.1875 13.453125 -0.25 C 12.535156 -0.6875 11.785156 -1.238281 11.203125 -1.90625 C 10.628906 -2.570312 10.179688 -3.25 9.859375 -3.9375 L 9.5625 -3.9375 L 9.5625 0 Z M 9.515625 -12.265625 C 9.515625 -10.085938 9.960938 -8.332031 10.859375 -7 C 11.753906 -5.675781 13.023438 -5.015625 14.671875 -5.015625 C 16.335938 -5.015625 17.613281 -5.6875 18.5 -7.03125 C 19.382812 -8.382812 19.828125 -10.128906 19.828125 -12.265625 C 19.828125 -14.398438 19.382812 -16.128906 18.5 -17.453125 C 17.625 -18.785156 16.347656 -19.453125 14.671875 -19.453125 C 13.015625 -19.453125 11.738281 -18.800781 10.84375 -17.5 C 9.957031 -16.207031 9.515625 -14.460938 9.515625 -12.265625 Z M 9.515625 -12.265625 "/></g></g></g></g></g></g></g></g></g></mask><clipPath id="7d3958bf8f"><path d="M 9.203125 4.617188 L 234 4.617188 L 234 238.617188 L 9.203125 238.617188 Z M 9.203125 4.617188 " clip-rule="nonzero"/></clipPath><clipPath id="d8a0e8132d"><rect x="0" width="234" y="0" height="244"/></clipPath><clipPath id="daafa18e51"><rect x="0" width="234" y="0" height="244"/></clipPath></defs><g clip-path="url(#39b8f7ce32)"><path fill="#000000" d="M 53.078125 189.222656 L 52.285156 187.710938 C 50.855469 185.277344 48.824219 183.589844 46.429688 182.160156 C 44.863281 181.226562 43.058594 180.558594 41.550781 179.621094 C 41.167969 179.382812 40.917969 179.210938 40.800781 178.730469 C 40.953125 171.277344 40.480469 163.640625 40.765625 156.203125 C 40.976562 150.660156 42.890625 146.347656 47.269531 142.925781 C 47.855469 140.328125 48.832031 137.726562 50.367188 135.546875 C 50.75 134.996094 51.78125 133.410156 52.53125 133.890625 C 53.582031 134.5625 54.351562 138.109375 54.71875 139.328125 C 54.835938 139.359375 54.847656 139.296875 54.914062 139.25 C 56.027344 138.476562 57.160156 136.738281 58.304688 136.003906 C 58.742188 135.726562 59.261719 135.503906 59.488281 136.140625 C 59.914062 137.332031 59.410156 139.144531 59.558594 140.378906 C 59.675781 141.378906 60.230469 141.257812 60.925781 141.585938 C 62.6875 142.421875 63.464844 143.632812 64.976562 144.640625 C 66.78125 145.84375 68.953125 146.378906 71.0625 146.75 C 72.246094 146.953125 73.941406 146.984375 75.011719 147.324219 C 76.246094 147.714844 74.859375 149.292969 74.390625 149.824219 C 73.1875 151.207031 71.816406 152.058594 69.953125 152.175781 C 66.183594 152.414062 62.085938 151.824219 58.347656 152.339844 C 55.632812 152.710938 53.417969 154.4375 53.167969 157.3125 C 53.132812 157.699219 53.011719 158.410156 53.511719 158.433594 L 70.652344 158.433594 C 71.269531 158.4375 71.5 158.847656 71.550781 159.414062 C 71.847656 162.808594 70.542969 167.808594 66.519531 168.152344 L 53.660156 168.152344 C 53.46875 168.09375 53.078125 168.328125 53.078125 168.503906 Z M 58.242188 144.910156 C 57.707031 145.476562 58.855469 146.191406 59.292969 146.359375 C 60.121094 146.683594 63.101562 147.007812 61.726562 145.402344 C 61.21875 144.808594 60.183594 144.539062 59.425781 144.574219 C 59.1875 144.585938 58.390625 144.753906 58.242188 144.910156 Z M 58.242188 144.910156 " fill-opacity="1" fill-rule="nonzero"/></g><g clip-path="url(#e7659abbed)"><path fill="#000000" d="M 36.699219 168.089844 C 37.765625 167.996094 36.933594 169.632812 36.796875 170.15625 C 36.300781 172.125 36.125 174.058594 36.597656 176.0625 C 37.722656 180.839844 42.433594 181.78125 46.027344 184.050781 C 49.5 186.242188 51.914062 189.566406 52.144531 193.800781 C 52.199219 194.796875 52.347656 195.691406 51.160156 195.871094 C 49.300781 196.148438 46.023438 196.042969 44.078125 195.957031 C 39.34375 195.746094 34.710938 194.296875 31.570312 190.589844 C 26.527344 184.632812 27.394531 174.917969 33.402344 169.957031 C 34.109375 169.371094 35.8125 168.167969 36.695312 168.089844 Z M 36.699219 168.089844 " fill-opacity="1" fill-rule="nonzero"/></g><g transform="matrix(1, 0, 0, 1, 60, 164)"><g clip-path="url(#491f730273)"><g fill="#000000" fill-opacity="1"><g transform="translate(0.820159, 52.451788)"><g><path d="M 3.53125 0 L 3.53125 -40.578125 L 30.390625 -40.578125 L 30.390625 -33.5 L 12.109375 -33.5 L 12.109375 -23.84375 L 28.609375 -23.84375 L 28.609375 -16.765625 L 12.109375 -16.765625 L 12.109375 0 Z M 3.53125 0 "/></g></g></g><g fill="#000000" fill-opacity="1"><g transform="translate(33.073084, 52.451788)"><g><path d="M 12.046875 0.578125 C 9.140625 0.578125 6.726562 -0.179688 4.8125 -1.703125 C 2.894531 -3.222656 1.9375 -5.488281 1.9375 -8.5 C 1.9375 -10.769531 2.472656 -12.550781 3.546875 -13.84375 C 4.617188 -15.144531 6.019531 -16.09375 7.75 -16.6875 C 9.488281 -17.289062 11.363281 -17.6875 13.375 -17.875 C 16.019531 -18.132812 17.910156 -18.410156 19.046875 -18.703125 C 20.179688 -18.992188 20.75 -19.628906 20.75 -20.609375 L 20.75 -20.71875 C 20.75 -21.976562 20.351562 -22.953125 19.5625 -23.640625 C 18.78125 -24.328125 17.671875 -24.671875 16.234375 -24.671875 C 14.710938 -24.671875 13.5 -24.335938 12.59375 -23.671875 C 11.695312 -23.015625 11.101562 -22.175781 10.8125 -21.15625 L 3.015625 -21.796875 C 3.597656 -24.566406 5.039062 -26.765625 7.34375 -28.390625 C 9.644531 -30.015625 12.617188 -30.828125 16.265625 -30.828125 C 18.523438 -30.828125 20.640625 -30.46875 22.609375 -29.75 C 24.578125 -29.039062 26.164062 -27.929688 27.375 -26.421875 C 28.582031 -24.910156 29.1875 -22.945312 29.1875 -20.53125 L 29.1875 0 L 21.1875 0 L 21.1875 -4.21875 L 20.9375 -4.21875 C 20.195312 -2.800781 19.09375 -1.644531 17.625 -0.75 C 16.15625 0.132812 14.296875 0.578125 12.046875 0.578125 Z M 14.46875 -5.25 C 16.3125 -5.25 17.828125 -5.785156 19.015625 -6.859375 C 20.210938 -7.941406 20.8125 -9.28125 20.8125 -10.875 L 20.8125 -14.109375 C 20.476562 -13.878906 19.960938 -13.675781 19.265625 -13.5 C 18.578125 -13.332031 17.835938 -13.1875 17.046875 -13.0625 C 16.265625 -12.9375 15.5625 -12.828125 14.9375 -12.734375 C 13.457031 -12.523438 12.265625 -12.109375 11.359375 -11.484375 C 10.453125 -10.867188 10 -9.96875 10 -8.78125 C 10 -7.613281 10.414062 -6.734375 11.25 -6.140625 C 12.09375 -5.546875 13.164062 -5.25 14.46875 -5.25 Z M 14.46875 -5.25 "/></g></g></g><g fill="#000000" fill-opacity="1"><g transform="translate(65.444935, 52.451788)"><g><path d="M 17.125 0.59375 C 14 0.59375 11.316406 -0.0664062 9.078125 -1.390625 C 6.835938 -2.722656 5.117188 -4.570312 3.921875 -6.9375 C 2.734375 -9.300781 2.140625 -12.019531 2.140625 -15.09375 C 2.140625 -18.21875 2.742188 -20.957031 3.953125 -23.3125 C 5.160156 -25.664062 6.878906 -27.503906 9.109375 -28.828125 C 11.347656 -30.160156 14.003906 -30.828125 17.078125 -30.828125 C 19.734375 -30.828125 22.0625 -30.34375 24.0625 -29.375 C 26.0625 -28.414062 27.640625 -27.0625 28.796875 -25.3125 C 29.953125 -23.570312 30.59375 -21.53125 30.71875 -19.1875 L 22.75 -19.1875 C 22.519531 -20.695312 21.925781 -21.914062 20.96875 -22.84375 C 20.007812 -23.78125 18.757812 -24.25 17.21875 -24.25 C 15.257812 -24.25 13.6875 -23.460938 12.5 -21.890625 C 11.3125 -20.316406 10.71875 -18.09375 10.71875 -15.21875 C 10.71875 -12.3125 11.304688 -10.0625 12.484375 -8.46875 C 13.671875 -6.875 15.25 -6.078125 17.21875 -6.078125 C 18.664062 -6.078125 19.882812 -6.515625 20.875 -7.390625 C 21.875 -8.273438 22.5 -9.53125 22.75 -11.15625 L 30.71875 -11.15625 C 30.582031 -8.832031 29.945312 -6.785156 28.8125 -5.015625 C 27.6875 -3.242188 26.132812 -1.863281 24.15625 -0.875 C 22.175781 0.101562 19.832031 0.59375 17.125 0.59375 Z M 17.125 0.59375 "/></g></g></g><g fill="#000000" fill-opacity="1"><g transform="translate(98.213016, 52.451788)"><g><path d="M 3.375 0 L 3.375 -30.4375 L 11.8125 -30.4375 L 11.8125 0 Z M 7.609375 -34.359375 C 6.367188 -34.359375 5.296875 -34.773438 4.390625 -35.609375 C 3.492188 -36.453125 3.046875 -37.460938 3.046875 -38.640625 C 3.046875 -39.816406 3.492188 -40.816406 4.390625 -41.640625 C 5.296875 -42.472656 6.367188 -42.890625 7.609375 -42.890625 C 8.859375 -42.890625 9.929688 -42.472656 10.828125 -41.640625 C 11.734375 -40.816406 12.1875 -39.816406 12.1875 -38.640625 C 12.1875 -37.460938 11.734375 -36.453125 10.828125 -35.609375 C 9.929688 -34.773438 8.859375 -34.359375 7.609375 -34.359375 Z M 7.609375 -34.359375 "/></g></g></g><g fill="#000000" fill-opacity="1"><g transform="translate(113.388557, 52.451788)"><g><path d="M 11.8125 -40.578125 L 11.8125 0 L 3.375 0 L 3.375 -40.578125 Z M 11.8125 -40.578125 "/></g></g></g><g fill="#000000" fill-opacity="1"><g transform="translate(128.564098, 52.451788)"><g><path d="M 11.8125 -40.578125 L 11.8125 0 L 3.375 0 L 3.375 -40.578125 Z M 11.8125 -40.578125 "/></g></g></g><g fill="#000000" fill-opacity="1"><g transform="translate(143.73964, 52.451788)"><g><path d="M 3.375 0 L 3.375 -30.4375 L 11.8125 -30.4375 L 11.8125 0 Z M 7.609375 -34.359375 C 6.367188 -34.359375 5.296875 -34.773438 4.390625 -35.609375 C 3.492188 -36.453125 3.046875 -37.460938 3.046875 -38.640625 C 3.046875 -39.816406 3.492188 -40.816406 4.390625 -41.640625 C 5.296875 -42.472656 6.367188 -42.890625 7.609375 -42.890625 C 8.859375 -42.890625 9.929688 -42.472656 10.828125 -41.640625 C 11.734375 -40.816406 12.1875 -39.816406 12.1875 -38.640625 C 12.1875 -37.460938 11.734375 -36.453125 10.828125 -35.609375 C 9.929688 -34.773438 8.859375 -34.359375 7.609375 -34.359375 Z M 7.609375 -34.359375 "/></g></g></g><g fill="#000000" fill-opacity="1"><g transform="translate(158.915181, 52.451788)"><g><path d="M 19.5625 -30.4375 L 19.5625 -24.09375 L 13.828125 -24.09375 L 13.828125 -9.359375 C 13.828125 -8.191406 14.09375 -7.398438 14.625 -6.984375 C 15.15625 -6.578125 15.84375 -6.375 16.6875 -6.375 C 17.082031 -6.375 17.476562 -6.410156 17.875 -6.484375 C 18.269531 -6.554688 18.570312 -6.613281 18.78125 -6.65625 L 20.109375 -0.375 C 19.691406 -0.238281 19.097656 -0.0820312 18.328125 0.09375 C 17.554688 0.269531 16.625 0.378906 15.53125 0.421875 C 12.46875 0.546875 10.007812 -0.117188 8.15625 -1.578125 C 6.300781 -3.035156 5.378906 -5.257812 5.390625 -8.25 L 5.390625 -24.09375 L 1.234375 -24.09375 L 1.234375 -30.4375 L 5.390625 -30.4375 L 5.390625 -37.71875 L 13.828125 -37.71875 L 13.828125 -30.4375 Z M 19.5625 -30.4375 "/></g></g></g></g></g><g clip-path="url(#86ed8f43e8)"><g transform="matrix(1, 0, 0, 1, 141, 76)"><g clip-path="url(#daafa18e51)"><g clip-path="url(#7a5cdc8e67)"><g mask="url(#df31ad4cda)"><g><g clip-path="url(#d8a0e8132d)"><g clip-path="url(#7d3958bf8f)"><path fill="url(#2db6af5893)" d="M 9.203125 4.617188 L 9.203125 238.617188 L 234 238.617188 L 234 4.617188 Z M 9.203125 4.617188 " fill-rule="nonzero"/></g></g></g></g></g></g></g></g></svg>